<?xml version="1.0" encoding="utf-8"?>
<!-- Generator: Adobe Illustrator 25.1.0, SVG Export Plug-In . SVG Version: 6.00 Build 0)  -->
<svg version="1.1" id="Layer_1" xmlns="http://www.w3.org/2000/svg" xmlns:xlink="http://www.w3.org/1999/xlink" x="0px" y="0px"
	 width="54.7px" height="67.8px" viewBox="0 0 54.7 67.8" style="enable-background:new 0 0 54.7 67.8;" xml:space="preserve">
<style type="text/css">
	.st0{fill:none;stroke:#333E63;stroke-width:2;stroke-miterlimit:10;}
	.st1{fill:none;stroke:#F37020;stroke-width:2;stroke-miterlimit:10;}
	.st2{fill:#F37020;}
</style>
<g id="Adherence-Standards" transform="translate(-967.356 -543.925)">
	<g id="Group_14688">
		<line id="Line_256" class="st0" x1="1016.8" y1="593.2" x2="1001.3" y2="593.2"/>
		<path id="Path_4279" class="st0" d="M1007,555.4h-36.4c-1.2,0-2.2,1-2.2,2.2v50.9c0,1.2,1,2.2,2.2,2.2l0,0h27.9
			c1.5,0,2.8-1.2,2.8-2.8v-47.1c0-1.5,0.6-2.9,1.6-3.9l0,0c2.1-2.1,5.6-2.1,7.8,0l0,0c1,1,1.6,2.4,1.6,3.9v27.9
			c0,1.2,0.5,2.3,1.3,3.1l0,0c1.7,1.7,4.5,1.7,6.2,0l0,0c0.8-0.8,1.3-1.9,1.3-3.1V546c0-0.7-0.5-1.2-1.2-1.2l0,0h-30
			c-1.2,0-2.2,1-2.2,2.2v8.2"/>
		<line id="Line_257" class="st1" x1="979.2" y1="568.5" x2="990.4" y2="568.5"/>
		<line id="Line_258" class="st1" x1="972.2" y1="574" x2="997.4" y2="574"/>
		<line id="Line_259" class="st1" x1="972.2" y1="579.6" x2="997.4" y2="579.6"/>
	</g>
	<g id="Group_14693">
		<g id="Group_14690">
			<g id="Group_14689">
				<path id="Path_4280" class="st2" d="M980.6,589.9v3.7c-0.1,1.7,0.4,3.4,1.3,4.9c0.2,1.6,1.7,2.8,3.3,2.6
					c1.4-0.2,2.4-1.2,2.6-2.6c0.9-1.5,1.4-3.2,1.3-4.9v-3.7H980.6z M985.8,595v2.7h-2V595c-0.8-0.5-1-1.6-0.5-2.5
					c0.5-0.8,1.6-1,2.5-0.5s1,1.6,0.5,2.5C986.2,594.7,986,594.8,985.8,595z"/>
			</g>
		</g>
		<g id="Group_14692">
			<g id="Group_14691">
				<path id="Path_4281" class="st2" d="M978.2,587.5v6.2c-0.1,2.2,0.5,4.4,1.8,6.3c1.2,1.7,2.8,3,4.7,3.9l0.2,0.1l0.2-0.1
					c1.9-0.9,3.5-2.3,4.7-3.9c1.2-1.9,1.8-4,1.8-6.3v-6.2H978.2z M990.1,593.6c0.1,1.9-0.4,3.8-1.5,5.4c-0.9,1.3-2.1,2.3-3.5,3.1
					l-0.2,0.1l-0.2-0.1c-1.4-0.8-2.6-1.8-3.5-3.1c-1.1-1.6-1.6-3.5-1.5-5.4v-4.7h10.5L990.1,593.6L990.1,593.6z"/>
			</g>
		</g>
	</g>
</g>
</svg>
