<?xml version="1.0" encoding="utf-8"?>
<!-- Generator: Adobe Illustrator 25.1.0, SVG Export Plug-In . SVG Version: 6.00 Build 0)  -->
<svg version="1.1" id="Layer_1" xmlns="http://www.w3.org/2000/svg" xmlns:xlink="http://www.w3.org/1999/xlink" x="0px" y="0px"
	 width="57.4px" height="67.1px" viewBox="0 0 57.4 67.1" style="enable-background:new 0 0 57.4 67.1;" xml:space="preserve">
<style type="text/css">
	.st0{fill:none;stroke:#333E63;stroke-width:2;stroke-miterlimit:10;}
	.st1{fill:#F37020;}
</style>
<g id="Advanced-Marketing" transform="translate(-1073.266 -101.266)">
	<g id="Group_14712">
		<path id="Path_4313" class="st0" d="M1076.5,124.3l13.6-11.1l15.5,4l15.6-13.3"/>
		<circle id="Ellipse_1866" class="st1" cx="1076.6" cy="123.9" r="3.3"/>
		<circle id="Ellipse_1867" class="st1" cx="1091.1" cy="113.1" r="3.3"/>
		<circle id="Ellipse_1868" class="st1" cx="1105.6" cy="117.4" r="3.3"/>
		<circle id="Ellipse_1869" class="st1" cx="1120.2" cy="104.6" r="3.3"/>
	</g>
	<g id="Group_14713">
		<path id="Path_4314" class="st0" d="M1106.8,129l-12.6,11.1h-1.8l3.5,13.6l1.7-1.1l16.1,2.6L1106.8,129z"/>
		<path id="Path_4315" class="st0" d="M1089,141l3.8,14.3l-7.1,1.4c0,0-6.9,0.5-7.7-6.2c-0.6-3.7,1.5-7.2,5.1-8.4L1089,141z"/>
		<path id="Path_4316" class="st0" d="M1089.3,159.1l4.1-0.8l4.9,6.6l-3.7,2.1L1089.3,159.1z"/>
		<path id="Path_4317" class="st0" d="M1126.4,141.6c-0.1-0.5-0.7-0.8-1.2-0.7c0,0,0,0,0,0l-0.8,0.2l-3.4-13.6l0.6-0.2
			c0.5-0.1,0.8-0.7,0.7-1.2c0,0,0-0.1,0-0.1l-1.9-4.6c-0.2-0.4-0.7-0.7-1.1-0.6l-2.4,0.6c-0.5,0.1-0.8,0.6-0.7,1l0.5,5
			c0.1,0.5,0.5,0.9,1.1,0.9c0,0,0.1,0,0.1,0l0.6-0.2l3.4,13.6l-0.8,0.2c-0.5,0.1-0.8,0.7-0.7,1.2c0,0,0,0,0,0l3.1,12.5
			c0.4,1.7,2.1,2.7,3.8,2.3c1.7-0.4,2.7-2.1,2.3-3.8L1126.4,141.6z"/>
	</g>
</g>
</svg>
