<?xml version="1.0" encoding="utf-8"?>
<!-- Generator: Adobe Illustrator 25.1.0, SVG Export Plug-In . SVG Version: 6.00 Build 0)  -->
<svg version="1.1" id="Layer_1" xmlns="http://www.w3.org/2000/svg" xmlns:xlink="http://www.w3.org/1999/xlink" x="0px" y="0px"
	 width="96.4px" height="68.6px" viewBox="0 0 96.4 68.6" style="enable-background:new 0 0 96.4 68.6;" xml:space="preserve">
<style type="text/css">
	.st0{fill:none;stroke:#F37020;stroke-width:2;stroke-miterlimit:10;}
	.st1{fill:none;stroke:#333E63;stroke-width:2;stroke-miterlimit:10;}
</style>
<g id="Better-Budget" transform="translate(-862.792 -833.993)">
	<line id="Line_284" class="st0" x1="895.5" y1="872.3" x2="876.2" y2="851.3"/>
	<line id="Line_285" class="st0" x1="946.2" y1="851.9" x2="926.5" y2="873.4"/>
	<line id="Line_286" class="st0" x1="911.5" y1="864.8" x2="911.5" y2="835"/>
	<path id="Path_4305" class="st0" d="M917.6,864.8l6.1-11.1l-5.4-2.9l11.8-7.4l1.3,13.9l-4.8-2.2l-5.1,9.8"/>
	<path id="Path_4302" class="st1" d="M956.2,878.8h-90.4c0.8-24.4,20.8-43.8,45.2-43.8c0.2,0,0.3,0,0.5,0
		C935.7,835.3,955.4,854.6,956.2,878.8z"/>
	<path id="Path_4304" class="st1" d="M926.5,869.9v8.9h-31v-8.9c0-2.8,2.3-5.1,5-5.1h20.9C924.2,864.8,926.5,867.1,926.5,869.9
		L926.5,869.9z"/>
	<path id="Path_4306" class="st0" d="M872.1,887.1l2.2,4.5l5,0.7l-3.6,3.5l0.8,5l-4.4-2.3l-4.4,2.3l0.8-5l-3.6-3.5l5-0.7
		L872.1,887.1z"/>
	<path id="Path_4307" class="st0" d="M891.6,887.1l2.2,4.5l5,0.7l-3.6,3.5l0.8,5l-4.4-2.3l-4.4,2.3l0.8-5l-3.6-3.5l5-0.7
		L891.6,887.1z"/>
	<path id="Path_4308" class="st0" d="M911,887.1l2.2,4.5l5,0.7l-3.6,3.5l0.8,5l-4.4-2.3l-4.4,2.3l0.8-5l-3.6-3.5l5-0.7L911,887.1z"
		/>
	<path id="Path_4309" class="st0" d="M930.4,887.1l2.2,4.5l5,0.7l-3.6,3.5l0.8,5l-4.4-2.3l-4.4,2.3l0.8-5l-3.6-3.5l5-0.7
		L930.4,887.1z"/>
	<path id="Path_4310" class="st0" d="M949.8,887.1l2.2,4.5l5,0.7l-3.6,3.5l0.8,5l-4.4-2.3l-4.4,2.3l0.8-5l-3.6-3.5l5-0.7
		L949.8,887.1z"/>
</g>
</svg>
