<svg xmlns="http://www.w3.org/2000/svg" width="62.667" height="21.97" viewBox="0 0 62.667 21.97">
  <g id="Group_1091" data-name="Group 1091" transform="translate(-101.147 -108.319)">
    <path id="Path_1870" data-name="Path 1870" d="M102.659,108.417c.159-.013.319-.013.479-.014q5.53,0,11.06,0a6.566,6.566,0,0,1,4.526,1.646,6.236,6.236,0,0,1,1.905,5.877,6.385,6.385,0,0,1-1.785,3.22c-.161.148-.042.378.095.494a6.156,6.156,0,0,1,1.823,4.237,6.269,6.269,0,0,1-1.3,3.937,6.349,6.349,0,0,1-5.015,2.434c-3.857.005-7.714-.014-11.57-.01a1.6,1.6,0,0,1-1.668-1.918,1.485,1.485,0,0,1,1.332-1.125q5.868-.042,11.735-.03a3.419,3.419,0,0,0,3.042-1.744,3.2,3.2,0,0,0,.256-2.08,3.139,3.139,0,0,0-2.962-2.417c-3.52.035-7.04-.143-10.56-.049a11.348,11.348,0,0,1-1.663-.055,1.5,1.5,0,0,1-.953-2.327,1.4,1.4,0,0,1,1.2-.668q5.486-.009,10.972-.016a7.729,7.729,0,0,0,1.812-.173,3.281,3.281,0,0,0,1.955-1.717,3.057,3.057,0,0,0,.185-2.024,3.263,3.263,0,0,0-3.035-2.372q-5.905-.005-11.811-.02a1.56,1.56,0,0,1-1.522-1.2A1.621,1.621,0,0,1,102.659,108.417Z" transform="translate(0 -0.072)" fill="#0670ae"/>
    <path id="Path_1871" data-name="Path 1871" d="M513.842,108.99a6.829,6.829,0,0,1,2.909-.669q5.53-.005,11.059,0a3.954,3.954,0,0,1,.922.07,1.693,1.693,0,0,1,1.18,1.593,1.544,1.544,0,0,1-1.438,1.446q-5.822.018-11.645.02a3.428,3.428,0,0,0-2.238.736,3.058,3.058,0,0,0-1.14,2.736,3.266,3.266,0,0,0,1.822,2.484,5.362,5.362,0,0,0,2.064.318c3.545.044,7.09,0,10.636.038a2.72,2.72,0,0,1,1,.09,1.564,1.564,0,0,1,.808,2.07,1.492,1.492,0,0,1-1.383.856c-2.178,0-4.355.009-6.532.007-1.566.021-3.132.062-4.7.067a4.887,4.887,0,0,0-1.495.125,3.161,3.161,0,0,0-2.2,3.525,3.256,3.256,0,0,0,2.119,2.405,4.589,4.589,0,0,0,1.4.188q5.7.016,11.406.018a1.515,1.515,0,0,1,1.514,1.395,1.612,1.612,0,0,1-1.6,1.664c-3.743,0-7.485.011-11.228.008a7.283,7.283,0,0,1-2.268-.255,6.279,6.279,0,0,1-3.075-2.033,6.125,6.125,0,0,1-1.392-4.508,6.407,6.407,0,0,1,2.066-4.115,6.373,6.373,0,0,1-1.7-6.852A6.213,6.213,0,0,1,513.842,108.99Z" transform="translate(-366.11)" fill="#0670ae"/>
    <path id="Path_1872" data-name="Path 1872" d="M312.194,109.022a10.58,10.58,0,0,1,1.293-.055c2.484-.038,4.968,0,7.452.015,1.37.067,2.746-.025,4.114.1a1.422,1.422,0,0,1,1.155,1.386,1.461,1.461,0,0,1-.758,1.408,2.456,2.456,0,0,1-1.155.176q-5.488,0-10.977,0a3.731,3.731,0,0,0-2.55.887,3.085,3.085,0,0,0-.946,2.907,3.28,3.28,0,0,0,3.161,2.5c2.068.03,4.136.006,6.2.007a7.979,7.979,0,0,1,2.766.323,6.25,6.25,0,0,1,4.253,5.536,6.206,6.206,0,0,1-4.838,6.435,11.819,11.819,0,0,1-3.018.211q-4.9,0-9.8,0a2.045,2.045,0,0,1-1.49-.545,1.58,1.58,0,0,1,.1-2.208,2.927,2.927,0,0,1,1.805-.406c3.687,0,7.375-.008,11.063-.007a3.115,3.115,0,0,0,.082-6.228c-2.4-.019-4.8-.013-7.206-.036a6.011,6.011,0,0,1-3.664-1.171,6.254,6.254,0,0,1-1.657-8.323A6.389,6.389,0,0,1,309.8,109.8,6.543,6.543,0,0,1,312.194,109.022Z" transform="translate(-183.878 -0.566)" fill="#0670ae"/>
  </g>
</svg>
