<svg xmlns="http://www.w3.org/2000/svg" width="66.225" height="66.215" viewBox="0 0 66.225 66.215">
  <g id="Group_14642" data-name="Group 14642" transform="translate(50.452 -78.477)">
    <path id="Path_876" data-name="Path 876" d="M-20,89.85l-25.294,25.294" transform="translate(6.924 17.461)" fill="none" stroke="#f37020" stroke-linecap="round" stroke-linejoin="round" stroke-width="2"/>
    <path id="Path_877" data-name="Path 877" d="M-35.638,103.056l-12.39-2.928a1.79,1.79,0,0,1-1.328-2.155,1.773,1.773,0,0,1,.472-.851l9.854-9.854a3.574,3.574,0,0,1,2.5-1.047l11.11-.1" transform="translate(0 11.192)" fill="none" stroke="#f37020" stroke-linecap="round" stroke-linejoin="round" stroke-width="2"/>
    <path id="Path_878" data-name="Path 878" d="M3.4,99.851,6.295,85.94A5.367,5.367,0,0,0-.054,79.591l-13.911,2.893a21.442,21.442,0,0,0-10.809,5.839l-11.413,11.41a28.637,28.637,0,0,0-8.083,16.1l-.04.268a12.438,12.438,0,0,0,10.511,14.1,12.439,12.439,0,0,0,3.6,0l.268-.038a28.612,28.612,0,0,0,16.1-8.083l11.41-11.41A21.442,21.442,0,0,0,3.418,99.867Z" transform="translate(8.353)" fill="none" stroke="#f37020" stroke-linecap="round" stroke-linejoin="round" stroke-width="2"/>
    <path id="Path_879" data-name="Path 879" d="M-35.251,81.388a80.2,80.2,0,0,1,21.06,21.06" transform="translate(23.826 3.215)" fill="none" stroke="#f37020" stroke-linecap="round" stroke-linejoin="round" stroke-width="2"/>
    <path id="Path_880" data-name="Path 880" d="M-38.451,104.67l2.925,12.39a1.794,1.794,0,0,0,2.155,1.331,1.8,1.8,0,0,0,.851-.475l9.854-9.854a3.572,3.572,0,0,0,1.049-2.5l.1-11.11" transform="translate(18.439 25.207)" fill="none" stroke="#f37020" stroke-linecap="round" stroke-linejoin="round" stroke-width="2"/>
  </g>
</svg>
