<svg xmlns="http://www.w3.org/2000/svg" width="60.667" height="60.879" viewBox="0 0 60.667 60.879">
  <g id="Group_14639" data-name="Group 14639" transform="translate(74.405 -24.333)">
    <path id="Path_886" data-name="Path 886" d="M-54.147,57.036-57.4,44" transform="translate(23.111 26.963)" fill="none" stroke="#f37020" stroke-linecap="round" stroke-linejoin="round" stroke-width="2"/>
    <path id="Path_887" data-name="Path 887" d="M-66.738,57.036-63.48,44" transform="translate(9.63 26.963)" fill="none" stroke="#f37020" stroke-linecap="round" stroke-linejoin="round" stroke-width="2"/>
    <path id="Path_888" data-name="Path 888" d="M-21.5,70.963H-66.641A6.764,6.764,0,0,1-73.4,64.2h0V32.1a6.764,6.764,0,0,1,6.764-6.764H-21.5a6.761,6.761,0,0,1,6.766,6.761V64.2A6.763,6.763,0,0,1-21.5,70.963Z" transform="translate(0 0)" fill="none" stroke="#f37020" stroke-linecap="round" stroke-linejoin="round" stroke-width="2"/>
    <path id="Path_889" data-name="Path 889" d="M-67.4,43.914V35.033" transform="translate(8.667 14.011)" fill="none" stroke="#f37020" stroke-linecap="round" stroke-linejoin="round" stroke-width="2"/>
    <path id="Path_890" data-name="Path 890" d="M-63.4,50.222V30.666" transform="translate(14.444 7.703)" fill="none" stroke="#f37020" stroke-linecap="round" stroke-linejoin="round" stroke-width="2"/>
    <path id="Path_891" data-name="Path 891" d="M-59.4,45.069V34.233" transform="translate(20.222 12.856)" fill="none" stroke="#f37020" stroke-linecap="round" stroke-linejoin="round" stroke-width="2"/>
    <path id="Path_892" data-name="Path 892" d="M-55.4,49.17V31.394" transform="translate(26 8.755)" fill="none" stroke="#f37020" stroke-linecap="round" stroke-linejoin="round" stroke-width="2"/>
  </g>
</svg>
