<?xml version="1.0" encoding="utf-8"?>
<!-- Generator: Adobe Illustrator 25.2.0, SVG Export Plug-In . SVG Version: 6.00 Build 0)  -->
<svg version="1.1" id="Layer_1" xmlns="http://www.w3.org/2000/svg" xmlns:xlink="http://www.w3.org/1999/xlink" x="0px" y="0px"
	 width="80.2px" height="78.9px" viewBox="0 0 80.2 78.9" style="enable-background:new 0 0 80.2 78.9;" xml:space="preserve">
<style type="text/css">
	.st0{fill:none;stroke:#333E63;stroke-width:2;stroke-miterlimit:10;}
	.st1{fill:none;stroke:#F37020;stroke-width:2;stroke-miterlimit:10;}
</style>
<g id="Layer_2_1_">
	<g id="Layer_3">
		<circle class="st0" cx="42.6" cy="7.2" r="6.2"/>
		<path class="st0" d="M41.8,20c2.2,0.9,4.6,1.1,6.9,0.5c1.4-0.4,2.8-0.9,4.1-1.6c0.7-0.4,1.4-0.9,2.1-1.4c1.1-0.8,1.9-1.9,3.4-1.4
			c1.2,0.5,1.8,1.7,1.5,2.9c-0.5,1.2-1.3,2.2-2.4,2.8c-1.1,0.8-2.3,1.6-3.6,2.1c-4.3,1.9-9,2.6-13.6,1.9h-0.1"/>
		<path class="st0" d="M38.3,40.6c0,0-0.9-8.3,1.8-14.9c0.8-2,2.3-4.2,1.5-6.4c-0.4-1.1-1.1-1.9-2.1-2.5c-1.9-1.1-4-1.8-6.2-2.1
			c-2.9-0.1-5.9,0.5-8.4,1.9c-1.5,0.7-2.8,1.6-4.1,2.6c-0.8,0.7-1.7,1.4-2.4,2.1c-1,1-1.8,2.1-2.6,3.3c-0.8,1-1.2,2.2-1.2,3.5
			c0.1,1.3,1.2,2.2,2.4,2.2c1.6-0.1,1.9-1.4,2.7-2.5c0.5-0.7,1-1.4,1.5-2.1c0.9-1.1,2-2.2,3.2-3c1.8-1.3,4-2,6.2-2.1
			c0.1,0,0.2,0.1,0.2,0.2c0,0,0,0.1,0,0.1c-0.4,0.6-0.8,1.1-1.1,1.7c-1.1,1.6-2,3.4-2.9,5.1c-2,4.1-3.8,9.2-2.7,13.8
			c0.6,2.4,2.1,4.4,4.1,5.8c1.3,0.9,2.8,1.6,4.3,2c1.7,0.5,3.5,0.5,5.3,0.9c1.9,0.5,3.2,1.8,4.6,3.2c3,3,5.2,6.7,6.3,10.7
			c0.4,1.4,0.8,2.9,2.3,3.4c1.3,0.3,2.7-0.2,3.6-1.3c1.3-1.6,0.9-3.6,0.3-5.3c-2.9-7.3-6.4-16.2-14.1-19.5c-3.1-1.4-6.5-1.3-9.9-1.7
			l-7.1-0.9"/>
		<path class="st0" d="M37.7,50.3c-0.4,1.8-1,3.6-1.7,5.4c-0.9,2.4-2.2,4.7-3.6,6.9c-0.9,1.3-1.9,2.5-3,3.7c-1,1-2.3,2.2-3.8,2.2
			c-0.7,0-1.3-0.2-1.8-0.7c-0.4-0.5-0.6-1-0.6-1.7c0-1.8,1.3-3.2,2.1-4.7c0.5-0.8,0.9-1.7,1.3-2.6c1-2,1.7-4.1,2.2-6.2
			c0.3-1.5,0.6-3.4-0.2-4.9"/>
		
			<rect x="5.2" y="32.6" transform="matrix(0.4161 -0.9093 0.9093 0.4161 -30.4851 34.5127)" class="st1" width="13" height="16.7"/>
		<line class="st1" x1="19.2" y1="44.7" x2="4" y2="37.7"/>
		<path class="st1" d="M18.1,36.9c0.4-0.7,0.5-1.4,0.5-2.2c0-2.6-2.1-4.7-4.7-4.8c-2,0-3.7,1.2-4.4,3"/>
		<polyline class="st1" points="45.5,78.9 45.5,69.6 62.3,69.6 62.3,60.2 79.2,60.2 79.2,49.7 		"/>
	</g>
</g>
</svg>
