<?xml version="1.0" encoding="utf-8"?>
<!-- Generator: Adobe Illustrator 25.1.0, SVG Export Plug-In . SVG Version: 6.00 Build 0)  -->
<svg version="1.1" id="Layer_1" xmlns="http://www.w3.org/2000/svg" xmlns:xlink="http://www.w3.org/1999/xlink" x="0px" y="0px"
	 width="74px" height="67.8px" viewBox="0 0 74 67.8" style="enable-background:new 0 0 74 67.8;" xml:space="preserve">
<style type="text/css">
	.st0{fill:none;stroke:#333E63;stroke-width:2;stroke-miterlimit:10;}
	.st1{fill:none;stroke:#F37020;stroke-width:2;stroke-miterlimit:10;}
	.st2{fill:#F37020;}
</style>
<g id="Checkout" transform="translate(-418.97 -102.792)">
	<path id="Path_4222" class="st0" d="M419,112.8h11.1l12.2,39.3h41l8.8-25.8"/>
	<circle id="Ellipse_1828" class="st0" cx="448.8" cy="164.2" r="5.4"/>
	<circle id="Ellipse_1829" class="st0" cx="477" cy="164.2" r="5.4"/>
	<g id="Group_14650">
		<path id="Path_4223" class="st1" d="M469.5,105.9c0.7-0.1,1.4,0.3,1.6,1.1c0.1,0.3,0,0.7-0.2,1c-2.3,3.4-5.4,9.3-2.6,12.2
			c2.6,2.5,4.8,5.3,6.8,8.3c2,3.2,1.9,7.3-0.4,10.3c-5.7,6.7-15.8,7.5-22.5,1.7c-0.6-0.5-1.2-1.1-1.7-1.7c-2.2-3-2.4-7.1-0.4-10.3
			c1.9-3,4.2-5.8,6.8-8.3c3.2-3.2-1.2-10.4-3.4-13.4c-0.4-0.6-0.3-1.5,0.3-1.9c0.1-0.1,0.2-0.1,0.3-0.2l0.7-0.2
			c2.7-1,5.7-0.8,8.2,0.5l0,0C465,106,467.3,106.3,469.5,105.9L469.5,105.9z"/>
		<line id="Line_210" class="st1" x1="457.6" y1="114.6" x2="467.6" y2="114.6"/>
		<line id="Line_211" class="st1" x1="456.9" y1="120.2" x2="468.3" y2="120.2"/>
		<path id="Path_4224" class="st2" d="M459.5,134.1l-0.7,1.6c1,0.6,2.1,1,3.3,1v1.4h1.3v-1.4c2-0.2,3-1.4,3-2.8c0-1.8-1.6-2.3-3-2.7
			v-2.2c0.7,0.1,1.4,0.3,2,0.7l0.6-1.6c-0.8-0.5-1.7-0.7-2.7-0.8V126h-1.3v1.4c-2,0.2-3,1.4-3,2.8c0,1.9,1.6,2.3,3,2.7v2.2
			C461.2,134.9,460.3,134.6,459.5,134.1z M463.2,133c0.5,0.2,0.8,0.4,0.8,0.8s-0.3,0.6-0.8,0.8V133z M461.3,130.3
			c0-0.4,0.2-0.7,0.8-0.8v1.6C461.6,131,461.3,130.7,461.3,130.3L461.3,130.3z"/>
	</g>
</g>
</svg>
