<?xml version="1.0" encoding="utf-8"?>
<!-- Generator: Adobe Illustrator 25.1.0, SVG Export Plug-In . SVG Version: 6.00 Build 0)  -->
<svg version="1.1" id="Layer_1" xmlns="http://www.w3.org/2000/svg" xmlns:xlink="http://www.w3.org/1999/xlink" x="0px" y="0px"
	 width="41.9px" height="67.8px" viewBox="0 0 41.9 67.8" style="enable-background:new 0 0 41.9 67.8;" xml:space="preserve">
<style type="text/css">
	.st0{fill:none;stroke:#F37020;stroke-width:2;stroke-miterlimit:10;}
	.st1{fill:none;stroke:#333E63;stroke-width:2;stroke-miterlimit:10;}
</style>
<g id="_Easy-Integration" transform="translate(-590.866 -102.833)">
	<g id="Group_14652">
		<path id="Path_4225" class="st0" d="M609.6,111.4v9.6h4.3v8.3"/>
		<circle id="Ellipse_1830" class="st0" cx="609.6" cy="107.8" r="3.9"/>
		<line id="Line_212" class="st0" x1="600.6" y1="125.7" x2="600.6" y2="133.3"/>
		<circle id="Ellipse_1831" class="st0" cx="600.6" cy="122.1" r="3.9"/>
		<line id="Line_213" class="st0" x1="623" y1="120.3" x2="623" y2="133.5"/>
		<circle id="Ellipse_1832" class="st0" cx="623" cy="116.7" r="3.9"/>
	</g>
	<g id="Group_14654">
		<g id="Group_14653">
			<path id="Path_4226" class="st1" d="M628.8,144.7h-1.1c-0.4,0-0.8-0.3-0.9-0.6c-0.1-0.3-0.3-0.6-0.4-0.9
				c-0.2-0.4-0.1-0.8,0.2-1.1l0.8-0.8c1.2-1.2,1.2-3.1,0-4.2l-2.8-2.8c-1.2-1.2-3.1-1.2-4.2,0l-0.8,0.8c-0.3,0.3-0.7,0.4-1.1,0.2
				c-0.3-0.1-0.6-0.3-0.9-0.4c-0.4-0.1-0.6-0.5-0.6-0.9v-1.1c0-1.7-1.3-3-3-3h-4c-1.7,0-3,1.3-3,3c0,0,0,0,0,0v1.1
				c0,0.4-0.3,0.8-0.6,0.9c-0.3,0.1-0.6,0.3-0.9,0.4c-0.4,0.2-0.8,0.1-1.1-0.2l-0.8-0.8c-1.2-1.2-3.1-1.2-4.2,0l-2.8,2.8
				c-1.2,1.2-1.2,3.1,0,4.2l0.8,0.8c0.3,0.3,0.4,0.7,0.2,1.1c-0.1,0.3-0.3,0.6-0.4,0.9c-0.1,0.4-0.5,0.6-0.9,0.6h-1.1
				c-1.7,0-3,1.3-3,3v4c0,1.7,1.3,3,3,3l0,0h1.1c0.4,0,0.8,0.3,0.9,0.6c0.1,0.3,0.3,0.6,0.4,0.9c0.2,0.4,0.1,0.8-0.2,1.1l-0.8,0.8
				c-1.2,1.2-1.2,3.1,0,4.2l2.8,2.8c1.2,1.2,3.1,1.2,4.2,0l0.8-0.8c0.3-0.3,0.7-0.4,1.1-0.2c0.3,0.1,0.6,0.3,0.9,0.4
				c0.4,0.1,0.7,0.5,0.7,0.9v1.1c0,1.7,1.3,3,3,3l0,0h4c1.7,0,3-1.3,3-3v-1.1c0-0.4,0.3-0.8,0.6-0.9c0.3-0.1,0.6-0.3,0.9-0.4
				c0.4-0.2,0.8-0.1,1.1,0.2l0.8,0.8c1.2,1.2,3.1,1.2,4.2,0l2.8-2.8c1.2-1.2,1.2-3.1,0-4.2l-0.8-0.8c-0.3-0.3-0.4-0.7-0.2-1.1
				c0.1-0.3,0.3-0.6,0.4-0.9c0.1-0.4,0.5-0.6,0.9-0.6h1.1c1.7,0,3-1.3,3-3c0,0,0,0,0,0v-4C631.7,146,630.4,144.7,628.8,144.7
				C628.8,144.7,628.8,144.7,628.8,144.7z"/>
		</g>
	</g>
	<g id="Group_14656">
		<g id="Group_14655">
			<path id="Path_4227" class="st1" d="M620.8,149.3c0-0.2,0-0.5-0.1-0.7c0-0.3-0.1-0.5-0.1-0.8c0-0.2-0.1-0.3-0.1-0.5
				c-0.1-0.2-0.1-0.4-0.2-0.6c0-0.1-0.1-0.3-0.2-0.4c-0.1-0.3-0.3-0.6-0.4-0.9c0,0,0,0,0-0.1c-0.3-0.5-0.6-0.9-0.9-1.3
				c0,0-0.1-0.1-0.1-0.1c-0.1-0.2-0.3-0.3-0.4-0.5c-0.1-0.1-0.2-0.2-0.2-0.2c-0.1-0.1-0.2-0.2-0.3-0.3c-0.1-0.1-0.2-0.2-0.4-0.3
				l-0.2-0.1c-1.5-1.2-3.4-1.8-5.3-1.8c-0.1,0-0.2,0-0.3,0c-0.2,0-0.4,0-0.6,0c-0.1,0-0.2,0-0.3,0c-0.3,0-0.6,0.1-1,0.2
				c-4.8,1.2-7.7,6.1-6.4,10.9c0.8,3.2,3.3,5.6,6.5,6.4c0,0,0,0,0,0c0.3,0.1,0.7,0.2,1,0.2c0.2,0,0.5,0,0.7,0c0.2,0,0.3,0,0.5,0
				c0.3,0,0.6,0,0.9,0c0,0,0.1,0,0.1,0c0.2,0,0.5-0.1,0.7-0.1c0.1,0,0.2,0,0.3-0.1c0.2,0,0.3-0.1,0.5-0.1c0.1,0,0.3-0.1,0.4-0.1
				s0.3-0.1,0.4-0.2s0.3-0.1,0.4-0.2c0.2-0.1,0.3-0.2,0.5-0.2h0c0.9-0.5,1.8-1.1,2.6-1.8c0.2-0.2,0.4-0.4,0.5-0.7
				c0.8-1.2,1.3-2.6,1.5-4.1c0-0.2,0.1-0.4,0.1-0.6c0-0.2,0-0.4,0-0.5c0-0.1,0-0.1,0-0.2C620.8,149.5,620.8,149.4,620.8,149.3z"/>
		</g>
	</g>
</g>
</svg>
