<?xml version="1.0" encoding="utf-8"?>
<!-- Generator: Adobe Illustrator 25.2.0, SVG Export Plug-In . SVG Version: 6.00 Build 0)  -->
<svg version="1.1" id="Layer_1" xmlns="http://www.w3.org/2000/svg" xmlns:xlink="http://www.w3.org/1999/xlink" x="0px" y="0px"
	 width="74.1px" height="74.2px" viewBox="0 0 74.1 74.2" style="enable-background:new 0 0 74.1 74.2;" xml:space="preserve">
<style type="text/css">
	.st0{fill:none;stroke:#333E63;stroke-width:2;stroke-miterlimit:10;}
	.st1{fill:none;stroke:#F37020;stroke-width:2;stroke-miterlimit:10;}
</style>
<g id="Layer_2_1_">
	<g id="Layer_3">
		<polyline class="st0" points="24.3,46.8 24.3,51.8 28.1,55.5 46.6,55.5 50.5,51.5 50.5,49 		"/>
		<line class="st0" x1="28.1" y1="55.5" x2="28.1" y2="74.2"/>
		<line class="st0" x1="46.6" y1="55.5" x2="46.6" y2="74.2"/>
		<line class="st0" x1="28.1" y1="64.2" x2="46.6" y2="64.2"/>
		<line class="st0" x1="38.9" y1="59.6" x2="42.3" y2="59.6"/>
		<polyline class="st0" points="21.1,25.9 15.7,25.9 13.6,27.9 13.6,46.6 18.9,51.8 24.3,51.8 		"/>
		<line class="st0" x1="13.6" y1="27.9" x2="0" y2="27.9"/>
		<line class="st0" x1="13.6" y1="46.6" x2="0" y2="46.6"/>
		<line class="st0" x1="5" y1="28.1" x2="5" y2="46.7"/>
		<line class="st0" x1="9.5" y1="31.9" x2="9.5" y2="35.3"/>
		<polyline class="st0" points="24,25.7 24,24 27.4,20.6 46.6,20.6 49.9,23.9 49.9,25.7 		"/>
		<line class="st0" x1="27.4" y1="20.6" x2="27.4" y2="0.2"/>
		<line class="st0" x1="46.6" y1="20.6" x2="46.6" y2="0"/>
		<line class="st0" x1="27.1" y1="12.1" x2="46.5" y2="12.1"/>
		<line class="st0" x1="32" y1="16.5" x2="35.2" y2="16.5"/>
		<path class="st1" d="M34.4,31.1H21.5c-1.4,0-2.6-1.2-2.6-2.6c0,0,0,0,0,0l0,0c0-1.4,1.2-2.6,2.6-2.6c0,0,0,0,0,0h30l2.2,2.2v18.2
			l-3,3H39.6l-2.7-2.7"/>
		<path class="st1" d="M34.4,36.3H21.5c-1.4,0-2.6-1.2-2.6-2.6l0,0l0,0c0-1.4,1.2-2.6,2.6-2.6c0,0,0,0,0,0h12.9"/>
		<path class="st1" d="M34.4,41.6H21.5c-1.4,0-2.6-1.1-2.6-2.6l0,0c0-1.4,1.2-2.6,2.6-2.6c0,0,0,0,0,0h12.9"/>
		<path class="st1" d="M34.4,41.6H21.5c-1.4,0-2.6,1.2-2.6,2.6l0,0l0,0c0,1.4,1.2,2.6,2.6,2.6c0,0,0,0,0,0H41"/>
		<line class="st1" x1="53.8" y1="28.1" x2="74.1" y2="28.1"/>
		<line class="st1" x1="53.8" y1="46.4" x2="74.1" y2="46.4"/>
		<line class="st1" x1="62.2" y1="28.2" x2="62.2" y2="46.5"/>
		<line class="st1" x1="57.8" y1="32" x2="57.8" y2="35.4"/>
	</g>
</g>
</svg>
