<svg xmlns="http://www.w3.org/2000/svg" width="1433" height="909" viewBox="0 0 1433 909">
  <g id="Group_1287" data-name="Group 1287" transform="translate(-244 -4273.461)">
    <g id="Group_1239" data-name="Group 1239" transform="translate(0 -734.039)">
      <path id="Path_3633" data-name="Path 3633" d="M-605.439-3353.469h-70.031V-3382h70.031l12.969,14.266Z" transform="translate(933.471 8430.969)" fill="#db3218"/>
      <text id="V_0.4" data-name="V 0.4" transform="translate(295 5068.5)" fill="#fff" font-size="15" font-family="Poppins-SemiBold, Poppins" font-weight="600" letter-spacing="0.1em"><tspan x="-21.87" y="0">V 0.4</tspan></text>
      <path id="Path_3634" data-name="Path 3634" d="M-10150-12580v27" transform="translate(10408.5 17656.5)" fill="none" stroke="#db3218" stroke-width="1"/>
      <line id="Line_175" data-name="Line 175" x1="389" transform="translate(424.5 5127)" fill="none" stroke="#f37020" stroke-width="4"/>
      <rect id="Rectangle_970" data-name="Rectangle 970" width="169" height="48" rx="5" transform="translate(244 5103.5)" fill="#f37020"/>
      <text id="_2021" data-name="2021" transform="translate(329 5134.5)" fill="#fff" font-size="21" font-family="Poppins-SemiBold, Poppins" font-weight="600" letter-spacing="0.1em"><tspan x="-25.788" y="0">2021</tspan></text>
    </g>
    <path id="Path_3627" data-name="Path 3627" d="M-605.439-3353.469h-70.031V-3382h70.031l12.969,14.266Z" transform="translate(933.471 8367.961)" fill="#db3218"/>
    <path id="Path_3629" data-name="Path 3629" d="M-605.439-3353.469h-70.031V-3382h70.031l12.969,14.266Z" transform="translate(933.471 8152.43)" fill="#db3218"/>
    <path id="Path_3631" data-name="Path 3631" d="M-605.439-3353.469h-70.031V-3382h70.031l12.969,14.266Z" transform="translate(933.471 7937.43)" fill="#db3218"/>
    <text id="V_0.1" data-name="V 0.1" transform="translate(295 5005.492)" fill="#fff" font-size="15" font-family="Poppins-SemiBold, Poppins" font-weight="600" letter-spacing="0.1em"><tspan x="-19.627" y="0">V 0.1</tspan></text>
    <text id="V_0.2" data-name="V 0.2" transform="translate(295 4789.961)" fill="#fff" font-size="15" font-family="Poppins-SemiBold, Poppins" font-weight="600" letter-spacing="0.1em"><tspan x="-21.217" y="0">V 0.2</tspan></text>
    <text id="V_0.3" data-name="V 0.3" transform="translate(295 4574.961)" fill="#fff" font-size="15" font-family="Poppins-SemiBold, Poppins" font-weight="600" letter-spacing="0.1em"><tspan x="-21.405" y="0">V 0.3</tspan></text>
    <path id="Path_3628" data-name="Path 3628" d="M-10150-12580v27" transform="translate(10408.5 17593.492)" fill="none" stroke="#db3218" stroke-width="1"/>
    <path id="Path_3630" data-name="Path 3630" d="M-10150-12580v27" transform="translate(10408.5 17377.961)" fill="none" stroke="#db3218" stroke-width="1"/>
    <path id="Path_3632" data-name="Path 3632" d="M-10150-12580v27" transform="translate(10408.5 17162.961)" fill="none" stroke="#db3218" stroke-width="1"/>
    <line id="Line_171" data-name="Line 171" y2="909" transform="translate(424 4273.461)" fill="none" stroke="#f37020" stroke-width="2" stroke-dasharray="10 14"/>
    <line id="Line_172" data-name="Line 172" x1="329" transform="translate(424.5 5065.961)" fill="none" stroke="#f37020" stroke-width="4"/>
    <line id="Line_173" data-name="Line 173" x1="979" transform="translate(424.5 4848.461)" fill="none" stroke="#f37020" stroke-width="2"/>
    <line id="Line_174" data-name="Line 174" x1="979" transform="translate(424.5 4633.461)" fill="none" stroke="#f37020" stroke-width="2"/>
    <g id="Rectangle_944" data-name="Rectangle 944" transform="translate(456 4949.461)" fill="#fff" stroke="#f37020" stroke-width="2">
      <rect width="385.33" height="233" rx="5" stroke="none"/>
      <rect x="1" y="1" width="383.33" height="231" rx="4" fill="none"/>
    </g>
    <g id="Rectangle_961" data-name="Rectangle 961" transform="translate(873 4734.961)" fill="#fff" stroke="#f37020" stroke-width="2">
      <rect width="385.33" height="341.667" rx="5" stroke="none"/>
      <rect x="1" y="1" width="383.33" height="339.667" rx="4" fill="none"/>
    </g>
    <g id="Rectangle_962" data-name="Rectangle 962" transform="translate(1290.67 4734.961)" fill="#fff" stroke="#f37020" stroke-width="2">
      <rect width="385.33" height="363.667" rx="5" stroke="none"/>
      <rect x="1" y="1" width="383.33" height="361.667" rx="4" fill="none"/>
    </g>
    <rect id="Rectangle_967" data-name="Rectangle 967" width="385.33" height="412.667" rx="5" transform="translate(1290.67 4290.294)" fill="#fff" stroke="#f37020" stroke-width="2"/>
    <g id="Rectangle_971" data-name="Rectangle 971" transform="translate(456 4293.294)" fill="#fff" stroke="#f37020" stroke-width="2">
      <rect width="385.33" height="194.333" rx="5" stroke="none"/>
      <rect x="1" y="1" width="383.33" height="192.333" rx="4" fill="none"/>
    </g>
    <g id="Rectangle_949" data-name="Rectangle 949" transform="translate(456 4778.961)" fill="#fff" stroke="#f37020" stroke-width="2">
      <path d="M0,0H385.33a0,0,0,0,1,0,0V134a5,5,0,0,1-5,5H5a5,5,0,0,1-5-5V0A0,0,0,0,1,0,0Z" stroke="none"/>
      <path d="M2,1H383.33a1,1,0,0,1,1,1V134a4,4,0,0,1-4,4H5a4,4,0,0,1-4-4V2A1,1,0,0,1,2,1Z" fill="none"/>
    </g>
    <g id="Rectangle_965" data-name="Rectangle 965" transform="translate(456 4563.961)" fill="#fff" stroke="#f37020" stroke-width="2">
      <path d="M0,0H385.33a0,0,0,0,1,0,0V134a5,5,0,0,1-5,5H5a5,5,0,0,1-5-5V0A0,0,0,0,1,0,0Z" stroke="none"/>
      <path d="M2,1H383.33a1,1,0,0,1,1,1V134a4,4,0,0,1-4,4H5a4,4,0,0,1-4-4V2A1,1,0,0,1,2,1Z" fill="none"/>
    </g>
    <g id="Rectangle_969" data-name="Rectangle 969" transform="translate(873 4366.195)" fill="#fff" stroke="#f37020" stroke-width="2">
      <path d="M0,0H385.33a0,0,0,0,1,0,0V331.766a5,5,0,0,1-5,5H5a5,5,0,0,1-5-5V0A0,0,0,0,1,0,0Z" stroke="none"/>
      <path d="M2,1H383.33a1,1,0,0,1,1,1V331.766a4,4,0,0,1-4,4H5a4,4,0,0,1-4-4V2A1,1,0,0,1,2,1Z" fill="none"/>
    </g>
    <rect id="Rectangle_945" data-name="Rectangle 945" width="169" height="48" rx="5" transform="translate(244 5040.492)" fill="#f37020"/>
    <rect id="Rectangle_948" data-name="Rectangle 948" width="169" height="48" rx="5" transform="translate(244 4824.961)" fill="#f37020"/>
    <rect id="Rectangle_963" data-name="Rectangle 963" width="169" height="48" rx="5" transform="translate(244 4609.961)" fill="#f37020"/>
    <text id="_2007-2014" data-name="2007-2014" transform="translate(329 5071.492)" fill="#fff" font-size="21" font-family="Poppins-SemiBold, Poppins" font-weight="600" letter-spacing="0.1em"><tspan x="-63.42" y="0">2007-2014</tspan></text>
    <text id="_2014-2018" data-name="2014-2018" transform="translate(329 4855.961)" fill="#fff" font-size="21" font-family="Poppins-SemiBold, Poppins" font-weight="600" letter-spacing="0.1em"><tspan x="-61.435" y="0">2014-2018</tspan></text>
    <text id="_2018-2020" data-name="2018-2020" transform="translate(329 4640.961)" fill="#fff" font-size="21" font-family="Poppins-SemiBold, Poppins" font-weight="600" letter-spacing="0.1em"><tspan x="-63.504" y="0">2018-2020</tspan></text>
    <text id="Launched_Infibeam.com_an_eCommerce_marketplace" data-name="Launched Infibeam.com, an eCommerce marketplace" transform="translate(479 4970.461)" fill="#333e63" font-size="16" font-family="Poppins-Regular, Poppins" letter-spacing="0.1em"><tspan x="0" y="17">Launched Infibeam.com, an </tspan><tspan x="0" y="49">eCommerce marketplace</tspan></text>
    <text id="Launched_Enterprise_Software_platform_BuildaBazaar_to_build_scalable_online_stores_for_enterprises_Government_" data-name="Launched Enterprise Software platform (BuildaBazaar)to build scalable online stores for enterprises &amp; Government " transform="translate(896 4750.961)" fill="#333e63" font-size="16" font-family="Poppins-Regular, Poppins" letter-spacing="0.1em"><tspan x="0" y="17">Launched Enterprise Software </tspan><tspan x="0" y="49">platform (BuildaBazaar)to build </tspan><tspan x="0" y="81">scalable online stores for </tspan><tspan x="0" y="113">enterprises &amp; Government </tspan></text>
    <text id="Acquired_Dubai-based_Vavian_International_to_launch_Digital_Payments_business_in_the_UAE" data-name="Acquired Dubai-based Vavian International to launch Digital Payments business in the UAE" transform="translate(1323 4310.794)" fill="#333e63" font-size="16" font-family="Poppins-Regular, Poppins" letter-spacing="0.1em"><tspan x="0" y="17">Acquired Dubai-based Vavian </tspan><tspan x="0" y="49">International to launch Digital </tspan><tspan x="0" y="81">Payments business in the UAE</tspan></text>
    <text id="SME_Software_platform_to_Suvidhaa_" data-name="SME Software platform to Suvidhaa " transform="translate(899 4444)" fill="#333e63" font-size="16" font-family="Poppins-Regular, Poppins" letter-spacing="0.1em"><tspan x="0" y="17">SME Software platform to Suvidhaa </tspan></text>
    <text id="Ancillary_eCommerce_business_to_Ingenius_eCommerce" data-name="Ancillary eCommerce business to Ingenius eCommerce" transform="translate(899 4482.373)" fill="#333e63" font-size="16" font-family="Poppins-Regular, Poppins" letter-spacing="0.1em"><tspan x="0" y="17">Ancillary eCommerce business to </tspan><tspan x="0" y="49">Ingenius eCommerce</tspan></text>
    <text id="Theme_Park_Event_Software_to_DRC" data-name="Theme Park &amp; Event Software to DRC" transform="translate(899 4555.373)" fill="#333e63" font-size="16" font-family="Poppins-Regular, Poppins" letter-spacing="0.1em"><tspan x="0" y="17">Theme Park &amp; Event Software to </tspan><tspan x="0" y="49">DRC</tspan></text>
    <text id="Sold_51_stake_in_the_UAE_software_platform_entity_to_Unipropitia" data-name="Sold 51% stake in the UAE software platform entity to Unipropitia" transform="translate(899 4621.667)" fill="#333e63" font-size="16" font-family="Poppins-Regular, Poppins" letter-spacing="0.1em"><tspan x="0" y="17">Sold 51% stake in the UAE software </tspan><tspan x="0" y="49">platform entity to Unipropitia</tspan></text>
    <text id="The_journey_continues_as_a_leading_multinational_fintech_company" data-name="The journey continues as a leading multinational fintech company" transform="translate(487 4344.793)" fill="#f37020" font-size="16" font-family="Poppins" letter-spacing="0.1em"><tspan x="16.228" y="17">THE JOURNEY CONTINUES AS A </tspan><tspan x="41.572" y="49">LEADING MULTINATIONAL </tspan><tspan x="69.852" y="81">FINTECH COMPANY</tspan></text>
    <text id="Filed_for_the_demerger_and_listing_of_Suvidhaa_and_DRC_Systems_to_unlock_shareholder_value" data-name="Filed for the demerger and listing of Suvidhaa and DRC Systems to unlock shareholder value" transform="translate(1323 4419.794)" fill="#333e63" font-size="16" font-family="Poppins-Regular, Poppins" letter-spacing="0.1em"><tspan x="0" y="17">Filed for the demerger and listing </tspan><tspan x="0" y="49">of Suvidhaa and DRC Systems to </tspan><tspan x="0" y="81">unlock shareholder value</tspan></text>
    <text id="Acquired_and_merged_Avenues_India_Pvt._Ltd.to_enter_into_Digital_Payments_business_" data-name="Acquired and merged Avenues India Pvt. Ltd.to enter into Digital Payments business," transform="translate(1323 4750.961)" fill="#333e63" font-size="16" font-family="Poppins-Regular, Poppins" letter-spacing="0.1em"><tspan x="0" y="17">Acquired and merged Avenues </tspan><tspan x="0" y="49">India Pvt. Ltd.to enter into Digital </tspan><tspan x="0" y="81">Payments business,</tspan></text>
    <text id="Launched_digital_payments_in_the_KSA_Oman_and_USA" data-name="Launched digital payments in the KSA, Oman and USA" transform="translate(1323 4525.127)" fill="#333e63" font-size="16" font-family="Poppins-Regular, Poppins" letter-spacing="0.1em"><tspan x="0" y="17">Launched digital payments in the </tspan><tspan x="0" y="49">KSA, Oman and USA</tspan></text>
    <text id="Awarded_contract_from_the_Government_of_India_to_develop_and_manage_online_procurement_portal_Government_e-Marketplace_GeM_" data-name="Awarded  contract from the Government of India to develop and manage online procurement portal, Government e-Marketplace (GeM)" transform="translate(1323 4854.961)" fill="#333e63" font-size="16" font-family="Poppins-Regular, Poppins" letter-spacing="0.1em"><tspan x="0" y="17" xml:space="preserve">Awarded  contract from the </tspan><tspan x="0" y="49">Government of India to develop </tspan><tspan x="0" y="81">and manage online procurement </tspan><tspan x="0" y="113">portal, Government e-Marketplace </tspan><tspan x="0" y="145">(GeM)</tspan></text>
    <text id="Acquired_Cardpay_Technologies_GRIT_to_offer_credit_cards_to_corporates" data-name="Acquired Cardpay Technologies (GRIT) to offer credit cards to corporates" transform="translate(1323 4600.127)" fill="#333e63" font-size="16" font-family="Poppins-Regular, Poppins" letter-spacing="0.1em"><tspan x="0" y="17">Acquired Cardpay Technologies </tspan><tspan x="0" y="49">(GRIT) to offer credit cards to </tspan><tspan x="0" y="81">corporates</tspan></text>
    <text id="Acquired_cloud_ERP_solutions_provider_DRC_Systems" data-name="Acquired cloud ERP solutions provider DRC Systems" transform="translate(1323 5022.961)" fill="#333e63" font-size="16" font-family="Poppins-Regular, Poppins" letter-spacing="0.1em"><tspan x="0" y="17">Acquired cloud ERP solutions </tspan><tspan x="0" y="49">provider DRC Systems</tspan></text>
    <text id="Acquired_ODigMa_a_digital_marketing_services_company" data-name="Acquired ODigMa , a digital marketing services company" transform="translate(896 4885.961)" fill="#333e63" font-size="16" font-family="Poppins-Regular, Poppins" letter-spacing="0.1em"><tspan x="0" y="17">Acquired ODigMa , a digital </tspan><tspan x="0" y="49">marketing services company</tspan></text>
    <text id="Received_licence_from_ICANN_to_launch_and_operate_.OOO_GTLD_globally" data-name="Received licence from ICANN to launch and operate ‘.OOO’ GTLD globally" transform="translate(896 4961.961)" fill="#333e63" font-size="16" font-family="Poppins-Regular, Poppins" letter-spacing="0.1em"><tspan x="0" y="17">Received licence from ICANN to </tspan><tspan x="0" y="49">launch and operate ‘.OOO’ GTLD </tspan><tspan x="0" y="81">globally</tspan></text>
    <text id="Got_listed_on_the_BSE_and_NSE._Part_of_S_P_BSE_A_Group_and_S_P_BSE_500" data-name="Got listed on the BSE and NSE. Part of S&amp;P BSE A Group and S&amp;P BSE 500" transform="translate(487 4802.961)" fill="#f37020" font-size="16" font-family="Poppins-Regular, Poppins" letter-spacing="0.1em"><tspan x="0" y="17">Got listed on the BSE and NSE. Part </tspan><tspan x="0" y="49">of S&amp;P BSE A Group and S&amp;P BSE </tspan><tspan x="0" y="81">500</tspan></text>
    <text id="Infibeam_Incorporation_ltd_rebranded_as_Infibeam_Avenues_ltd_" data-name="Infibeam Incorporation ltd rebranded as  Infibeam Avenues ltd " transform="translate(487 4587.961)" fill="#f37020" font-size="16" font-family="Poppins-Regular, Poppins" letter-spacing="0.1em"><tspan x="0" y="17">Infibeam Incorporation ltd </tspan><tspan x="0" y="49" xml:space="preserve">rebranded as  Infibeam Avenues </tspan><tspan x="0" y="81">ltd </tspan></text>
    <text id="Launched_Small_and_Medium_Enterprise_SME_marketplace_software_platform_BuildaBazaar_to_build_online_stores." data-name="Launched Small and Medium Enterprise (SME) marketplace software platform BuildaBazaar to build online stores." transform="translate(479 5040.461)" fill="#333e63" font-size="16" font-family="Poppins-Regular, Poppins" letter-spacing="0.1em"><tspan x="0" y="17">Launched Small and Medium </tspan><tspan x="0" y="49">Enterprise (SME) marketplace </tspan><tspan x="0" y="81">software platform BuildaBazaar to </tspan><tspan x="0" y="113">build online stores.</tspan></text>
    <circle id="Ellipse_1774" data-name="Ellipse 1774" cx="2.5" cy="2.5" r="2.5" transform="translate(466 4980.461)" fill="#f37020"/>
    <circle id="Ellipse_1784" data-name="Ellipse 1784" cx="2.5" cy="2.5" r="2.5" transform="translate(883 4760.961)" fill="#f37020"/>
    <circle id="Ellipse_1795" data-name="Ellipse 1795" cx="2.5" cy="2.5" r="2.5" transform="translate(886 4454)" fill="#f37020"/>
    <circle id="Ellipse_1796" data-name="Ellipse 1796" cx="2.5" cy="2.5" r="2.5" transform="translate(886 4492.373)" fill="#f37020"/>
    <circle id="Ellipse_1797" data-name="Ellipse 1797" cx="2.5" cy="2.5" r="2.5" transform="translate(886 4565.373)" fill="#f37020"/>
    <circle id="Ellipse_1798" data-name="Ellipse 1798" cx="2.5" cy="2.5" r="2.5" transform="translate(886 4631.667)" fill="#f37020"/>
    <circle id="Ellipse_1792" data-name="Ellipse 1792" cx="2.5" cy="2.5" r="2.5" transform="translate(1310 4429.794)" fill="#f37020"/>
    <circle id="Ellipse_1788" data-name="Ellipse 1788" cx="2.5" cy="2.5" r="2.5" transform="translate(1310 4760.961)" fill="#f37020"/>
    <circle id="Ellipse_1793" data-name="Ellipse 1793" cx="2.5" cy="2.5" r="2.5" transform="translate(1310 4535.127)" fill="#f37020"/>
    <circle id="Ellipse_1789" data-name="Ellipse 1789" cx="2.5" cy="2.5" r="2.5" transform="translate(1310 4864.961)" fill="#f37020"/>
    <circle id="Ellipse_1794" data-name="Ellipse 1794" cx="2.5" cy="2.5" r="2.5" transform="translate(1310 4610.127)" fill="#f37020"/>
    <circle id="Ellipse_1790" data-name="Ellipse 1790" cx="2.5" cy="2.5" r="2.5" transform="translate(1310 5032.961)" fill="#f37020"/>
    <circle id="Ellipse_1785" data-name="Ellipse 1785" cx="2.5" cy="2.5" r="2.5" transform="translate(883 4894.961)" fill="#f37020"/>
    <circle id="Ellipse_1786" data-name="Ellipse 1786" cx="2.5" cy="2.5" r="2.5" transform="translate(883 4971.961)" fill="#f37020"/>
    <circle id="Ellipse_1779" data-name="Ellipse 1779" cx="2.5" cy="2.5" r="2.5" transform="translate(474 4812.961)" fill="#f37020"/>
    <circle id="Ellipse_1775" data-name="Ellipse 1775" cx="2.5" cy="2.5" r="2.5" transform="translate(466 5050.461)" fill="#f37020"/>
    <path id="Rectangle_960" data-name="Rectangle 960" d="M5,0H380.33a5,5,0,0,1,5,5V46a0,0,0,0,1,0,0H0a0,0,0,0,1,0,0V5A5,5,0,0,1,5,0Z" transform="translate(456 4734.961)" fill="#333e63"/>
    <path id="Rectangle_964" data-name="Rectangle 964" d="M5,0H380.33a5,5,0,0,1,5,5V46a0,0,0,0,1,0,0H0a0,0,0,0,1,0,0V5A5,5,0,0,1,5,0Z" transform="translate(456 4519.961)" fill="#333e63"/>
    <path id="Rectangle_968" data-name="Rectangle 968" d="M5,0H380.33a5,5,0,0,1,5,5V46a0,0,0,0,1,0,0H0a0,0,0,0,1,0,0V5A5,5,0,0,1,5,0Z" transform="translate(873 4336.627)" fill="#333e63"/>
    <text id="_2016" data-name="2016" transform="translate(649 4763.961)" fill="#fff" font-size="21" font-family="Poppins-SemiBold, Poppins" font-weight="600" letter-spacing="0.1em"><tspan x="-26.481" y="0">2016</tspan></text>
    <text id="_2018" data-name="2018" transform="translate(649 4548.961)" fill="#fff" font-size="21" font-family="Poppins-SemiBold, Poppins" font-weight="600" letter-spacing="0.1em"><tspan x="-26.513" y="0">2018</tspan></text>
    <text id="_2019" data-name="2019" transform="translate(1066 4365.627)" fill="#fff" font-size="21" font-family="Poppins-SemiBold, Poppins" font-weight="600" letter-spacing="0.1em"><tspan x="-26.334" y="0">2019</tspan></text>
    <text id="Demerged_and_divested" data-name="Demerged and divested" transform="translate(1004 4418)" fill="#db3218" font-size="16" font-family="Poppins" letter-spacing="0.1em"><tspan x="-114.808" y="0">Demerged and divested</tspan></text>
  </g>
</svg>
