<?xml version="1.0" encoding="utf-8"?>
<!-- Generator: Adobe Illustrator 25.1.0, SVG Export Plug-In . SVG Version: 6.00 Build 0)  -->
<svg version="1.1" id="icon-4" xmlns="http://www.w3.org/2000/svg" xmlns:xlink="http://www.w3.org/1999/xlink" x="0px" y="0px"
	 width="54px" height="54px" viewBox="0 0 54 54" style="enable-background:new 0 0 54 54;" xml:space="preserve">
<style type="text/css">
	.st0{fill:#333E63;}
	.st1{fill:#F37020;}
</style>
<path id="Path_3698" class="st0" d="M28.7,54h-3.4c-2.7,0-5-2.2-5-5v-1.1c-1.2-0.4-2.3-0.8-3.4-1.4l-0.8,0.8c-1.9,1.9-5.1,1.9-7,0
	c0,0,0,0,0,0l-2.4-2.4c-1.9-1.9-1.9-5.1,0-7c0,0,0,0,0,0L7.5,37c-0.6-1.1-1-2.2-1.4-3.4H5c-2.7,0-5-2.2-5-5v-3.4c0-2.7,2.2-5,5-5
	h1.1C6.5,19.2,7,18,7.5,16.9l-0.8-0.8c-1.9-1.9-1.9-5.1,0-7c0,0,0,0,0,0l2.4-2.4c1.9-1.9,5.1-1.9,7,0c0,0,0,0,0,0L17,7.5
	c1.1-0.6,2.2-1,3.4-1.4V5c0-2.7,2.2-5,5-5h3.4c2.7,0,5,2.2,5,5v1.1C34.8,6.5,36,7,37.1,7.5l0.8-0.8c1.9-1.9,5.1-1.9,7,0c0,0,0,0,0,0
	l2.4,2.4c1.9,1.9,1.9,5.1,0,7c0,0,0,0,0,0L46.5,17c0.6,1.1,1,2.2,1.4,3.4H49c2.7,0,5,2.2,5,5v3.4c0,2.7-2.2,5-5,5h-1.1
	C47.5,34.8,47,36,46.5,37l0.8,0.8c1.9,1.9,1.9,5.1,0,7c0,0,0,0,0,0l-2.4,2.4c-1.9,1.9-5.1,1.9-7,0c0,0,0,0,0,0L37,46.5
	c-1.1,0.6-2.2,1-3.4,1.4V49C33.7,51.8,31.4,54,28.7,54z M17.5,43.2c1.5,0.9,3.1,1.6,4.8,2c0.7,0.2,1.2,0.8,1.2,1.5V49
	c0,1,0.8,1.8,1.8,1.8h3.4c1,0,1.8-0.8,1.8-1.8v-2.3c0-0.7,0.5-1.4,1.2-1.5c1.7-0.4,3.3-1.1,4.8-2c0.6-0.4,1.4-0.3,1.9,0.2l1.7,1.7
	c0.7,0.7,1.8,0.7,2.6,0c0,0,0,0,0,0l2.4-2.4c0.7-0.7,0.7-1.8,0-2.6l-1.7-1.7c-0.5-0.5-0.6-1.3-0.2-1.9c0.9-1.5,1.6-3.1,2-4.8
	c0.2-0.7,0.8-1.2,1.5-1.2H49c1,0,1.8-0.8,1.8-1.8v-3.4c0-1-0.8-1.8-1.8-1.8h-2.3c-0.7,0-1.4-0.5-1.5-1.2c-0.4-1.7-1.1-3.3-2-4.8
	c-0.4-0.6-0.3-1.4,0.2-1.9l1.7-1.7c0.7-0.7,0.7-1.8,0-2.6c0,0,0,0,0,0l-2.4-2.4c-0.7-0.7-1.8-0.7-2.6,0l-1.7,1.7
	c-0.5,0.5-1.3,0.6-1.9,0.2c-1.5-0.9-3.1-1.6-4.8-2C31,8.7,30.5,8,30.5,7.3V5c0-1-0.8-1.8-1.8-1.8h-3.4c-1,0-1.8,0.8-1.8,1.8v2.3
	c0,0.7-0.5,1.4-1.2,1.5c-1.7,0.4-3.3,1.1-4.8,2c-0.6,0.4-1.4,0.3-1.9-0.2l-1.7-1.7c-0.7-0.7-1.8-0.7-2.6,0c0,0,0,0,0,0l-2.4,2.4
	c-0.7,0.7-0.7,1.8,0,2.6l1.7,1.7c0.5,0.5,0.6,1.3,0.2,1.9c-0.9,1.5-1.6,3.1-2,4.8C8.7,23,8,23.5,7.3,23.5H5c-1,0-1.8,0.8-1.8,1.8
	v3.4c0,1,0.8,1.8,1.8,1.8h2.3c0.7,0,1.4,0.5,1.5,1.2c0.4,1.7,1.1,3.3,2,4.8c0.4,0.6,0.3,1.4-0.2,1.9l-1.7,1.7
	c-0.7,0.7-0.7,1.8,0,2.6c0,0,0,0,0,0l2.4,2.4c0.7,0.7,1.8,0.7,2.6,0l1.7-1.7C16.1,42.9,16.9,42.8,17.5,43.2L17.5,43.2z"/>
<path id="Path_3699" class="st1" d="M27,38.8c-6.5,0-11.7-5.3-11.7-11.8S20.5,15.3,27,15.3c6.5,0,11.7,5.3,11.7,11.7
	C38.7,33.5,33.5,38.7,27,38.8z M27,18.4c-4.7,0-8.6,3.8-8.6,8.6s3.8,8.6,8.6,8.6s8.6-3.8,8.6-8.6C35.6,22.3,31.7,18.4,27,18.4z"/>
</svg>
