<?xml version="1.0" encoding="utf-8"?>
<!-- Generator: Adobe Illustrator 25.1.0, SVG Export Plug-In . SVG Version: 6.00 Build 0)  -->
<svg version="1.1" id="Layer_1" xmlns="http://www.w3.org/2000/svg" xmlns:xlink="http://www.w3.org/1999/xlink" x="0px" y="0px"
	 width="57.5px" height="66.8px" viewBox="0 0 57.5 66.8" style="enable-background:new 0 0 57.5 66.8;" xml:space="preserve">
<style type="text/css">
	.st0{fill:none;stroke:#F37020;stroke-width:2;stroke-miterlimit:10;}
	.st1{fill:#F37020;}
	.st2{fill:none;stroke:#333E63;stroke-width:2;stroke-miterlimit:10;}
</style>
<g id="icon-3" transform="translate(-436.047 -1064.355)">
	<g id="Group_14727">
		<path id="Path_4334" class="st0" d="M454,1116.4v13.7h-11v-13.7c0-3,2.5-5.5,5.5-5.5S454,1113.4,454,1116.4
			C454,1116.4,454,1116.4,454,1116.4L454,1116.4z"/>
		<path id="Path_4335" class="st0" d="M470.3,1116.4v13.7h-11v-13.7c0-3,2.5-5.5,5.5-5.5S470.3,1113.4,470.3,1116.4L470.3,1116.4z"
			/>
		<path id="Path_4336" class="st0" d="M486.5,1116.4v13.7h-11v-13.7c0-3,2.4-5.5,5.4-5.6c3,0,5.5,2.4,5.6,5.4
			C486.5,1116.3,486.5,1116.4,486.5,1116.4z"/>
	</g>
	<g id="Group_14728">
		<path id="Path_4337" class="st0" d="M451.9,1071.7c-4.8,0-8.8,3.9-8.8,8.8c0,2.5,1.1,4.9,3,6.6c1.4,1.4,1.3,4.3,1.2,4.4
			c0,0.2,0,0.3,0.2,0.4c0.1,0.1,0.2,0.2,0.4,0.2h8c0.1,0,0.3-0.1,0.4-0.2c0.1-0.1,0.2-0.3,0.2-0.4c0,0-0.2-3,1.2-4.4l0.1-0.1
			c3.6-3.2,3.9-8.8,0.7-12.4C456.7,1072.8,454.4,1071.7,451.9,1071.7z"/>
		<path id="Path_4338" class="st0" d="M457.2,1080.6c0-2.9-2.3-5.2-5.2-5.2c0,0,0,0-0.1,0"/>
		<path id="Path_4339" class="st1" d="M451.8,1069.1c0.3,0,0.5-0.2,0.5-0.5c0,0,0,0,0,0v-3.7c0-0.3-0.2-0.5-0.5-0.6
			c-0.3,0-0.5,0.2-0.6,0.5c0,0,0,0,0,0v3.7C451.3,1068.8,451.6,1069.1,451.8,1069.1z"/>
		<path id="Path_4340" class="st1" d="M460.8,1067.1c-0.2-0.2-0.5-0.1-0.7,0.1c0,0,0,0,0,0l-2,3c-0.2,0.2-0.1,0.6,0.1,0.7
			c0,0,0,0,0,0c0.1,0.1,0.2,0.1,0.3,0.1c0.2,0,0.4-0.1,0.4-0.3l2-3C461.1,1067.6,461,1067.3,460.8,1067.1
			C460.8,1067.1,460.8,1067.1,460.8,1067.1z"/>
		<path id="Path_4341" class="st1" d="M445.5,1070.9c0.1,0,0.2,0,0.3-0.1c0.3-0.2,0.3-0.5,0.2-0.8l-2-3.1c-0.2-0.3-0.5-0.3-0.8-0.2
			c-0.3,0.2-0.3,0.5-0.2,0.8l2,3.1C445.1,1070.9,445.3,1071,445.5,1070.9z"/>
		<path id="Path_4342" class="st1" d="M441.6,1074.3l-3.2-1.7c-0.3-0.1-0.6,0-0.7,0.2c-0.1,0.2-0.1,0.5,0.2,0.7c0,0,0,0,0.1,0
			l3.2,1.7c0.1,0,0.2,0.1,0.3,0.1c0.2,0,0.4-0.1,0.5-0.3C442,1074.7,441.9,1074.4,441.6,1074.3z"/>
		<path id="Path_4343" class="st1" d="M466,1072.8c-0.1-0.3-0.5-0.3-0.7-0.2l-3.2,1.7c-0.3,0.1-0.3,0.5-0.2,0.7
			c0.1,0.2,0.3,0.3,0.5,0.3c0.1,0,0.2,0,0.3-0.1l3.2-1.7C466,1073.4,466.1,1073,466,1072.8z"/>
		<line id="Line_293" class="st0" x1="447.8" y1="1094.6" x2="455.8" y2="1094.6"/>
		<line id="Line_294" class="st0" x1="449.1" y1="1097.2" x2="454.5" y2="1097.2"/>
	</g>
	<path id="Path_4344" class="st2" d="M492.5,1109.1v21H437v-21c0-2.7,2.2-4.9,4.9-4.9h45.6C490.3,1104.2,492.5,1106.4,492.5,1109.1
		L492.5,1109.1z"/>
	<path id="Path_4345" class="st2" d="M483.9,1093.6v10.4h-13.7v-10.4c0-1.2,1-2.2,2.2-2.2h9.3
		C482.9,1091.4,483.9,1092.4,483.9,1093.6C483.9,1093.6,483.9,1093.6,483.9,1093.6z"/>
	<path id="Path_4346" class="st2" d="M479.9,1087v4.4h-5.8v-4.4c0-0.5,0.4-0.9,0.9-0.9l0,0h3.9
		C479.5,1086.1,479.9,1086.5,479.9,1087z"/>
	<line id="Line_295" class="st2" x1="477" y1="1085.5" x2="477" y2="1079.3"/>
</g>
</svg>
