<?xml version="1.0" encoding="utf-8"?>
<!-- Generator: Adobe Illustrator 25.1.0, SVG Export Plug-In . SVG Version: 6.00 Build 0)  -->
<svg version="1.1" id="Layer_1" xmlns="http://www.w3.org/2000/svg" xmlns:xlink="http://www.w3.org/1999/xlink" x="0px" y="0px"
	 width="58.3px" height="77.1px" viewBox="0 0 58.3 77.1" style="enable-background:new 0 0 58.3 77.1;" xml:space="preserve">
<style type="text/css">
	.st0{fill:none;stroke:#F37020;stroke-width:2;stroke-miterlimit:10;}
	.st1{fill:none;stroke:#333E63;stroke-width:2;stroke-miterlimit:10;}
</style>
<g id="icon-4" transform="translate(-582.832 -297.226)">
	<g id="Group_14679">
		<g id="Group_14677">
			<path id="Path_4256" class="st0" d="M614.7,364v-11.8h-5.3v-15.2"/>
			<circle id="Ellipse_1841" class="st0" cx="614.7" cy="368.5" r="4.9"/>
			<line id="Line_238" class="st0" x1="625.9" y1="346.2" x2="625.9" y2="336.9"/>
			<circle id="Ellipse_1842" class="st0" cx="625.9" cy="350.7" r="4.9"/>
			<line id="Line_239" class="st0" x1="598.1" y1="352.9" x2="598.1" y2="336.6"/>
			<circle id="Ellipse_1843" class="st0" cx="598.1" cy="357.4" r="4.9"/>
		</g>
		<g id="Group_14678">
			<path id="Path_4257" class="st1" d="M613.6,336.3h16.5c5.5,0,10-4.5,10-10.1c0-5.2-4-9.6-9.3-10c-0.5-4.9-4.8-8.5-9.7-8
				c-0.6,0.1-1.2,0.2-1.8,0.4c-0.2-5.9-5.1-10.5-11-10.3c-5.7,0.2-10.3,4.9-10.3,10.6v0.7h-0.9c-7.4,0-13.3,6-13.3,13.3
				s6,13.3,13.3,13.3H613.6L613.6,336.3z"/>
		</g>
	</g>
	<g id="Group_14680">
		<path id="Path_4258" class="st0" d="M614.7,364v-11.8h-5.3v-15.2"/>
		<circle id="Ellipse_1844" class="st0" cx="614.7" cy="368.4" r="4.9"/>
		<line id="Line_240" class="st0" x1="625.8" y1="346.2" x2="625.8" y2="336.9"/>
		<circle id="Ellipse_1845" class="st0" cx="625.9" cy="350.7" r="4.9"/>
		<line id="Line_241" class="st0" x1="598.1" y1="352.9" x2="598.1" y2="336.6"/>
		<circle id="Ellipse_1846" class="st0" cx="598.1" cy="357.4" r="4.9"/>
		<path id="Path_4259" class="st1" d="M613.6,336.3h16.5c5.5,0,10-4.5,10-10c0-5.2-4-9.6-9.3-10c-0.5-4.9-4.8-8.5-9.7-8
			c-0.6,0.1-1.2,0.2-1.8,0.4c-0.2-5.9-5.1-10.5-11-10.3c-5.7,0.2-10.3,4.9-10.3,10.6v0.7h-0.9c-7.4,0-13.3,6-13.3,13.3
			c0,7.4,6,13.3,13.3,13.3H613.6L613.6,336.3z"/>
	</g>
</g>
</svg>
