<?xml version="1.0" encoding="utf-8"?>
<!-- Generator: Adobe Illustrator 25.1.0, SVG Export Plug-In . SVG Version: 6.00 Build 0)  -->
<svg version="1.1" id="Layer_1" xmlns="http://www.w3.org/2000/svg" xmlns:xlink="http://www.w3.org/1999/xlink" x="0px" y="0px"
	 width="74.1px" height="74px" viewBox="0 0 74.1 74" style="enable-background:new 0 0 74.1 74;" xml:space="preserve">
<style type="text/css">
	.st0{fill:none;stroke:#F37020;stroke-width:2;stroke-linecap:round;stroke-linejoin:round;}
	.st1{fill:none;stroke:#333E63;stroke-width:2;stroke-linecap:round;stroke-linejoin:round;}
</style>
<g id="icon-2" transform="translate(-15.668 -25.667)">
	<path id="Path_881" class="st0" d="M88.6,62.7v0.2c0,11.6-9.4,21-21,21c-6,0-11.8-2.6-15.8-7.2L38.1,60.9
		c-5.2-5.9-13.6-7.8-20.8-4.8"/>
	<path id="Path_883" class="st0" d="M88.4,58.5l-10.5-5.3c-9.5-4.7-20.9-2.9-28.4,4.6L38.6,68.7c-3.7,3.7-9.1,5.2-14.2,3.9
		c-4.6-1.1-7.8-5.2-7.7-9.9"/>
	<path id="Path_884" class="st0" d="M86.9,73.7l-10.3-5.2C69.4,65,60.9,66.4,55.2,72l-8.4,8.4c-5.9,5.7-15.1,6.2-21.6,1.1
		c-5.4-4.6-8.6-11.3-8.6-18.4v-0.4"/>
	<path id="Path_882" class="st1" d="M78.1,37.2c14.1,14.1,14.1,36.8,0,50.9s-36.8,14.1-50.9,0c-14.1-14.1-14.1-36.8,0-50.9l0,0
		C41.3,23.2,64,23.2,78.1,37.2"/>
</g>
</svg>
