<?xml version="1.0" encoding="utf-8"?>
<!-- Generator: Adobe Illustrator 25.1.0, SVG Export Plug-In . SVG Version: 6.00 Build 0)  -->
<svg version="1.1" id="Layer_1" xmlns="http://www.w3.org/2000/svg" xmlns:xlink="http://www.w3.org/1999/xlink" x="0px" y="0px"
	 width="60.7px" height="60.9px" viewBox="0 0 60.7 60.9" style="enable-background:new 0 0 60.7 60.9;" xml:space="preserve">
<style type="text/css">
	.st0{fill:none;stroke:#333E63;stroke-width:2;stroke-linecap:round;stroke-linejoin:round;}
	.st1{fill:none;stroke:#F37020;stroke-width:2;stroke-linecap:round;stroke-linejoin:round;}
</style>
<g id="icon-1" transform="translate(74.405 -24.333)">
	<path id="Path_886" class="st0" d="M-31,84l-3.3-13"/>
	<path id="Path_887" class="st0" d="M-57.1,84l3.3-13"/>
	<path id="Path_888" class="st0" d="M-21.5,71h-45.1c-3.7,0-6.8-3-6.8-6.8l0,0V32.1c0-3.7,3-6.8,6.8-6.8l0,0h45.1
		c3.7,0,6.8,3,6.8,6.8c0,0,0,0,0,0v32.1C-14.7,67.9-17.8,71-21.5,71C-21.5,71-21.5,71-21.5,71z"/>
	<path id="Path_889" class="st1" d="M-58.7,57.9V49"/>
	<path id="Path_890" class="st1" d="M-49,57.9V38.4"/>
	<path id="Path_891" class="st1" d="M-39.2,57.9V47.1"/>
	<path id="Path_892" class="st1" d="M-29.4,57.9V40.1"/>
</g>
</svg>
