<?xml version="1.0" encoding="utf-8"?>
<!-- Generator: Adobe Illustrator 25.1.0, SVG Export Plug-In . SVG Version: 6.00 Build 0)  -->
<svg version="1.1" id="Layer_1" xmlns="http://www.w3.org/2000/svg" xmlns:xlink="http://www.w3.org/1999/xlink" x="0px" y="0px"
	 width="67.8px" height="68px" viewBox="0 0 67.8 68" style="enable-background:new 0 0 67.8 68;" xml:space="preserve">
<style type="text/css">
	.st0{fill:none;stroke:#F37020;stroke-width:2;stroke-miterlimit:10;}
	.st1{fill:none;stroke:#333E63;stroke-width:2;stroke-miterlimit:10;}
</style>
<g id="icon-1" transform="translate(-135.273 -1353.077)">
	<g id="Group_1288">
		<rect id="Rectangle_1104" x="144.9" y="1381" class="st0" width="7.3" height="23.8"/>
		<path id="Path_4347" class="st0" d="M169.2,1381h-3.7v23.8h3.7"/>
		<path id="Path_4348" class="st1" d="M156.1,1372.6h-19.8v8.4h32.9"/>
		<path id="Path_4349" class="st1" d="M139.8,1411.7v-6.9h29.4"/>
	</g>
	<g id="Group_1288-2">
		<rect id="Rectangle_1104-2" x="186.1" y="1381" class="st0" width="7.3" height="23.8"/>
		<path id="Path_4350" class="st0" d="M169.2,1404.8h3.7V1381h-3.7"/>
		<path id="Path_3653" class="st1" d="M169.2,1411.7h32.9v8.4h-65.8v-8.4H169.2z"/>
		<path id="Path_4351" class="st1" d="M169.2,1381h32.9v-8.4h-19.8"/>
		<path id="Path_4352" class="st1" d="M169.2,1404.8h29.4v6.9"/>
		<path id="Path_4353" class="st1" d="M192.7,1372.6l-23.6-18.3l-23.6,18.3"/>
		<path id="Path_4354" class="st0" d="M169.2,1373.2L169.2,1373.2c2.9,0,5.3-2.3,5.3-5.2s-2.3-5.3-5.2-5.3c0,0-0.1,0-0.1,0l0,0
			c-2.9,0-5.3,2.3-5.3,5.2s2.3,5.3,5.2,5.3C169.1,1373.2,169.1,1373.2,169.2,1373.2z"/>
	</g>
</g>
</svg>
