<?xml version="1.0" encoding="utf-8"?>
<!-- Generator: Adobe Illustrator 25.1.0, SVG Export Plug-In . SVG Version: 6.00 Build 0)  -->
<svg version="1.1" id="Layer_1" xmlns="http://www.w3.org/2000/svg" xmlns:xlink="http://www.w3.org/1999/xlink" x="0px" y="0px"
	 width="40.5px" height="66.8px" viewBox="0 0 40.5 66.8" style="enable-background:new 0 0 40.5 66.8;" xml:space="preserve">
<style type="text/css">
	.st0{fill:none;stroke:#F37020;stroke-width:2;stroke-miterlimit:10;}
	.st1{fill:none;stroke:#333E63;stroke-width:2;stroke-miterlimit:10;}
</style>
<g id="icon-1" transform="translate(-124.359 -301.886)">
	<line id="Line_224" class="st0" x1="132.1" y1="302.9" x2="132.1" y2="347.5"/>
	<path id="Path_4245" class="st1" d="M154.4,341.6v-35.1c0-2-1.6-3.6-3.6-3.6H129c-2,0-3.6,1.6-3.6,3.6v37.4c0,2,1.6,3.6,3.6,3.6
		h21.2"/>
	<path id="Path_4246" class="st0" d="M154.3,332.2c0,0,8.2,3.6,8.2,9.6v21.4h-17.9c0,0-4.9-4.5-4.7-8.8v-6.7"/>
	<path id="Path_4247" class="st0" d="M153,354.1c0,0-3.5-1.5-2.7-6.4l-3-3.3c-1.9-2.1-2.9-4.8-2.9-7.5v-0.7c0-0.5,0.4-0.8,0.8-0.8
		c0.2,0,0.3,0.1,0.5,0.1l13.1,9.2"/>
	<path id="Path_4248" class="st0" d="M141.9,368.7V365c0-1,0.8-1.8,1.8-1.8H162c1,0,1.8,0.8,1.8,1.8c0,0,0,0,0,0v3.7"/>
	<line id="Line_225" class="st0" x1="148.5" y1="307.6" x2="148.5" y2="316.5"/>
</g>
</svg>
