<?xml version="1.0" encoding="utf-8"?>
<!-- Generator: Adobe Illustrator 25.1.0, SVG Export Plug-In . SVG Version: 6.00 Build 0)  -->
<svg version="1.1" id="Layer_1" xmlns="http://www.w3.org/2000/svg" xmlns:xlink="http://www.w3.org/1999/xlink" x="0px" y="0px"
	 width="59.7px" height="66.8px" viewBox="0 0 59.7 66.8" style="enable-background:new 0 0 59.7 66.8;" xml:space="preserve">
<style type="text/css">
	.st0{fill:none;stroke:#333E63;stroke-width:2;stroke-miterlimit:10;}
	.st1{fill:#F37020;}
	.st2{fill:none;stroke:#F37020;stroke-width:2;stroke-miterlimit:10;}
</style>
<g id="icon-1" transform="translate(-127.366 -1059.513)">
	<path id="Path_4319" class="st0" d="M148.2,1107.4l7.2-4.9l14.7,3.8l14.7-12.5"/>
	<circle id="Ellipse_1871" class="st1" cx="156.3" cy="1102.4" r="3.2"/>
	<circle id="Ellipse_1872" class="st1" cx="170.1" cy="1106.5" r="3.2"/>
	<circle id="Ellipse_1873" class="st1" cx="183.9" cy="1094.4" r="3.2"/>
	<rect id="Rectangle_11246" x="133.6" y="1081.4" class="st0" width="15" height="37.7"/>
	<rect id="Rectangle_11247" x="136.4" y="1074.8" class="st0" width="9.5" height="6.6"/>
	<rect id="Rectangle_11248" x="128.4" y="1119.2" class="st0" width="53.9" height="6.1"/>
	<g id="Group_14722">
		<path id="Path_4320" class="st2" d="M167.2,1067.8c-5.5,0-9.9,4.5-9.9,9.9c0,2.8,1.2,5.5,3.3,7.4c1.6,1.6,1.4,4.9,1.4,4.9
			c0,0.2,0.1,0.3,0.2,0.5c0.1,0.1,0.3,0.2,0.4,0.2h9.1c0.2,0,0.3-0.1,0.4-0.2c0.1-0.1,0.2-0.3,0.2-0.5c0,0-0.2-3.4,1.4-4.9l0.1-0.1
			c4.1-3.6,4.4-9.9,0.7-13.9C172.7,1069,170,1067.8,167.2,1067.8L167.2,1067.8z"/>
		<path id="Path_4321" class="st2" d="M173.2,1077.8c0-3.2-2.6-5.9-5.8-5.9c0,0,0,0,0,0"/>
		<path id="Path_4322" class="st1" d="M167.2,1064.8c0.3,0,0.6-0.3,0.6-0.6v-4.1c0-0.3-0.3-0.6-0.6-0.6c-0.3,0-0.6,0.3-0.6,0.6v4.1
			C166.6,1064.6,166.8,1064.8,167.2,1064.8z"/>
		<path id="Path_4323" class="st1" d="M177.2,1062.6c-0.3-0.2-0.6-0.1-0.8,0.1c0,0,0,0,0,0l-2.3,3.4c-0.2,0.3-0.2,0.6,0.1,0.8
			c0,0,0,0,0,0c0.1,0.1,0.2,0.1,0.3,0.1c0.2,0,0.4-0.1,0.5-0.3l2.3-3.4C177.6,1063.1,177.5,1062.8,177.2,1062.6
			C177.3,1062.6,177.2,1062.6,177.2,1062.6z"/>
		<path id="Path_4324" class="st1" d="M159.9,1066.9c0.1,0,0.2,0,0.3-0.1c0.3-0.2,0.4-0.6,0.2-0.9l-2.2-3.4
			c-0.2-0.3-0.6-0.4-0.9-0.2s-0.4,0.6-0.2,0.9l2.2,3.4C159.5,1066.8,159.7,1067,159.9,1066.9z"/>
		<path id="Path_4325" class="st1" d="M155.6,1070.7l-3.6-2c-0.3-0.1-0.7,0-0.8,0.2c-0.2,0.3-0.1,0.6,0.2,0.8c0,0,0,0,0.1,0l3.6,2
			c0.1,0,0.2,0.1,0.3,0.1c0.2,0,0.4-0.1,0.5-0.3C156,1071.2,155.9,1070.9,155.6,1070.7z"/>
		<path id="Path_4326" class="st1" d="M183.1,1069c-0.2-0.3-0.5-0.4-0.8-0.2l-3.6,2c-0.3,0.2-0.4,0.5-0.2,0.8
			c0.1,0.2,0.3,0.3,0.5,0.3c0.1,0,0.2,0,0.3-0.1l3.6-2C183.2,1069.7,183.3,1069.3,183.1,1069z"/>
		<line id="Line_289" class="st2" x1="162.6" y1="1093.7" x2="171.6" y2="1093.7"/>
		<line id="Line_290" class="st2" x1="164" y1="1096.5" x2="170.1" y2="1096.5"/>
	</g>
</g>
</svg>
