<?xml version="1.0" encoding="utf-8"?>
<!-- Generator: Adobe Illustrator 25.1.0, SVG Export Plug-In . SVG Version: 6.00 Build 0)  -->
<svg version="1.1" id="Layer_1" xmlns="http://www.w3.org/2000/svg" xmlns:xlink="http://www.w3.org/1999/xlink" x="0px" y="0px"
	 width="66.2px" height="47px" viewBox="0 0 66.2 47" style="enable-background:new 0 0 66.2 47;" xml:space="preserve">
<style type="text/css">
	.st0{fill:#333E63;}
	.st1{fill:#F37020;}
</style>
<g id="icon-2" transform="translate(-988.417 -693.618)">
	<path id="Path_3691" class="st0" d="M1053.6,728.9h-1.1v-8.5c0-2.4-1.9-4.3-4.3-4.3v-18.2c0-2.4-1.9-4.3-4.3-4.3h-44.9
		c-2.4,0-4.3,1.9-4.3,4.3V716c-2.4,0-4.3,1.9-4.3,4.3v8.5h-1.1c-0.6,0-1.1,0.5-1.1,1.1v4.3c0,0.6,0.5,1.1,1.1,1.1h1.1v4.3
		c0,0.6,0.5,1.1,1.1,1.1h3.2c0.5,0,0.9-0.4,1-0.9l0.9-4.5h49.5l0.9,4.5c0.1,0.5,0.5,0.9,1,0.9h3.2c0.6,0,1.1-0.5,1.1-1.1l0,0v-4.3
		h1.1c0.6,0,1.1-0.5,1.1-1.1l0,0v-4.3C1054.6,729.3,1054.2,728.9,1053.6,728.9C1053.6,728.9,1053.6,728.9,1053.6,728.9z M1022.6,716
		h-2.1 M999.1,716H997v-18.2c0-1.2,1-2.1,2.1-2.1h44.9c1.2,0,2.1,1,2.1,2.1V716h-2.1 M1041.8,716h-17.1 M1018.3,716h-17.1
		 M992.7,720.3c0-1.2,1-2.1,2.1-2.1h53.4c1.2,0,2.1,1,2.1,2.1v8.5h-57.7L992.7,720.3z M994,738.5h-1.3v-3.2h1.9L994,738.5z
		 M1050.4,738.5h-1.3l-0.6-3.2h1.9L1050.4,738.5z M1052.5,733.1h-62V731h62V733.1z"/>
	<g id="Group_14697">
		<path id="Path_4282" class="st1" d="M1020.5,711.8v4.3h-2.1v-4.3c0-1.2-0.9-2.1-2.1-2.1c0,0,0,0,0,0h-12.8c-1.2,0-2.1,0.9-2.1,2.1
			c0,0,0,0,0,0v4.3h-2.1v-4.3c0-2.4,1.9-4.3,4.3-4.3c0,0,0,0,0,0h12.8C1018.6,707.5,1020.5,709.4,1020.5,711.8z"/>
		<path id="Path_4283" class="st1" d="M1044,711.8v4.3h-2.1v-4.3c0-1.2-0.9-2.1-2.1-2.1c0,0,0,0,0,0h-12.8c-1.2,0-2.1,0.9-2.1,2.1
			c0,0,0,0,0,0v4.3h-2.1v-4.3c0-2.4,1.9-4.3,4.3-4.3c0,0,0,0,0,0h12.8C1042.1,707.5,1044,709.4,1044,711.8z"/>
	</g>
</g>
</svg>
