<?xml version="1.0" encoding="utf-8"?>
<!-- Generator: Adobe Illustrator 25.1.0, SVG Export Plug-In . SVG Version: 6.00 Build 0)  -->
<svg version="1.1" id="Layer_1" xmlns="http://www.w3.org/2000/svg" xmlns:xlink="http://www.w3.org/1999/xlink" x="0px" y="0px"
	 width="59.7px" height="67.8px" viewBox="0 0 59.7 67.8" style="enable-background:new 0 0 59.7 67.8;" xml:space="preserve">
<style type="text/css">
	.st0{fill:none;stroke:#333E63;stroke-width:2;stroke-miterlimit:10;}
	.st1{fill:none;stroke:#333E63;stroke-width:2;stroke-linecap:round;stroke-miterlimit:10;}
	.st2{fill:none;stroke:#F37020;stroke-width:2;stroke-linecap:round;stroke-miterlimit:10;}
	.st3{fill:none;stroke:#F37020;stroke-width:2;stroke-miterlimit:10;}
</style>
<g id="icon-3" transform="translate(-388.95 -1351.26)">
	<g id="Group_14734">
		<path id="Path_4355" class="st0" d="M413.2,1362.2h-19.9c-1.8,0-3.3,1.5-3.3,3.3c0,0,0,0,0,0v49.2c0,1.8,1.5,3.3,3.3,3.3
			c0,0,0,0,0,0h26c1.8,0,3.3-1.5,3.3-3.3c0,0,0,0,0,0v-15.6"/>
		<line id="Line_298" class="st0" x1="422.6" y1="1383.7" x2="422.6" y2="1375.9"/>
		<line id="Line_194" class="st0" x1="390" y1="1369.5" x2="413.3" y2="1369.5"/>
		<line id="Line_195" class="st0" x1="390" y1="1409.4" x2="422.6" y2="1409.4"/>
		<line id="Line_196" class="st1" x1="402" y1="1413.8" x2="410.1" y2="1413.8"/>
		<g id="Group_14733">
			<line id="Line_197" class="st2" x1="417.1" y1="1367.5" x2="423.2" y2="1367.5"/>
			<line id="Line_198" class="st2" x1="427.4" y1="1367.5" x2="433.5" y2="1367.5"/>
			<line id="Line_199" class="st2" x1="437.6" y1="1367.5" x2="443.8" y2="1367.5"/>
		</g>
		<path id="Rectangle_1111" class="st3" d="M417,1352.3h26.9c2.1,0,3.8,1.7,3.8,3.8v16c0,2.1-1.7,3.8-3.8,3.8H417
			c-2.1,0-3.8-1.7-3.8-3.8v-16C413.2,1354,414.9,1352.3,417,1352.3z"/>
		<line id="Line_200" class="st3" x1="413.2" y1="1358.4" x2="447.7" y2="1358.4"/>
	</g>
	<g id="Group_14735">
		<path id="Path_4356" class="st3" d="M406.7,1389.3c2.1,0,3.9-1.7,3.9-3.9c0-2.1-1.7-3.9-3.9-3.9c-2.1,0-3.9,1.7-3.9,3.9
			c0,1,0.4,2,1.1,2.7C404.6,1389,405.6,1389.4,406.7,1389.3z"/>
		<path id="Path_4357" class="st3" d="M413.4,1396c0-0.3-0.1-0.7-0.1-1c-0.1-0.3-0.1-0.7-0.2-1c-0.1-0.3-0.2-0.6-0.4-1
			c-0.2-0.3-0.4-0.6-0.6-0.8c-0.3-0.2-0.6-0.4-0.9-0.6c-0.4-0.1-0.8-0.2-1.2-0.2c-0.2,0-0.5,0.1-0.6,0.3c-0.2,0.1-0.4,0.3-0.7,0.4
			c-0.3,0.2-0.6,0.3-0.8,0.4c-0.7,0.2-1.4,0.2-2.1,0c-0.3-0.1-0.6-0.2-0.8-0.4l-0.7-0.4c-0.2-0.1-0.4-0.2-0.6-0.3
			c-0.4,0-0.8,0.1-1.2,0.2c-0.3,0.1-0.6,0.3-0.9,0.6c-0.2,0.2-0.5,0.5-0.6,0.8c-0.2,0.3-0.3,0.6-0.4,1c-0.1,0.3-0.2,0.7-0.3,1
			c-0.1,0.3-0.1,0.7-0.1,1c0,0.3,0,0.6,0,0.9c0,0.8,0.3,1.5,0.8,2c0.6,0.5,1.3,0.8,2,0.7h7.7c0.8,0,1.5-0.2,2-0.7
			c0.5-0.5,0.8-1.3,0.8-2C413.5,1396.6,413.5,1396.3,413.4,1396z"/>
	</g>
	<g id="Group_14736">
		<path id="Path_4358" class="st0" d="M439.7,1395.7c2.1,0,3.9-1.7,3.9-3.9c0-2.1-1.7-3.9-3.9-3.9c-2.1,0-3.9,1.7-3.9,3.9
			c0,1,0.4,2,1.1,2.7C437.7,1395.3,438.7,1395.7,439.7,1395.7z"/>
		<path id="Path_4359" class="st0" d="M446.5,1402.3c0-0.3-0.1-0.7-0.1-1c-0.1-0.3-0.1-0.7-0.2-1c-0.1-0.3-0.2-0.7-0.4-1
			c-0.2-0.3-0.4-0.6-0.6-0.8c-0.3-0.2-0.6-0.4-0.9-0.6c-0.4-0.1-0.8-0.2-1.2-0.2c-0.2,0-0.5,0.1-0.6,0.3c-0.2,0.1-0.4,0.3-0.7,0.4
			c-0.3,0.2-0.6,0.3-0.8,0.4c-0.7,0.2-1.4,0.2-2.1,0c-0.3-0.1-0.6-0.2-0.8-0.4c-0.2-0.2-0.5-0.3-0.7-0.4c-0.2-0.1-0.4-0.2-0.6-0.3
			c-0.4,0-0.8,0.1-1.2,0.2c-0.3,0.1-0.6,0.3-0.9,0.6c-0.2,0.2-0.5,0.5-0.6,0.8c-0.2,0.3-0.3,0.6-0.4,1c-0.1,0.3-0.2,0.7-0.3,1
			c-0.1,0.3-0.1,0.7-0.1,1c0,0.3,0,0.6,0,0.9c0,0.8,0.3,1.5,0.8,2c0.6,0.5,1.3,0.8,2,0.7h7.7c0.8,0,1.5-0.2,2-0.7
			c0.5-0.5,0.8-1.3,0.8-2C446.5,1402.9,446.5,1402.6,446.5,1402.3z"/>
	</g>
	<line id="Line_299" class="st3" x1="418.1" y1="1391.4" x2="425.9" y2="1391.4"/>
	<path id="Path_4360" class="st3" d="M427.1,1387.4l3.5,4.2l-3.5,3.7"/>
</g>
</svg>
