<?xml version="1.0" encoding="utf-8"?>
<!-- Generator: Adobe Illustrator 25.1.0, SVG Export Plug-In . SVG Version: 6.00 Build 0)  -->
<svg version="1.1" id="Layer_1" xmlns="http://www.w3.org/2000/svg" xmlns:xlink="http://www.w3.org/1999/xlink" x="0px" y="0px"
	 width="64.5px" height="54.3px" viewBox="0 0 64.5 54.3" style="enable-background:new 0 0 64.5 54.3;" xml:space="preserve">
<style type="text/css">
	.st0{fill:none;stroke:#333E63;stroke-width:2;stroke-linecap:round;stroke-linejoin:round;}
	.st1{fill:#FFFFFF;stroke:#F37020;stroke-width:2;stroke-linecap:round;stroke-linejoin:round;}
	.st2{fill:none;stroke:#F37020;stroke-width:2;stroke-linecap:round;stroke-linejoin:round;}
</style>
<g id="icon-3" transform="translate(34.649 -25.723)">
	<path id="Path_863" class="st0" d="M23,53.7v25.4"/>
	<path id="Path_864" class="st0" d="M6.2,62.2v16.9"/>
	<path id="Path_865" class="st0" d="M-27.8,69.6v9.5"/>
	<path id="Path_866" class="st0" d="M-11,58.8v20.3"/>
	<path id="Path_871" class="st0" d="M19.1,35.8L10.4,43"/>
	<path id="Path_872" class="st0" d="M1.5,43.5l-7.9-5.3"/>
	<path id="Path_873" class="st0" d="M-23.8,45.9l8.6-7.2"/>
	<path id="Path_867" class="st1" d="M10.1,42.6c2.2,2.2,2.2,5.7,0,7.8c-2.2,2.2-5.7,2.2-7.8,0c-2.2-2.2-2.2-5.7,0-7.8
		C4.4,40.5,7.9,40.5,10.1,42.6z"/>
	<path id="Path_868" class="st2" d="M27.2,28.3c2.2,2.2,2.2,5.7,0,7.8c-2.2,2.2-5.7,2.2-7.8,0c-2.2-2.2-2.2-5.7,0-7.8
		C21.5,26.2,25.1,26.2,27.2,28.3z"/>
	<path id="Path_870" class="st2" d="M-7,31.2c2.2,2.2,2.2,5.7,0,7.8c-2.2,2.2-5.7,2.2-7.8,0c-2.2-2.2-2.2-5.7,0-7.8
		C-12.7,29-9.2,29-7,31.2z"/>
	<path id="Path_869" class="st2" d="M-24.2,45.5c2.2,2.2,2.2,5.7,0,7.8c-2.2,2.2-5.7,2.2-7.8,0c-2.2-2.2-2.2-5.7,0-7.8
		C-29.9,43.3-26.3,43.3-24.2,45.5L-24.2,45.5"/>
</g>
</svg>
