<?xml version="1.0" encoding="utf-8"?>
<!-- Generator: Adobe Illustrator 25.1.0, SVG Export Plug-In . SVG Version: 6.00 Build 0)  -->
<svg version="1.1" id="Layer_1" xmlns="http://www.w3.org/2000/svg" xmlns:xlink="http://www.w3.org/1999/xlink" x="0px" y="0px"
	 width="54.7px" height="67.8px" viewBox="0 0 54.7 67.8" style="enable-background:new 0 0 54.7 67.8;" xml:space="preserve">
<style type="text/css">
	.st0{fill:none;stroke:#333E63;stroke-width:2;stroke-miterlimit:10;}
	.st1{fill:none;stroke:#F37020;stroke-width:2;stroke-miterlimit:10;}
	.st2{fill:none;}
	.st3{fill:none;stroke:#F37020;stroke-width:2;}
</style>
<g id="icon-2" transform="translate(-853 -2048)">
	<line id="Line_226" class="st0" x1="902.4" y1="2097.3" x2="886.9" y2="2097.3"/>
	<path id="Path_4249" class="st0" d="M892.6,2059.4h-36.4c-1.2,0-2.2,1-2.2,2.2v50.9c0,1.2,1,2.2,2.2,2.2h27.9
		c1.5,0,2.8-1.2,2.8-2.8v-47.1c0-1.5,0.6-2.9,1.6-3.9l0,0c2.1-2.1,5.6-2.1,7.8,0l0,0c1,1,1.6,2.4,1.6,3.9v27.9
		c0,1.2,0.5,2.3,1.3,3.1l0,0c1.7,1.7,4.5,1.7,6.2,0l0,0c0.8-0.8,1.3-1.9,1.3-3.1v-42.7c0-0.7-0.5-1.2-1.2-1.2c0,0,0,0,0,0h-30
		c-1.2,0-2.2,1-2.2,2.2v8.2"/>
	<line id="Line_227" class="st1" x1="864.9" y1="2072.6" x2="876.1" y2="2072.6"/>
	<line id="Line_228" class="st1" x1="857.8" y1="2078.1" x2="883.1" y2="2078.1"/>
	<line id="Line_229" class="st1" x1="857.8" y1="2083.7" x2="883.1" y2="2083.7"/>
	<g id="Ellipse_1870" transform="translate(864 2093)">
		<circle class="st2" cx="6" cy="6" r="6"/>
		<circle class="st3" cx="6" cy="6" r="5"/>
	</g>
</g>
</svg>
