<?xml version="1.0" encoding="utf-8"?>
<!-- Generator: Adobe Illustrator 25.1.0, SVG Export Plug-In . SVG Version: 6.00 Build 0)  -->
<svg version="1.1" id="icon-1" xmlns="http://www.w3.org/2000/svg" xmlns:xlink="http://www.w3.org/1999/xlink" x="0px" y="0px"
	 width="54px" height="54px" viewBox="0 0 54 54" style="enable-background:new 0 0 54 54;" xml:space="preserve">
<style type="text/css">
	.st0{fill:#333E63;}
	.st1{fill:#F37020;}
</style>
<g id="Group_1303">
	<g id="Group_1302">
		<path id="Path_3679" class="st0" d="M52.9,46.8h-2.1V5.9c0-0.6-0.5-1.1-1.1-1.1l0,0H42V1.1C42,0.5,41.5,0,41,0H13
			C12.5,0,12,0.5,12,1.1c0,0,0,0,0,0v3.8H4.2c-0.6,0-1.1,0.5-1.1,1.1v40.9H1.1c-0.6,0-1.1,0.5-1.1,1.1c0,0,0,0,0,0v5.1
			C0,53.5,0.5,54,1.1,54h21.2c0.6,0,1-0.5,1-1.1c0-0.6-0.5-1-1-1H2.1v-3h49.8v3H31.7c-0.6,0-1.1,0.4-1.1,1s0.4,1.1,1,1.1
			c0,0,0,0,0.1,0h21.2c0.6,0,1.1-0.5,1.1-1.1v-5.1C54,47.3,53.5,46.8,52.9,46.8L52.9,46.8z M14.1,2.1h25.8v2.7H14.1V2.1z M25.9,46.8
			h-5.5v-6.3c0-3.2,2.3-5.9,5.5-6.5V46.8z M28.1,46.8V34c3.2,0.5,5.5,3.3,5.5,6.5v6.3H28.1z M35.6,46.8v-6.3c0-4.8-3.9-8.6-8.6-8.6
			s-8.6,3.9-8.6,8.6v6.3H5.3V7h43.5v39.9H35.6z"/>
		<path id="Path_3680" class="st1" d="M14.3,11.6H9.3c-0.6,0-1.1,0.5-1.1,1.1l0,0v5.1c0,0.6,0.5,1.1,1.1,1.1l0,0h5.1
			c0.6,0,1.1-0.5,1.1-1.1l0,0v-5.1C15.4,12.1,14.9,11.6,14.3,11.6C14.3,11.6,14.3,11.6,14.3,11.6z M13.3,16.7h-3v-3h3L13.3,16.7z"/>
		<path id="Path_3681" class="st1" d="M24.5,11.6h-5.1c-0.6,0-1.1,0.5-1.1,1.1v0v5.1c0,0.6,0.5,1.1,1.1,1.1h5.1
			c0.6,0,1.1-0.5,1.1-1.1v-5.1C25.5,12.1,25.1,11.6,24.5,11.6C24.5,11.6,24.5,11.6,24.5,11.6z M23.4,16.7h-3v-3h3V16.7z"/>
		<path id="Path_3682" class="st1" d="M34.6,11.6h-5.1c-0.6,0-1.1,0.5-1.1,1.1v5.1c0,0.6,0.5,1.1,1.1,1.1h5.1c0.6,0,1.1-0.5,1.1-1.1
			v-5.1C35.7,12.1,35.2,11.6,34.6,11.6C34.6,11.6,34.6,11.6,34.6,11.6z M33.5,16.7h-3v-3h3V16.7z"/>
		<path id="Path_3683" class="st1" d="M44.7,11.6h-5.1c-0.6,0-1.1,0.5-1.1,1.1v5.1c0,0.6,0.5,1.1,1.1,1.1h5.1c0.6,0,1.1-0.5,1.1-1.1
			v-5.1C45.8,12.1,45.3,11.6,44.7,11.6C44.7,11.6,44.7,11.6,44.7,11.6z M43.7,16.7h-3v-3h3V16.7z"/>
		<path id="Path_3684" class="st1" d="M14.3,21.7H9.3c-0.6,0-1.1,0.5-1.1,1.1v5.1c0,0.6,0.5,1.1,1.1,1.1h5.1c0.6,0,1.1-0.5,1.1-1.1
			v-5.1C15.4,22.2,14.9,21.7,14.3,21.7C14.3,21.7,14.3,21.7,14.3,21.7z M13.3,26.8h-3v-3h3L13.3,26.8z"/>
		<path id="Path_3685" class="st1" d="M24.5,21.7h-5.1c-0.6,0-1.1,0.5-1.1,1.1l0,0v5.1c0,0.6,0.5,1.1,1.1,1.1h5.1
			c0.6,0,1.1-0.5,1.1-1.1v-5.1C25.5,22.2,25.1,21.7,24.5,21.7C24.5,21.7,24.5,21.7,24.5,21.7z M23.4,26.8h-3v-3h3V26.8z"/>
		<path id="Path_3686" class="st1" d="M34.6,21.7h-5.1c-0.6,0-1.1,0.5-1.1,1.1v5.1c0,0.6,0.5,1.1,1.1,1.1h5.1c0.6,0,1.1-0.5,1.1-1.1
			v-5.1C35.7,22.2,35.2,21.7,34.6,21.7C34.6,21.7,34.6,21.7,34.6,21.7z M33.5,26.8h-3v-3h3V26.8z"/>
		<path id="Path_3687" class="st1" d="M44.7,21.7h-5.1c-0.6,0-1.1,0.5-1.1,1.1v5.1c0,0.6,0.5,1.1,1.1,1.1h5.1c0.6,0,1.1-0.5,1.1-1.1
			v-5.1C45.8,22.2,45.3,21.7,44.7,21.7C44.7,21.7,44.7,21.7,44.7,21.7z M43.7,26.8h-3v-3h3V26.8z"/>
		<path id="Path_3688" class="st1" d="M14.3,31.9H9.3c-0.6,0-1.1,0.5-1.1,1.1V38c0,0.6,0.5,1.1,1.1,1.1h5.1c0.6,0,1.1-0.5,1.1-1.1
			v-5.1C15.4,32.3,14.9,31.9,14.3,31.9C14.3,31.9,14.3,31.9,14.3,31.9z M13.3,36.9h-3v-3h3L13.3,36.9z"/>
		<path id="Path_3689" class="st1" d="M44.7,31.9h-5.1c-0.6,0-1.1,0.5-1.1,1.1V38c0,0.6,0.5,1.1,1.1,1.1h5.1c0.6,0,1.1-0.5,1.1-1.1
			v-5.1C45.8,32.3,45.3,31.9,44.7,31.9C44.7,31.9,44.7,31.9,44.7,31.9z M43.7,36.9h-3v-3h3V36.9z"/>
		<path id="Path_3690" class="st1" d="M27,51.9c-0.6,0-1.1,0.5-1.1,1.1c0,0.6,0.5,1.1,1.1,1.1c0.6,0,1.1-0.5,1.1-1.1
			c0-0.3-0.1-0.5-0.3-0.7C27.5,52,27.3,51.9,27,51.9z"/>
	</g>
</g>
</svg>
