<?xml version="1.0" encoding="utf-8"?>
<!-- Generator: Adobe Illustrator 25.1.0, SVG Export Plug-In . SVG Version: 6.00 Build 0)  -->
<svg version="1.1" id="Layer_1" xmlns="http://www.w3.org/2000/svg" xmlns:xlink="http://www.w3.org/1999/xlink" x="0px" y="0px"
	 width="75.4px" height="67.8px" viewBox="0 0 75.4 67.8" style="enable-background:new 0 0 75.4 67.8;" xml:space="preserve">
<style type="text/css">
	.st0{fill:#F37020;}
	.st1{fill:none;stroke:#333E63;stroke-width:2;stroke-miterlimit:10;}
	.st2{fill:none;stroke:#F37020;stroke-width:2;stroke-miterlimit:10;}
	.st3{fill:none;stroke:#F37020;stroke-width:2;stroke-linecap:round;stroke-miterlimit:10;}
</style>
<g id="icon-4" transform="translate(-521.897 -1341.182)">
	<g id="Group_14738">
		<circle id="Ellipse_1877" class="st0" cx="555.8" cy="1358.7" r="1.3"/>
		<circle id="Ellipse_1878" class="st0" cx="563.4" cy="1358.7" r="1.3"/>
		<path id="Path_4361" class="st0" d="M558.3,1366.3h2.6c0.7,0,1.3-0.6,1.3-1.3s-0.6-1.3-1.3-1.3h-2.6c-0.7,0-1.3,0.6-1.3,1.3
			S557.6,1366.3,558.3,1366.3z"/>
	</g>
	<g id="Group_14739">
		<path id="Path_4362" class="st1" d="M550.2,1362.7h-1.4c-1,0-1.8-0.8-1.8-1.8v-6c0-7,5.7-12.7,12.7-12.7l0,0
			c7,0,12.7,5.7,12.7,12.7v6c0,1-0.8,1.8-1.8,1.8h-1.9"/>
		<path id="Path_4363" class="st1" d="M546.9,1354.9l19.7-1c1.2-0.1,2.1,0.8,2.2,2c0,0,0,0.1,0,0.1v4.6c0,5.1-4.1,9.2-9.2,9.2l0,0
			c-5.1,0-9.2-4.1-9.2-9.2v-5.6"/>
	</g>
	<path id="Path_4364" class="st1" d="M536.9,1387.7l1.2-7.4c0-3.4,2.8-6.2,6.2-6.2h30.7c3.4,0,6.2,2.8,6.2,6.2l1.2,7.4"/>
	<path id="Rectangle_11255" class="st1" d="M534,1387.7h2.5c1.7,0,3,1.3,3,3v5.3c0,1.7-1.3,3-3,3H534c-1.7,0-3-1.3-3-3v-5.3
		C531,1389,532.4,1387.7,534,1387.7z"/>
	<path id="Rectangle_11256" class="st1" d="M582.3,1387.7h2.5c1.7,0,3,1.3,3,3v5.3c0,1.7-1.3,3-3,3h-2.5c-1.7,0-3-1.3-3-3v-5.3
		C579.3,1389,580.7,1387.7,582.3,1387.7z"/>
	<path id="Path_4365" class="st2" d="M544.5,1403.5v-22.1c0-1.3,1.1-2.4,2.4-2.4h25.6c1.3,0,2.4,1.1,2.4,2.4v22.1"/>
	<line id="Line_300" class="st1" x1="521.9" y1="1403.5" x2="597.3" y2="1403.5"/>
	<line id="Line_301" class="st1" x1="533.5" y1="1408" x2="585.7" y2="1408"/>
	<circle id="Ellipse_1879" class="st3" cx="559.6" cy="1391.2" r="5.7"/>
</g>
</svg>
