<?xml version="1.0" encoding="utf-8"?>
<!-- Generator: Adobe Illustrator 25.1.0, SVG Export Plug-In . SVG Version: 6.00 Build 0)  -->
<svg version="1.1" id="Layer_1" xmlns="http://www.w3.org/2000/svg" xmlns:xlink="http://www.w3.org/1999/xlink" x="0px" y="0px"
	 width="70px" height="70.7px" viewBox="0 0 70 70.7" style="enable-background:new 0 0 70 70.7;" xml:space="preserve">
<style type="text/css">
	.st0{fill:none;stroke:#F37020;stroke-width:2;stroke-miterlimit:10;}
	.st1{fill:none;stroke:#333E63;stroke-width:2;stroke-miterlimit:10;}
	.st2{fill:none;stroke:#333E63;stroke-width:4;stroke-miterlimit:10;}
</style>
<g id="icon-6" transform="translate(-832.808 -300.625)">
	<path id="Path_4262" class="st0" d="M900.9,335.1L889,323.1l-8.3,8.3l-27.8-26.8"/>
	<path id="Path_4263" class="st1" d="M865.5,307.4c3.7-2.1,7.8-3.2,12-3.2c13.4,0,24.3,10.9,24.3,24.3c0,13.4-10.9,24.3-24.3,24.3
		c-13.4,0-24.3-10.9-24.3-24.3c0-4,1-8,2.9-11.5"/>
	<line id="Line_246" class="st1" x1="859.5" y1="344.7" x2="834.2" y2="369.9"/>
	<line id="Line_247" class="st2" x1="850.7" y1="353.4" x2="834.2" y2="369.9"/>
	<line id="Line_248" class="st0" x1="850.3" y1="367.8" x2="863.9" y2="367.8"/>
	<line id="Line_249" class="st0" x1="858.3" y1="362.5" x2="873.9" y2="362.5"/>
	<path id="Path_4264" class="st0" d="M858.2,301.6h-8.3v8.3"/>
	<line id="Line_250" class="st1" x1="881.1" y1="344.7" x2="881.1" y2="336.8"/>
	<line id="Line_251" class="st1" x1="887.6" y1="344.7" x2="887.6" y2="332.6"/>
</g>
</svg>
