<?xml version="1.0" encoding="utf-8"?>
<!-- Generator: Adobe Illustrator 25.1.0, SVG Export Plug-In . SVG Version: 6.00 Build 0)  -->
<svg version="1.1" id="Layer_1" xmlns="http://www.w3.org/2000/svg" xmlns:xlink="http://www.w3.org/1999/xlink" x="0px" y="0px"
	 width="74px" height="66.8px" viewBox="0 0 74 66.8" style="enable-background:new 0 0 74 66.8;" xml:space="preserve">
<style type="text/css">
	.st0{fill:none;stroke:#333E63;stroke-width:2;stroke-miterlimit:10;}
	.st1{fill:none;stroke:#F37020;stroke-width:2;stroke-miterlimit:10;}
	.st2{fill:#F37020;}
</style>
<g id="icon-2" transform="translate(-285.412 -1064.601)">
	<rect id="Rectangle_11249" x="286.4" y="1123.1" class="st0" width="64.3" height="7.3"/>
	<path id="Path_4327" class="st1" d="M342.5,1073.4c-5.8,0-10.5,4.7-10.5,10.5c0,3,1.3,5.9,3.5,7.8c1.7,1.7,1.5,5.2,1.5,5.2
		c0,0.2,0.1,0.4,0.2,0.5c0.1,0.1,0.3,0.2,0.5,0.2h9.6c0.2,0,0.3-0.1,0.5-0.2c0.1-0.1,0.2-0.3,0.2-0.5c0,0-0.2-3.6,1.5-5.2l0.1-0.1
		c4.3-3.9,4.6-10.5,0.8-14.8C348.3,1074.6,345.4,1073.4,342.5,1073.4L342.5,1073.4z"/>
	<path id="Path_4328" class="st1" d="M348.8,1084c0-3.4-2.8-6.2-6.2-6.3c0,0,0,0-0.1,0"/>
	<path id="Path_4329" class="st2" d="M342.4,1070.3c0.4,0,0.6-0.3,0.6-0.6c0,0,0,0,0,0v-4.4c0-0.4-0.3-0.6-0.6-0.6
		c-0.4,0-0.6,0.3-0.6,0.6v4.4C341.8,1070,342.1,1070.2,342.4,1070.3z"/>
	<path id="Path_4330" class="st2" d="M353.1,1067.8c-0.3-0.2-0.6-0.1-0.8,0.1c0,0,0,0,0,0l-2.4,3.6c-0.2,0.3-0.2,0.7,0.1,0.9
		c0,0,0,0,0,0c0.3,0.2,0.6,0.1,0.8-0.1c0,0,0,0,0,0l2.4-3.6C353.5,1068.5,353.4,1068.1,353.1,1067.8
		C353.1,1067.9,353.1,1067.9,353.1,1067.8z"/>
	<path id="Path_4331" class="st2" d="M334.8,1072.5c0.1,0,0.2,0,0.3-0.1c0.3-0.2,0.4-0.6,0.2-0.9l-2.3-3.7c-0.2-0.3-0.6-0.4-0.9-0.2
		s-0.4,0.6-0.2,0.9l0,0l2.3,3.7C334.3,1072.4,334.5,1072.5,334.8,1072.5z"/>
	<path id="Path_4332" class="st2" d="M330.2,1076.5l-3.8-2.1c-0.3-0.2-0.7,0-0.9,0.3c-0.2,0.3-0.1,0.7,0.2,0.8c0,0,0,0,0.1,0
		l3.8,2.1c0.1,0,0.2,0.1,0.3,0.1c0.2,0,0.5-0.1,0.6-0.3C330.6,1077,330.5,1076.7,330.2,1076.5z"/>
	<path id="Path_4333" class="st2" d="M359.4,1074.7c-0.2-0.3-0.6-0.4-0.9-0.3l-3.8,2.1c-0.3,0.2-0.4,0.6-0.3,0.9
		c0.1,0.2,0.3,0.3,0.6,0.3c0.1,0,0.2,0,0.3-0.1l3.8-2.1C359.4,1075.4,359.5,1075,359.4,1074.7z"/>
	<line id="Line_291" class="st1" x1="337.6" y1="1100.8" x2="347.1" y2="1100.8"/>
	<line id="Line_292" class="st1" x1="339.1" y1="1103.9" x2="345.6" y2="1103.9"/>
	<g id="Group_14724">
		<rect id="Rectangle_11250" x="292.7" y="1078" class="st0" width="17.9" height="45"/>
		<rect id="Rectangle_11251" x="297.2" y="1071.4" class="st0" width="8.8" height="6.7"/>
	</g>
	<g id="Group_14725">
		<rect id="Rectangle_11252" x="316.5" y="1093.2" class="st0" width="11.9" height="29.8"/>
		<rect id="Rectangle_11253" x="319.5" y="1088.8" class="st0" width="5.8" height="4.4"/>
		<rect id="Rectangle_11254" x="321.3" y="1116.6" class="st2" width="2.4" height="4.2"/>
	</g>
</g>
</svg>
