<?xml version="1.0" encoding="utf-8"?>
<!-- Generator: Adobe Illustrator 25.1.0, SVG Export Plug-In . SVG Version: 6.00 Build 0)  -->
<svg version="1.1" id="Layer_1" xmlns="http://www.w3.org/2000/svg" xmlns:xlink="http://www.w3.org/1999/xlink" x="0px" y="0px"
	 width="66.4px" height="67.8px" viewBox="0 0 66.4 67.8" style="enable-background:new 0 0 66.4 67.8;" xml:space="preserve">
<style type="text/css">
	.st0{fill:none;stroke:#333E63;stroke-width:2;stroke-miterlimit:10;}
	.st1{fill:none;stroke:#F37020;stroke-width:2;stroke-miterlimit:10;}
</style>
<g id="icon-5" transform="translate(-726.287 -301.886)">
	<path id="Path_4260" class="st0" d="M726.3,317.7h10l10.9,35.2h36.8l7.9-23.2"/>
	<circle id="Ellipse_1847" class="st0" cx="753" cy="363.8" r="4.9"/>
	<circle id="Ellipse_1848" class="st0" cx="778.3" cy="363.8" r="4.9"/>
	<line id="Line_242" class="st1" x1="781.3" y1="332.6" x2="771.7" y2="332.6"/>
	<path id="Path_4261" class="st1" d="M775.2,309.3h-22.4c-0.8,0-1.4,0.6-1.4,1.4V342c0,0.8,0.6,1.4,1.4,1.4H770
		c0.9,0,1.7-0.8,1.7-1.7l0,0v-29c0-0.9,0.4-1.8,1-2.4l0,0c1.3-1.3,3.4-1.3,4.8,0l0,0c0.6,0.6,1,1.5,1,2.4v17.2
		c0,0.7,0.3,1.4,0.8,1.9l0,0c1.1,1,2.7,1,3.8,0l0,0c0.5-0.5,0.8-1.2,0.8-1.9v-26.3c0-0.4-0.3-0.7-0.7-0.7c0,0,0,0,0,0h-18.4
		c-0.8,0-1.4,0.6-1.4,1.4v5.1"/>
	<line id="Line_243" class="st1" x1="758.2" y1="317.4" x2="765" y2="317.4"/>
	<line id="Line_244" class="st1" x1="753.8" y1="320.8" x2="769.4" y2="320.8"/>
	<line id="Line_245" class="st1" x1="753.8" y1="324.2" x2="769.4" y2="324.2"/>
</g>
</svg>
