<?xml version="1.0" encoding="utf-8"?>
<!-- Generator: Adobe Illustrator 25.1.0, SVG Export Plug-In . SVG Version: 6.00 Build 0)  -->
<svg version="1.1" id="Layer_1" xmlns="http://www.w3.org/2000/svg" xmlns:xlink="http://www.w3.org/1999/xlink" x="0px" y="0px"
	 width="61.3px" height="67.8px" viewBox="0 0 61.3 67.8" style="enable-background:new 0 0 61.3 67.8;" xml:space="preserve">
<style type="text/css">
	.st0{fill:none;stroke:#333E63;stroke-width:2;stroke-miterlimit:10;}
	.st1{fill:none;stroke:#F37020;stroke-width:2;stroke-miterlimit:10;}
	.st2{fill:#F37020;}
</style>
<g id="icon-3" transform="translate(-426.025 -301.821)">
	<g id="Group_14674">
		<path id="Path_4253" class="st0" d="M437.3,339.8c2.7-3.7,5.7-7.1,8.9-10.3c2.2-2.2,2.2-5.6,1.2-9.1c-1.4-4.8-4.7-9.9-6.7-12.7
			c-0.7-1-0.5-2.4,0.5-3.1c0.2-0.1,0.3-0.2,0.5-0.3l1.1-0.4c4.4-1.6,9.2-1.3,13.3,0.8c3.3,1.7,7,2.2,10.6,1.6
			c1.2-0.2,2.3,0.5,2.6,1.7c0.1,0.6,0,1.1-0.3,1.6c-2.3,3.3-4.1,6.9-5.3,10.7c-1,3.5-1,6.8,1.2,9.1c2,2,3.8,4,5.3,5.7"/>
		<path id="Path_4254" class="st0" d="M433.3,354.1c0.4,2,1.3,3.8,2.5,5.4c4.2,5.5,11.4,9.1,19.7,9.1s15.5-3.6,19.7-9.1
			c0.6-0.8,1.1-1.6,1.5-2.5"/>
		<line id="Line_230" class="st0" x1="447.4" y1="320.4" x2="463.7" y2="320.4"/>
		<line id="Line_231" class="st0" x1="446.2" y1="329.4" x2="464.8" y2="329.4"/>
	</g>
	<line id="Line_232" class="st1" x1="440.3" y1="339.8" x2="434.4" y2="339.8"/>
	<line id="Line_233" class="st1" x1="440.3" y1="347" x2="426" y2="347"/>
	<line id="Line_234" class="st1" x1="440.3" y1="354.1" x2="428.5" y2="354.1"/>
	<circle id="Ellipse_1840" class="st1" cx="477.1" cy="345" r="9.3"/>
	<line id="Line_235" class="st1" x1="477.1" y1="345.9" x2="477.1" y2="339.4"/>
	<line id="Line_236" class="st1" x1="477.1" y1="335.8" x2="477.1" y2="333.2"/>
	<line id="Line_237" class="st1" x1="474.9" y1="333.2" x2="479.3" y2="333.2"/>
	<g id="Group_14675">
		<path id="Path_4255" class="st2" d="M454.8,357.3v-2.2c-1.2,0-2.4-0.3-3.4-1l0.5-1.5c0.9,0.6,2,0.9,3.2,0.9c1.6,0,2.6-0.9,2.6-2.2
			c0-1.2-0.9-2-2.5-2.6c-2.2-0.9-3.6-1.9-3.6-3.8c0-1.9,1.5-3.4,3.3-3.5v-2.2h1.4v2.1c1,0,2,0.3,2.9,0.8l-0.5,1.5
			c-0.8-0.5-1.8-0.8-2.8-0.7c-1.7,0-2.3,1-2.3,1.9c0,1.1,0.8,1.7,2.7,2.5c2.3,0.9,3.4,2.1,3.4,4c0,1.9-1.5,3.6-3.5,3.7v2.3
			L454.8,357.3z"/>
	</g>
</g>
</svg>
