<?xml version="1.0" encoding="utf-8"?>
<!-- Generator: Adobe Illustrator 25.1.0, SVG Export Plug-In . SVG Version: 6.00 Build 0)  -->
<svg version="1.1" id="icon-3" xmlns="http://www.w3.org/2000/svg" xmlns:xlink="http://www.w3.org/1999/xlink" x="0px" y="0px"
	 width="53px" height="53px" viewBox="0 0 53 53" style="enable-background:new 0 0 53 53;" xml:space="preserve">
<style type="text/css">
	.st0{fill:#333E63;}
	.st1{fill:#F37020;}
</style>
<g id="Group_1306" transform="translate(0 22.967)">
	<g id="Group_1305">
		<path id="Path_3692" class="st0" d="M33.6,10.7v-8c0-1.5-1.2-2.6-2.6-2.6H6.2C4.7,0,3.5,1.2,3.5,2.6v8C1.5,11.1,0,12.9,0,15v14.1
			C0,29.6,0.4,30,0.9,30h3.5c0.5,0,0.9-0.4,0.9-0.9v-2.6h26.5v2.6c0,0.5,0.4,0.9,0.9,0.9h3.5c0.5,0,0.9-0.4,0.9-0.9V15
			C37.1,12.9,35.6,11.1,33.6,10.7z M5.3,2.6c0-0.5,0.4-0.9,0.9-0.9h24.7c0.5,0,0.9,0.4,0.9,0.9v7.9H30V7.1c0-1.5-1.2-2.6-2.6-2.6
			h-5.3c-1.5,0-2.6,1.2-2.6,2.6v3.5h-1.8V7.1c0-1.5-1.2-2.6-2.6-2.6H9.7c-1.5,0-2.6,1.2-2.7,2.6v3.5H5.3V2.6z M28.3,7.1v3.5h-7.1
			V7.1c0-0.5,0.4-0.9,0.9-0.9h5.3C27.9,6.2,28.3,6.6,28.3,7.1L28.3,7.1z M15.9,7.1v3.5H8.8V7.1c0-0.5,0.4-0.9,0.9-0.9H15
			C15.5,6.2,15.9,6.6,15.9,7.1L15.9,7.1z M35.3,28.3h-1.8v-2.6c0-0.5-0.4-0.9-0.9-0.9H4.4c-0.5,0-0.9,0.4-0.9,0.9v2.6H1.8v-7.1h33.6
			V28.3z M35.3,19.4H1.8V15c0-1.5,1.2-2.6,2.6-2.6h28.3c1.5,0,2.6,1.2,2.7,2.6V19.4z"/>
	</g>
</g>
<g id="Group_1308" transform="translate(38.867 33.567)">
	<g id="Group_1307">
		<path id="Path_3693" class="st0" d="M13.2,0H0.9C0.4,0,0,0.4,0,0.9v13.2h1.8V8.8h10.6v5.3h1.8V0.9C14.1,0.4,13.7,0,13.2,0z
			 M12.4,7.1H1.8V1.8h10.6V7.1z"/>
	</g>
</g>
<g id="Group_1310" transform="translate(44.167 37.1)">
	<g id="Group_1309">
		<rect id="Rectangle_1114" x="-0.2" y="-0.1" class="st1" width="4" height="2"/>
	</g>
</g>
<g id="Group_1312" transform="translate(41.516 20.317)">
	<g id="Group_1311">
		<path id="Path_3694" class="st1" d="M8.8,5.9L7,0.6C6.9,0.2,6.6,0,6.2,0H2.7C2.3,0,1.9,0.2,1.8,0.6L0,5.9c-0.2,0.5,0.1,1,0.6,1.1
			c0.1,0,0.2,0,0.3,0h2.6v2.6H1.8v1.8h5.3V9.7H5.3V7.1H8c0.5,0,0.9-0.4,0.9-0.9C8.8,6.1,8.8,6,8.8,5.9L8.8,5.9z M2.1,5.3l1.2-3.5
			h2.3l1.2,3.5H2.1z"/>
	</g>
</g>
<g id="Group_1314">
	<g id="Group_1313">
		<path id="Path_3695" class="st0" d="M52.5,11.6L26.9,0.1c-0.2-0.1-0.5-0.1-0.7,0L0.5,11.6C0.2,11.7,0,12,0,12.4V23h1.8v-10
			L26.5,1.9l24.7,11.1v10H53V12.4C53,12,52.8,11.7,52.5,11.6z"/>
	</g>
</g>
<g id="Group_1316" transform="translate(20.317 7.067)">
	<g id="Group_1315">
		<path id="Path_3696" class="st1" d="M12.3,5.2l-1.7,0.3c0,0.2,0.1,0.5,0.1,0.7c0,2.4-2,4.4-4.4,4.4c-2.4,0-4.4-2-4.4-4.4
			c0-2.4,2-4.4,4.4-4.4c0.5,0,1,0.1,1.5,0.3l0.6-1.7C5-0.8,1.5,0.9,0.4,4.1c-1.1,3.2,0.5,6.8,3.8,7.9c3.2,1.1,6.8-0.5,7.9-3.8
			c0.2-0.7,0.4-1.4,0.4-2.1C12.4,5.8,12.3,5.5,12.3,5.2z"/>
	</g>
</g>
<g id="Group_1318" transform="translate(24.109 7.325)">
	<g id="Group_1317">
		<path id="Path_3697" class="st1" d="M8,0L2.4,5.6L1.2,4.4L0,5.7l1.8,1.8c0.3,0.3,0.9,0.3,1.2,0c0,0,0,0,0,0l6.2-6.2L8,0z"/>
	</g>
</g>
</svg>
