<?xml version="1.0" encoding="utf-8"?>
<!-- Generator: Adobe Illustrator 25.1.0, SVG Export Plug-In . SVG Version: 6.00 Build 0)  -->
<svg version="1.1" id="Layer_1" xmlns="http://www.w3.org/2000/svg" xmlns:xlink="http://www.w3.org/1999/xlink" x="0px" y="0px"
	 width="73.1px" height="67.8px" viewBox="0 0 73.1 67.8" style="enable-background:new 0 0 73.1 67.8;" xml:space="preserve">
<style type="text/css">
	.st0{fill:none;stroke:#333E63;stroke-width:2;stroke-miterlimit:10;}
	.st1{fill:#333E63;}
	.st2{fill:none;stroke:#F37020;stroke-width:2;stroke-miterlimit:10;}
	.st3{fill:#F37020;}
</style>
<g id="iFrame-Integration" transform="translate(-731.586 -102.833)">
	<g id="Group_14658">
		<path id="Path_3669" class="st0" d="M783.3,169.6h16.8c2,0,3.5-2.1,3.6-4.6v-56.6c0-2.5-1.6-4.6-3.6-4.6h-64c-2,0-3.5,2.1-3.6,4.6
			V165c0,2.5,1.6,4.6,3.6,4.6L783.3,169.6L783.3,169.6z"/>
		<line id="Line_189" class="st0" x1="803.7" y1="114.6" x2="732.6" y2="114.6"/>
		<circle id="Ellipse_1809" class="st1" cx="736.9" cy="109.4" r="1.3"/>
		<circle id="Ellipse_1810" class="st1" cx="740.6" cy="109.4" r="1.3"/>
		<circle id="Ellipse_1811" class="st1" cx="744.3" cy="109.4" r="1.3"/>
	</g>
	<g id="Group_14660">
		<line id="Line_214" class="st2" x1="772.6" y1="124.1" x2="763.7" y2="145.6"/>
		<path id="Path_4228" class="st2" d="M778.2,130.2l4.6,4.6l-4.6,4.7"/>
		<path id="Path_4229" class="st2" d="M757.1,130.2l-4.6,4.6l4.6,4.7"/>
		<g id="Group_14659">
			<path id="Path_4230" class="st3" d="M754,152.3v8.1h-1v-8.1H754z"/>
			<path id="Path_4231" class="st3" d="M756.1,160.4v-5h-0.8v-0.8h0.8v-0.3c-0.1-0.7,0.2-1.5,0.7-2c0.4-0.4,0.9-0.6,1.4-0.5
				c0.3,0,0.6,0.1,0.9,0.2l-0.1,0.8c-0.2-0.1-0.4-0.1-0.7-0.1c-0.9,0-1.1,0.8-1.1,1.7v0.3h1.4v0.8h-1.4v5H756.1z"/>
			<path id="Path_4232" class="st3" d="M759.4,156.4c0-0.7,0-1.3,0-1.8h0.9l0,1.1h0c0.2-0.7,0.9-1.2,1.6-1.3c0.1,0,0.2,0,0.3,0v1
				c-0.1,0-0.2,0-0.4,0c-0.7,0-1.4,0.6-1.4,1.4c0,0.2,0,0.3,0,0.5v3.1h-1L759.4,156.4z"/>
			<path id="Path_4233" class="st3" d="M766.5,160.4l-0.1-0.7h0c-0.4,0.6-1.1,0.9-1.8,0.9c-0.9,0.1-1.7-0.6-1.8-1.5c0,0,0-0.1,0-0.1
				c0-1.4,1.2-2.2,3.5-2.2v-0.1c0.1-0.7-0.4-1.3-1-1.3c-0.1,0-0.2,0-0.3,0c-0.5,0-1.1,0.2-1.5,0.4l-0.2-0.7c0.6-0.3,1.2-0.5,1.9-0.5
				c1.8,0,2.2,1.2,2.2,2.4v2.2c0,0.5,0,0.9,0.1,1.4L766.5,160.4z M766.4,157.4c-1.2,0-2.5,0.2-2.5,1.3c0,0.5,0.3,1,0.9,1
				c0,0,0.1,0,0.1,0c0.6,0,1.2-0.4,1.4-1c0-0.1,0.1-0.2,0.1-0.3L766.4,157.4z"/>
			<path id="Path_4234" class="st3" d="M769.1,156.1c0-0.6,0-1.1,0-1.6h0.9l0,0.9h0c0.4-0.7,1.1-1.1,1.8-1.1c0.7,0,1.4,0.5,1.6,1.2
				h0c0.2-0.3,0.4-0.6,0.6-0.8c0.4-0.3,0.8-0.4,1.3-0.4c0.8,0,1.9,0.5,1.9,2.5v3.4h-1v-3.3c0-1.1-0.4-1.8-1.3-1.8
				c-0.6,0-1.1,0.4-1.2,1c-0.1,0.2-0.1,0.3-0.1,0.5v3.6h-1v-3.5c0-0.9-0.4-1.6-1.2-1.6c-0.8,0.1-1.4,0.8-1.4,1.6v3.5h-1V156.1z"/>
			<path id="Path_4235" class="st3" d="M779.7,157.7c-0.1,1,0.7,1.9,1.7,2c0.1,0,0.2,0,0.3,0c0.6,0,1.1-0.1,1.6-0.3l0.2,0.8
				c-0.6,0.3-1.3,0.4-1.9,0.4c-1.5,0.1-2.8-1-2.9-2.5c0-0.1,0-0.3,0-0.4c0-1.8,1-3.1,2.7-3.1c1.4,0,2.4,1.1,2.4,2.5
				c0,0.1,0,0.2,0,0.2c0,0.2,0,0.3,0,0.5H779.7z M782.8,156.9c0.1-0.8-0.5-1.6-1.3-1.7c-0.1,0-0.1,0-0.2,0c-0.9,0.1-1.6,0.8-1.6,1.7
				H782.8z"/>
		</g>
	</g>
</g>
</svg>
