<?xml version="1.0" encoding="utf-8"?>
<!-- Generator: Adobe Illustrator 25.1.0, SVG Export Plug-In . SVG Version: 6.00 Build 0)  -->
<svg version="1.1" id="Layer_1" xmlns="http://www.w3.org/2000/svg" xmlns:xlink="http://www.w3.org/1999/xlink" x="0px" y="0px"
	 width="75.9px" height="67.8px" viewBox="0 0 75.9 67.8" style="enable-background:new 0 0 75.9 67.8;" xml:space="preserve">
<style type="text/css">
	.st0{fill:none;stroke:#F37020;stroke-width:2;stroke-miterlimit:10;}
	.st1{fill:none;stroke:#333E63;stroke-width:2;stroke-miterlimit:10;}
</style>
<g id="Improve-Credit" transform="translate(-621.595 -833.994)">
	<path id="Path_4294" class="st0" d="M692.9,866l3.2,3.2l-3.2,3.2"/>
	<g id="Group_14719">
		<line id="Line_268" class="st0" x1="695.9" y1="869.2" x2="676.7" y2="869.2"/>
		<line id="Line_269" class="st0" x1="691.4" y1="876.8" x2="676.7" y2="876.8"/>
		<path id="Path_4295" class="st0" d="M688.3,873.6l3.2,3.2l-3.2,3.2"/>
		<path id="Path_4296" class="st1" d="M636.5,889.7c1,3.6,2.9,6.8,5.6,9.4c1.1,1.1,2.6,1.7,4.1,1.6h28.3c1.5,0,3-0.6,4.1-1.6
			c4.9-4.8,6.8-11.2,6.8-18.1c0-11.4-8-25.7-17.5-31.4h-15.1c-2.7,1.7-5,3.7-7.1,6.1"/>
		<path id="Path_4297" class="st0" d="M636.4,889.4c0,0.1,0,0.2,0.1,0.2"/>
		<path id="Path_4298" class="st1" d="M653.3,846.8c-0.7-2-2-5.6-2.7-7.6c-0.3-0.7-0.4-1.4-0.3-2.1c0.1-0.8,0.6-1.4,1.3-1.6
			c2.2-0.6,3.1,3.8,4.9,3.7c0.3,0,0.6-0.2,0.8-0.5c0.7-0.8,1.2-1.7,1.5-2.7c0.2-0.8,1-1.2,1.8-1c0.5,0.1,0.9,0.5,1,1
			c0.3,1,0.9,1.9,1.5,2.7c0.2,0.3,0.5,0.4,0.8,0.5c1.8,0.1,2.7-4.3,4.9-3.7c0.7,0.2,1.2,0.9,1.3,1.6c0.1,0.7,0,1.4-0.3,2.1
			c-0.7,2-2,5.6-2.7,7.6"/>
		<path id="Rectangle_11247" class="st1" d="M652.9,846.8h14.7c0.4,0,0.8,0.4,0.8,0.8v1.3c0,0.4-0.4,0.8-0.8,0.8h-14.7
			c-0.4,0-0.8-0.4-0.8-0.8v-1.3C652.1,847.1,652.5,846.8,652.9,846.8z"/>
		<path id="Path_4300" class="st0" d="M636.5,889.7h-10.5c-1.8,0-3.3-1.5-3.3-3.3c0,0,0,0,0,0v-27.3c0-1.8,1.5-3.3,3.3-3.3h19.8"/>
		<path id="Path_4301" class="st0" d="M645.7,855.7h0.6c1.8,0,3.3,1.5,3.3,3.3v27.3c0,1.8-1.5,3.3-3.3,3.3h-9.9"/>
		<path id="Rectangle_11248" class="st0" d="M627.9,861.2h16.6c0.3,0,0.5,0.2,0.5,0.5v6.7c0,0.3-0.2,0.5-0.5,0.5h-16.6
			c-0.3,0-0.5-0.2-0.5-0.5v-6.7C627.4,861.5,627.7,861.2,627.9,861.2z"/>
		<line id="Line_272" class="st0" x1="627.9" y1="872.7" x2="632.2" y2="872.7"/>
		<line id="Line_273" class="st0" x1="634.6" y1="872.7" x2="638.9" y2="872.7"/>
		<line id="Line_274" class="st0" x1="641.4" y1="872.7" x2="645.7" y2="872.7"/>
		<line id="Line_275" class="st0" x1="627.9" y1="876.5" x2="632.2" y2="876.5"/>
		<line id="Line_276" class="st0" x1="634.6" y1="876.5" x2="638.9" y2="876.5"/>
		<line id="Line_277" class="st0" x1="641.4" y1="876.5" x2="645.7" y2="876.5"/>
		<line id="Line_278" class="st0" x1="627.9" y1="880.2" x2="632.2" y2="880.2"/>
		<line id="Line_279" class="st0" x1="634.6" y1="880.2" x2="638.9" y2="880.2"/>
		<line id="Line_280" class="st0" x1="641.4" y1="880.2" x2="645.7" y2="880.2"/>
		<line id="Line_281" class="st0" x1="627.9" y1="884" x2="632.2" y2="884"/>
		<line id="Line_282" class="st0" x1="634.6" y1="884" x2="638.9" y2="884"/>
		<line id="Line_283" class="st0" x1="641.4" y1="884" x2="645.7" y2="884"/>
		<path id="Path_4299" class="st0" d="M658.1,867.7c3.4,0,6.1,2.7,6.1,6.1c0,3.4-2.7,6.1-6.1,6.1l0,0l8.1,8.8"/>
		<line id="Line_270" class="st0" x1="656" y1="867.7" x2="667.8" y2="867.7"/>
		<line id="Line_271" class="st0" x1="656" y1="872.2" x2="667.8" y2="872.2"/>
	</g>
</g>
</svg>
