<?xml version="1.0" encoding="utf-8"?>
<!-- Generator: Adobe Illustrator 25.1.0, SVG Export Plug-In . SVG Version: 6.00 Build 0)  -->
<svg version="1.1" id="Layer_1" xmlns="http://www.w3.org/2000/svg" xmlns:xlink="http://www.w3.org/1999/xlink" x="0px" y="0px"
	 width="99px" height="68.2px" viewBox="0 0 99 68.2" style="enable-background:new 0 0 99 68.2;" xml:space="preserve">
<style type="text/css">
	.st0{fill:none;stroke:#F37020;stroke-width:2;stroke-miterlimit:10;}
	.st1{fill:none;stroke:#333E63;stroke-width:2;stroke-miterlimit:10;}
</style>
<g id="Increased-Liquidity" transform="translate(-106.781 -833.528)">
	<line id="Line_288" class="st0" x1="204.7" y1="847.4" x2="185.7" y2="867.2"/>
	<path id="Path_4318" class="st0" d="M107.5,891l17.2-17.4l9.3,10.2l4.5-1.2"/>
	<path id="Path_4285" class="st0" d="M195.8,847.4h9v8.9"/>
	<path id="Path_4286" class="st1" d="M187.8,875.7c-0.1,13.9-11.4,25-25.2,24.9c-13.7-0.1-24.8-11.2-24.9-24.9
		c0-13.9,25.1-40.7,25.1-40.7S187.8,861.8,187.8,875.7z"/>
	<path id="Path_4287" class="st0" d="M179.2,875.8c0,0,1.2,8.4-5,12.3"/>
	<path id="Path_4292" class="st0" d="M157.6,865.4c3.8,0,6.9,3.1,6.9,6.9c0,3.8-3.1,6.9-6.9,6.9c0,0,0,0,0,0l9.1,9.9"/>
	<line id="Line_262" class="st0" x1="155.3" y1="865.4" x2="168.6" y2="865.4"/>
	<line id="Line_263" class="st0" x1="155.3" y1="870.5" x2="168.6" y2="870.5"/>
</g>
</svg>
