<svg xmlns="http://www.w3.org/2000/svg" xmlns:xlink="http://www.w3.org/1999/xlink" width="30" height="17.5" viewBox="0 0 30 17.5">
  <defs>
    <clipPath id="clip-path">
      <rect id="Rectangle_874" data-name="Rectangle 874" width="30" height="17.5" fill="none"/>
    </clipPath>
  </defs>
  <g id="INDIA" transform="translate(-817.117 -446.805)">
    <g id="Group_1180" data-name="Group 1180" transform="translate(817.117 446.805)">
      <g id="Group_1179" data-name="Group 1179">
        <g id="Group_1178" data-name="Group 1178" clip-path="url(#clip-path)">
          <rect id="Rectangle_870" data-name="Rectangle 870" width="30" height="17.5" fill="#fff"/>
          <rect id="Rectangle_871" data-name="Rectangle 871" width="30" height="5.834" fill="#f0953e"/>
          <rect id="Rectangle_872" data-name="Rectangle 872" width="30" height="5.831" transform="translate(0 11.669)" fill="#3b8916"/>
          <g id="Group_1177" data-name="Group 1177">
            <g id="Group_1176" data-name="Group 1176" clip-path="url(#clip-path)">
              <path id="Path_3488" data-name="Path 3488" d="M833.586,453.66a2.624,2.624,0,1,0,2.626,2.623,2.624,2.624,0,0,0-2.626-2.623m0,.255-.067,1.32.071.751.067-.751-.067-1.32a1.883,1.883,0,0,1,.2.011l0,.007a.113.113,0,0,0,.108.115.109.109,0,0,0,.106-.1,1.98,1.98,0,0,1,.194.046l-.4,1.257-.13.744.262-.712L834.2,454c.063.021.125.038.189.063a.127.127,0,0,0-.009.038.109.109,0,0,0,.209.042c.06.029.117.06.177.095l-.718,1.1-.317.692.438-.619.6-1.173c.054.031.11.066.165.1a.112.112,0,0,0-.024.07.108.108,0,0,0,.11.108.093.093,0,0,0,.085-.046q.079.068.148.137l-.978.883-.484.583.581-.482.885-.981c.046.048.091.094.133.147a.1.1,0,0,0-.038.083.108.108,0,0,0,.106.109.1.1,0,0,0,.064-.021,1.755,1.755,0,0,1,.106.168l-1.173.6-.618.44.686-.315,1.108-.722c.037.063.067.129.1.185a.119.119,0,0,0-.066.1.108.108,0,0,0,.106.108.08.08,0,0,0,.042-.011c.021.063.04.122.055.185l-1.29.273-.707.262.744-.126,1.257-.4c.016.055.031.126.044.189a.106.106,0,0,0-.095.108.111.111,0,0,0,.11.108h.011a1.778,1.778,0,0,1,.007.2l-1.317-.063-.754.066.754.073,1.317-.07a1.763,1.763,0,0,1-.007.2h-.011a.113.113,0,0,0-.11.108.111.111,0,0,0,.093.109c-.012.066-.026.129-.042.191l-.449-.143-.808-.262-.744-.125h0l.707.262,1.29.275a1.169,1.169,0,0,1-.059.185l-.014,0h-.024a.107.107,0,0,0-.11.108.089.089,0,0,0,.01.042h0a.081.081,0,0,0,.03.042h0l.008,0h0l.011.007h0l.007.007c-.028.059-.06.118-.093.174l-1.107-.716h0l-.686-.314h0l.36.251.255.181h0l1.173.6a2,2,0,0,1-.108.171.131.131,0,0,0-.063-.017.1.1,0,0,0-.108.1.1.1,0,0,0,.04.084c-.044.048-.088.1-.133.143l-.885-.978-.579-.482.482.583.978.884a1.492,1.492,0,0,1-.142.129.1.1,0,0,0-.068-.024.111.111,0,0,0-.108.108.131.131,0,0,0,.009.049c-.058.035-.117.073-.174.112l-.6-1.174-.438-.621h0l.316.687.718,1.111c-.058.031-.115.063-.175.09a.1.1,0,0,0-.1-.066.111.111,0,0,0-.11.108.171.171,0,0,0,.007.042,1.822,1.822,0,0,1-.189.055l-.28-1.292-.262-.7v0l.13.744.4,1.257a1.23,1.23,0,0,1-.194.042.111.111,0,0,0-.106-.09.106.106,0,0,0-.108.1v.013a1.853,1.853,0,0,1-.2.011l.067-1.317-.071-.754-.068.754.067,1.317a1.893,1.893,0,0,1-.2-.011v-.013a.108.108,0,0,0-.11-.1.111.111,0,0,0-.106.09,1.555,1.555,0,0,1-.189-.042l.4-1.257.125-.74-.261.7-.276,1.292c-.063-.013-.126-.035-.19-.055a.117.117,0,0,0,.009-.042.111.111,0,0,0-.106-.108.115.115,0,0,0-.1.066c-.058-.028-.117-.059-.175-.09l.718-1.111.314-.687-.436.618-.6,1.177c-.057-.038-.115-.073-.169-.112a.09.09,0,0,0,.021-.06.109.109,0,0,0-.106-.112.1.1,0,0,0-.084.042c-.052-.046-.1-.084-.147-.132l.982-.884.482-.583h0l-.581.482-.886.978c-.048-.046-.092-.1-.136-.143a.119.119,0,0,0,.042-.088.106.106,0,0,0-.108-.1.132.132,0,0,0-.064.017,1.742,1.742,0,0,1-.107-.167l1.177-.6.612-.429-.686.314-1.107.716c-.033-.056-.06-.112-.089-.174a.1.1,0,0,0,.07-.1.109.109,0,0,0-.11-.112.1.1,0,0,0-.046.011c-.021-.059-.042-.126-.061-.192l1.292-.275.711-.262-.747.125-1.257.4c-.018-.063-.03-.125-.044-.195a.105.105,0,0,0,.095-.105.109.109,0,0,0-.108-.108h-.012c0-.063-.009-.129-.009-.2l1.318.07.753-.073-.753-.066-1.318.063c0-.063.005-.133.009-.2h.019a.106.106,0,0,0,.108-.108.108.108,0,0,0-.1-.108c.014-.063.026-.133.044-.189l1.257.4.747.126-.711-.262-1.292-.276c.019-.066.04-.129.061-.189a.154.154,0,0,0,.04.007.107.107,0,0,0,.108-.108.1.1,0,0,0-.064-.1c.028-.063.058-.122.091-.181l1.107.722.689.315-.616-.44-1.177-.6c.034-.056.071-.112.109-.172a.085.085,0,0,0,.064.025.11.11,0,0,0,.108-.109.135.135,0,0,0-.04-.087c.04-.049.084-.095.131-.143l.885.981.583.482-.482-.583-.982-.883c.049-.046.1-.091.147-.133a.1.1,0,0,0,.084.042.109.109,0,0,0,.11-.112.127.127,0,0,0-.022-.066c.055-.031.11-.07.167-.1l.6,1.173.436.615-.314-.688-.718-1.1c.058-.035.115-.066.173-.095a.108.108,0,0,0,.1.07.107.107,0,0,0,.108-.1.156.156,0,0,0-.007-.046c.062-.024.128-.041.19-.063l.28,1.289.262.712-.128-.744-.4-1.257a1.837,1.837,0,0,1,.192-.046.108.108,0,0,0,.106.095.11.11,0,0,0,.11-.112v-.011a1.8,1.8,0,0,1,.2-.007" transform="translate(-818.587 -447.532)" fill="#16007e"/>
              <path id="Path_3489" data-name="Path 3489" d="M833.855,456.156a.393.393,0,1,1-.394.391.393.393,0,0,1,.394-.391" transform="translate(-818.852 -447.797)" fill="#fff"/>
              <path id="Path_3490" data-name="Path 3490" d="M833.866,456.258a.3.3,0,0,1,.3.3.3.3,0,1,1-.3-.3" transform="translate(-818.862 -447.808)" fill="#16007e"/>
            </g>
          </g>
        </g>
      </g>
    </g>
  </g>
</svg>
