<svg xmlns="http://www.w3.org/2000/svg" width="90.372" height="87.068" viewBox="0 0 90.372 87.068">
  <g id="Indias_leading" data-name="Indias leading" transform="translate(-91.838 -74.836)">
    <path id="Path_3457" data-name="Path 3457" d="M141.422,74.956a2.734,2.734,0,0,1,1.42-.05.8.8,0,0,1,.363.227c.628.576,1.317,1.08,1.964,1.634.238.227.5-.045.7-.183a2.544,2.544,0,0,1,1.642-.615c.437.015.71.4.939.72a.779.779,0,0,1,.049.815c-.206.47-.643.8-.836,1.274a.95.95,0,0,0,.271,1.046.56.56,0,0,1,.227.621,3.485,3.485,0,0,1-.589.831c-.129.143-.33.092-.494.068.091.75.771,1.2,1.365,1.557.473.283,1.08.189,1.54.488a2.682,2.682,0,0,1,.288,1.057c-.133.5-.793.6-.941,1.1a.392.392,0,0,0,.143.456c.3.243.727.223,1.018.477a1.151,1.151,0,0,0,.542.325,11.73,11.73,0,0,1,1.739.388c.663.286,1.393-.053,2.072.167.658.143,1.039.818,1.71.927.385.1.72-.176,1.1-.2a5.36,5.36,0,0,1,.7.219c.437-.087.66-.528.887-.865a2.42,2.42,0,0,1-.63-1.083c0-.314.317-.456.528-.624.194-.136.472-.375.694-.156.353.383.089.967.3,1.406a.651.651,0,0,0,.435.227,5.48,5.48,0,0,0,1.211.126,3.405,3.405,0,0,0,.883-.259c.335-.118.7-.076,1.038-.193.216-.084.331-.3.476-.471-.3-.2-.707-.367-.78-.758.024-.317.407-.287.629-.38a2.054,2.054,0,0,0,1.2-1.168c.321-.178.494-.519.8-.722a1.408,1.408,0,0,1,1.253-.343.535.535,0,0,0,.629-.263c.165-.28.489-.057.7.033.289.089.412.38.554.616.278-.007.656-.189.869.063a12.916,12.916,0,0,1,.032,1.459c-.019.155.066.476-.187.456a1.213,1.213,0,0,0-1.086.451,6.6,6.6,0,0,1-.9.88,1.79,1.79,0,0,1,.328,1.027,3.607,3.607,0,0,1-.317.673c.386.432.15,1.057-.013,1.537a1.153,1.153,0,0,1-1.234.607,3.907,3.907,0,0,1,0,1.689c-.042.4.14.841-.079,1.211-.236.307-.668.1-.844-.161-.434-.553-.327-1.291-.526-1.925-.484.182-.581.782-1.041,1-.173.158-.41-.024-.407-.227a5.576,5.576,0,0,0-.147-1.3c-.053-.276.187-.459.4-.567a1.14,1.14,0,0,0,.531-.838,2.178,2.178,0,0,0-.5-.229,4.494,4.494,0,0,1-1.881.571c-.394-.33-1.089-.5-1-1.148-.134-.093-.269-.186-.4-.277-.329.174-.78.439-1.091.082-.078.089-.156.18-.231.27.308.174.777.169.93.538.1.336-.147.623-.37.839a.421.421,0,0,0,.17.725c.519.04.516.646.571,1.032a3.325,3.325,0,0,0,.414,1.229,1.914,1.914,0,0,1-.029,1.446c-.309.252-.713-.071-1.065-.01-.149.194-.212.475-.448.592-.217.08-.455.079-.678.138-.146.484.232.945.192,1.432-.038.252-.313.339-.492.476-.39.236-.649.634-1.041.867a6.722,6.722,0,0,1-.878.249,2.519,2.519,0,0,1-.459,1.081,3.7,3.7,0,0,1-1.089,1.163c-.428.307-.651.8-1.027,1.16-.189.187-.46.27-.637.466-.107.322.119.709-.125,1-.237.344-.687.167-1.031.224-.27.207-.355.588-.662.753-.274.115-.59.045-.862.158-.265.264-.032.662.068.957.052.21.28.439.135.653-.105.113,0,.258.023.381a4.368,4.368,0,0,1,.361,1.753c-.076.615-.546,1.083-.686,1.678a4.033,4.033,0,0,1-.013.917c-.077.352.161.667.159,1.014-.1.344-.447.509-.725.683-.112.459.307.818.6,1.111l-.115.212a3.076,3.076,0,0,0-1.5,0,1.563,1.563,0,0,0-.577.974.883.883,0,0,1-1.035.687,3.1,3.1,0,0,1-1.108-.564,2.345,2.345,0,0,1-.7-1.911c.038-.543-.4-.932-.594-1.4a5.148,5.148,0,0,0-.99-1.416c-.9-1.17-1.112-2.67-1.637-4.012-.381.009-.431-.436-.59-.691-.17-.4-.6-.62-.766-1.019-.05-.332.089-.663.05-1-.071-.826-.769-1.462-.754-2.306a4.416,4.416,0,0,0-.212-1.72,1.213,1.213,0,0,1,.269-1.446c-.089-.342-.2-.677-.3-1.017a9.126,9.126,0,0,1-.128-1.057c-.332.477-.09,1.159-.423,1.656-.211.455-.753.477-1.159.655a1.389,1.389,0,0,1-1.346-.295c-.552-.531-1.268-.862-1.777-1.442a.3.3,0,0,1,.018-.456c.495-.346,1.246-.236,1.618-.776a3.523,3.523,0,0,1-1.681-.126c-.254-.049-.381-.3-.549-.469-.188-.234-.459-.419-.561-.712-.055-.276.208-.449.4-.582a2.024,2.024,0,0,1,.878-.431c.464.05.951.315,1.4.063a1.463,1.463,0,0,1,.962-.153,2.707,2.707,0,0,0-.216-.966,8.932,8.932,0,0,0-.667-.8,7.928,7.928,0,0,0-.576-1.144,1.487,1.487,0,0,1,.494-2.03c.521-.216,1.055.183,1.587.092a1.259,1.259,0,0,0,.287-.324,12.32,12.32,0,0,1,.953-1.145,6.06,6.06,0,0,0,.994-1.217,5.228,5.228,0,0,0,.285-.932,9.326,9.326,0,0,1,.99-1.281c.227-.32-.219-.7,0-1.031a3.175,3.175,0,0,1,.51-.45c-.2-.15-.4-.291-.592-.438a.839.839,0,0,1-1.048-.481c-.086-.219.06-.412.169-.59-.22-.325-.591-.54-.744-.909-.1-.555.419-.924.825-1.188a2.683,2.683,0,0,0-1.279-1.021c-.241-.092-.635.019-.741-.278.012-.393.363-.659.634-.9A4.586,4.586,0,0,1,141.422,74.956Z" transform="translate(-9.152)" fill="#f37020"/>
    <rect id="Rectangle_846" data-name="Rectangle 846" width="90.372" height="3.092" transform="translate(91.838 158.813)" fill="#333e63"/>
    <path id="Path_3458" data-name="Path 3458" d="M114.243,178.572h-3.093V162.218h-5.692v16.355h-3.092V162.06a2.938,2.938,0,0,1,2.934-2.935h6.008a2.939,2.939,0,0,1,2.934,2.935Z" transform="translate(-2.275 -18.213)" fill="#333e63"/>
    <path id="Path_3459" data-name="Path 3459" d="M134.012,174.689H130.92V144.246h-5.693v30.443h-3.093v-30.6a2.938,2.938,0,0,1,2.935-2.934h6.008a2.937,2.937,0,0,1,2.934,2.934Z" transform="translate(-6.547 -14.33)" fill="#333e63"/>
    <path id="Path_3460" data-name="Path 3460" d="M153.781,177.019h-3.092v-21.99H145v21.99H141.9V154.871a2.938,2.938,0,0,1,2.934-2.934h6.009a2.937,2.937,0,0,1,2.934,2.934Z" transform="translate(-10.818 -16.66)" fill="#333e63"/>
    <path id="Path_3461" data-name="Path 3461" d="M173.55,174.495h-3.093V143.348h-5.692v31.147h-3.092V143.189a2.938,2.938,0,0,1,2.934-2.934h6.008a2.938,2.938,0,0,1,2.934,2.934Z" transform="translate(-15.09 -14.136)" fill="#333e63"/>
    <path id="Path_3462" data-name="Path 3462" d="M193.319,169.447h-3.092V119.984h-5.692v49.463h-3.093v-49.62a2.938,2.938,0,0,1,2.934-2.934h6.007a2.938,2.938,0,0,1,2.935,2.934Z" transform="translate(-19.362 -9.087)" fill="#333e63"/>
    <path id="Path_3463" data-name="Path 3463" d="M105.08,142.42l-2.047-2.316,25.405-22.457L139.5,129.416l35.8-34.034,2.132,2.241L139.383,133.8,128.239,121.95Z" transform="translate(-2.419 -4.439)" fill="#f37020"/>
    <path id="Path_3464" data-name="Path 3464" d="M195.227,103.3l-3.056-.464.88-5.807L186.809,98.3l-.622-3.029,10.584-2.169Z" transform="translate(-20.387 -3.948)" fill="#f37020"/>
  </g>
</svg>
