<?xml version="1.0" encoding="utf-8"?>
<!-- Generator: Adobe Illustrator 25.1.0, SVG Export Plug-In . SVG Version: 6.00 Build 0)  -->
<svg version="1.1" id="Layer_1" xmlns="http://www.w3.org/2000/svg" xmlns:xlink="http://www.w3.org/1999/xlink" x="0px" y="0px"
	 width="85.7px" height="67.8px" viewBox="0 0 85.7 67.8" style="enable-background:new 0 0 85.7 67.8;" xml:space="preserve">
<style type="text/css">
	.st0{fill:none;stroke:#333E63;stroke-width:2;stroke-miterlimit:10;}
	.st1{fill:#F37020;}
	.st2{fill:none;stroke:#F37020;stroke-width:2;stroke-miterlimit:10;}
</style>
<g id="Instant-Confirmation" transform="translate(-447.566 -546.758)">
	<path id="Path_3671" class="st0" d="M522.9,589.1V604h-70v-45.1c0-1.2,1-2.2,2.2-2.2h52.8"/>
	<path id="Rectangle_1109" class="st0" d="M448.6,604h78.6c0,5.2-4.3,9.5-9.5,9.5h-59.7C452.8,613.5,448.6,609.3,448.6,604
		L448.6,604z"/>
	<path id="Path_3672" class="st0" d="M518.7,589.2V604h-61.4v-42.8h50.6"/>
	<circle id="Ellipse_1816" class="st0" cx="486.7" cy="582.4" r="12"/>
	<g id="Group_1295">
		<path id="Path_3673" class="st1" d="M481.4,582.8c-0.2-0.2-0.2-0.6,0-0.8c0,0,0,0,0,0l0,0l0.8-0.8c0.2-0.2,0.6-0.2,0.8,0
			c0,0,0,0,0,0l0,0l2.4,2.4l5.1-5.2c0.2-0.2,0.6-0.2,0.8,0l0,0l0.8,0.8c0.2,0.2,0.2,0.6,0,0.8l0,0l-6.3,6.3c-0.2,0.2-0.6,0.2-0.8,0
			c0,0,0,0,0,0l0,0L481.4,582.8z"/>
	</g>
	<path id="Rectangle_1110" class="st2" d="M510,547.8h20.2c1.2,0,2.1,0.9,2.1,2.1v37.2c0,1.2-0.9,2.1-2.1,2.1H510
		c-1.2,0-2.1-0.9-2.1-2.1v-37.2C507.9,548.7,508.8,547.8,510,547.8z"/>
	<line id="Line_190" class="st2" x1="507.9" y1="582.5" x2="532.3" y2="582.5"/>
	<line id="Line_191" class="st2" x1="507.9" y1="553.9" x2="532.3" y2="553.9"/>
	<ellipse id="Ellipse_1820" class="st1" cx="520.1" cy="585.8" rx="1.5" ry="1.5"/>
	<g id="Group_1296">
		<line id="Line_192" class="st2" x1="516.1" y1="550.7" x2="521.3" y2="550.7"/>
		<line id="Line_193" class="st2" x1="522.5" y1="550.7" x2="524.1" y2="550.7"/>
	</g>
	<circle id="Ellipse_1821" class="st2" cx="520.6" cy="568.2" r="5.1"/>
	<g id="Group_1297">
		<path id="Path_3674" class="st1" d="M518.3,568.4c-0.1-0.1-0.1-0.2,0-0.3c0,0,0,0,0,0l0,0l0.3-0.3c0.1-0.1,0.2-0.1,0.3,0l1,1
			l2.2-2.2c0.1-0.1,0.2-0.1,0.3,0l0.3,0.3c0.1,0.1,0.1,0.2,0,0.3l-2.7,2.7c-0.1,0.1-0.2,0.1-0.3,0l0,0L518.3,568.4z"/>
	</g>
</g>
</svg>
