<?xml version="1.0" encoding="utf-8"?>
<!-- Generator: Adobe Illustrator 25.1.0, SVG Export Plug-In . SVG Version: 6.00 Build 0)  -->
<svg version="1.1" id="Layer_1" xmlns="http://www.w3.org/2000/svg" xmlns:xlink="http://www.w3.org/1999/xlink" x="0px" y="0px"
	 width="73.8px" height="73.3px" viewBox="0 0 73.8 73.3" style="enable-background:new 0 0 73.8 73.3;" xml:space="preserve">
<style type="text/css">
	.st0{fill:none;stroke:#333E63;stroke-width:2;stroke-miterlimit:10;}
	.st1{fill:#F37020;}
	.st2{fill:#F37020;stroke:#F37020;}
</style>
<g id="Inter-operability" transform="translate(-621.876 -544)">
	<path id="Path_4265" class="st0" d="M671,574.7h6.5l4.3-4.3h7.5"/>
	<circle id="Ellipse_1849" class="st1" cx="691.9" cy="570.4" r="3.3"/>
	<path id="Path_4266" class="st0" d="M671,586.6h6.5l4.3,4.3h7.5"/>
	<circle id="Ellipse_1850" class="st2" cx="691.9" cy="590.9" r="3.3"/>
	<line id="Line_252" class="st0" x1="671.1" y1="580.6" x2="678.6" y2="580.6"/>
	<circle id="Ellipse_1851" class="st1" cx="681.2" cy="580.6" r="3.3"/>
	<path id="Path_4267" class="st0" d="M646.1,574.7h-6.5l-4.3-4.3h-7.5"/>
	<circle id="Ellipse_1852" class="st1" cx="625.2" cy="570.4" r="3.3"/>
	<path id="Path_4268" class="st0" d="M646.1,586.6h-6.5l-4.3,4.3h-7.5"/>
	<circle id="Ellipse_1853" class="st1" cx="625.2" cy="590.9" r="3.3"/>
	<line id="Line_253" class="st0" x1="646" y1="580.6" x2="638.4" y2="580.6"/>
	<circle id="Ellipse_1854" class="st1" cx="635.9" cy="580.6" r="3.3"/>
	<path id="Path_4269" class="st0" d="M652.6,568.2v-6.5l-4.3-4.3v-7.5"/>
	<circle id="Ellipse_1855" class="st1" cx="648.3" cy="547.3" r="3.3"/>
	<path id="Path_4270" class="st0" d="M664.4,568.2v-6.5l4.3-4.3v-7.5"/>
	<circle id="Ellipse_1856" class="st1" cx="668.8" cy="547.3" r="3.3"/>
	<line id="Line_254" class="st0" x1="658.5" y1="568.1" x2="658.5" y2="560.6"/>
	<circle id="Ellipse_1857" class="st1" cx="658.5" cy="558" r="3.3"/>
	<path id="Path_4271" class="st0" d="M652.6,593.1v6.5l-4.3,4.3v7.5"/>
	<circle id="Ellipse_1858" class="st1" cx="648.3" cy="614" r="3.3"/>
	<path id="Path_4272" class="st0" d="M664.4,593.1v6.5l4.3,4.3v7.5"/>
	<circle id="Ellipse_1859" class="st1" cx="668.8" cy="614" r="3.3"/>
	<line id="Line_255" class="st0" x1="658.5" y1="593.2" x2="658.5" y2="600.7"/>
	<circle id="Ellipse_1860" class="st1" cx="658.5" cy="603.3" r="3.3"/>
	<rect id="Rectangle_11218" x="646" y="568.1" class="st0" width="25" height="25"/>
</g>
</svg>
