<?xml version="1.0" encoding="utf-8"?>
<!-- Generator: Adobe Illustrator 25.1.0, SVG Export Plug-In . SVG Version: 6.00 Build 0)  -->
<svg version="1.1" id="Layer_1" xmlns="http://www.w3.org/2000/svg" xmlns:xlink="http://www.w3.org/1999/xlink" x="0px" y="0px"
	 width="71.8px" height="67.8px" viewBox="0 0 71.8 67.8" style="enable-background:new 0 0 71.8 67.8;" xml:space="preserve">
<style type="text/css">
	.st0{fill:none;stroke:#333E63;stroke-width:2;stroke-miterlimit:10;}
	.st1{fill:#333E63;}
	.st2{fill:#F37020;}
	.st3{fill:none;stroke:#F37020;stroke-width:2;stroke-miterlimit:10;}
</style>
<g id="Integration" transform="translate(-286.435 -546.758)">
	<path id="Path_3669" class="st0" d="M337.2,597.8h16.5c1.9,0,3.5-1.6,3.5-3.5v-43c0-1.9-1.6-3.5-3.5-3.5h-62.8
		c-1.9,0-3.5,1.6-3.5,3.5v43c0,1.9,1.6,3.5,3.5,3.5h16.2"/>
	<line id="Line_189" class="st0" x1="357.2" y1="558.9" x2="287.4" y2="558.9"/>
	<circle id="Ellipse_1809" class="st1" cx="291.7" cy="553.8" r="1.2"/>
	<circle id="Ellipse_1810" class="st1" cx="295.3" cy="553.8" r="1.2"/>
	<circle id="Ellipse_1811" class="st1" cx="299" cy="553.8" r="1.2"/>
	<circle id="Ellipse_1812" class="st2" cx="319.7" cy="591" r="0.9"/>
	<circle id="Ellipse_1813" class="st2" cx="322.3" cy="591" r="1"/>
	<circle id="Ellipse_1814" class="st2" cx="325" cy="591" r="0.9"/>
	<circle id="Ellipse_1815" class="st3" cx="322.3" cy="591" r="9"/>
	<path id="Path_3670" class="st3" d="M344.8,593.5c0,0.5-0.3,0.9-0.8,1l-4.9,1.2c-0.8,0.2-1.5,0.8-1.8,1.6c-0.3,0.8-0.3,1.6,0.2,2.3
		l2.6,4.3c0.2,0.4,0.2,0.9-0.2,1.2l-3.5,3.5c-0.3,0.3-0.8,0.4-1.2,0.2l-4.3-2.6c-1.3-0.7-2.9-0.3-3.7,1c0,0,0,0,0,0
		c-0.1,0.2-0.2,0.4-0.3,0.6l-1.2,4.8c-0.1,0.5-0.5,0.8-1,0.8h-5c-0.5,0-0.9-0.3-1-0.8l-1.2-4.8c-0.2-0.8-0.8-1.5-1.6-1.8
		c-0.3-0.1-0.7-0.2-1-0.2c-0.5,0-0.9,0.1-1.3,0.4l-4.3,2.6c-0.4,0.2-0.9,0.2-1.2-0.2l-3.5-3.5c-0.3-0.3-0.4-0.8-0.2-1.2l2.6-4.3
		c0.7-1.3,0.3-2.9-1-3.7c-0.2-0.1-0.4-0.2-0.6-0.3l-4.9-1.2c-0.5-0.1-0.8-0.5-0.8-1v-5c0-0.5,0.3-0.9,0.8-1l4.9-1.2
		c0.8-0.2,1.5-0.8,1.8-1.6c0.3-0.8,0.3-1.6-0.2-2.3l-2.6-4.3c-0.2-0.4-0.2-0.9,0.2-1.2l3.5-3.5c0.3-0.3,0.8-0.4,1.2-0.2l4.3,2.6
		c1.3,0.7,2.9,0.3,3.7-1c0,0,0,0,0,0l0,0c0.1-0.2,0.2-0.4,0.3-0.6l1.2-4.8c0.1-0.5,0.5-0.8,1-0.8h5c0.5,0,0.9,0.3,1,0.8l1.2,4.8
		c0.2,0.8,0.8,1.5,1.6,1.8c0.8,0.3,1.6,0.3,2.3-0.2l4.3-2.6c0.4-0.2,0.9-0.2,1.2,0.2l3.5,3.5c0.3,0.3,0.4,0.8,0.2,1.2l-2.6,4.3
		c-0.7,1.3-0.3,2.9,1,3.7c0.2,0.1,0.4,0.2,0.6,0.3l4.9,1.2c0.5,0.1,0.8,0.5,0.8,1L344.8,593.5z"/>
</g>
</svg>
