<?xml version="1.0" encoding="utf-8"?>
<!-- Generator: Adobe Illustrator 25.2.0, SVG Export Plug-In . SVG Version: 6.00 Build 0)  -->
<svg version="1.1" id="Layer_1" xmlns="http://www.w3.org/2000/svg" xmlns:xlink="http://www.w3.org/1999/xlink" x="0px" y="0px"
	 width="64.4px" height="50.8px" viewBox="0 0 64.4 50.8" style="enable-background:new 0 0 64.4 50.8;" xml:space="preserve">
<style type="text/css">
	.st0{fill:none;stroke:#333E63;stroke-width:2;stroke-miterlimit:10;}
	.st1{fill:none;stroke:#F37020;stroke-width:2;stroke-miterlimit:10;}
</style>
<g id="Layer_2_1_">
	<g id="Layer_2-2">
		<path class="st0" d="M49.3,28.4c4.4,0,8-3.6,8-8c0-4.4-3.5-8-8-8c-2.2,0-4.2,0.8-5.7,2.4c-1.5,1.5-2.4,3.5-2.3,5.7
			C41.3,24.8,44.9,28.4,49.3,28.4L49.3,28.4z"/>
		<path class="st0" d="M49.5,35.2L49.5,35.2c0.8,0,1.5-0.1,2.2-0.3c0.6-0.2,1.2-0.4,1.8-0.8l1.4-0.9c0.4-0.3,0.8-0.5,1.3-0.5
			c0.8,0,1.6,0.1,2.4,0.4c0.7,0.3,1.3,0.7,1.9,1.2c0.5,0.5,1,1.1,1.3,1.8c0.4,0.6,0.6,1.3,0.8,2c0.2,0.7,0.4,1.3,0.5,2
			c0.1,0.7,0.2,1.4,0.3,2.1c0.1,0.6,0.1,1.3,0.1,2c0.1,1.6-0.5,3.1-1.6,4.2c-1.2,1.1-2.7,1.6-4.3,1.5h-16"/>
		<path class="st0" d="M14.7,28.4c2.1,0,4.2-0.8,5.7-2.4c1.5-1.5,2.4-3.5,2.4-5.7c0-2.1-0.8-4.2-2.4-5.7c-1.5-1.5-3.5-2.4-5.7-2.4
			c-2.1,0-4.2,0.8-5.7,2.4c-1.5,1.5-2.4,3.5-2.3,5.7c0,2.1,0.8,4.2,2.3,5.7C10.5,27.6,12.5,28.5,14.7,28.4z"/>
		<path class="st0" d="M22.9,49.8h-16c-1.6,0.1-3.1-0.5-4.2-1.5c-1.1-1.1-1.7-2.6-1.7-4.2c0-0.7,0-1.3,0.1-2s0.1-1.3,0.3-2.1
			c0.1-0.7,0.3-1.4,0.5-2.1c0.2-0.7,0.5-1.4,0.9-2c0.3-0.6,0.8-1.2,1.3-1.7c0.6-0.5,1.2-0.9,1.9-1.2c0.8-0.3,1.6-0.4,2.4-0.4
			c0.5,0.1,0.9,0.2,1.3,0.5c0.4,0.3,0.9,0.5,1.4,0.9c0.6,0.3,1.2,0.6,1.8,0.8c0.7,0.2,1.4,0.3,2.1,0.3H15"/>
		<path class="st1" d="M31.9,21.9c2.8,0,5.5-1.1,7.4-3.1c2-1.9,3.1-4.6,3.1-7.4c0-2.8-1.1-5.5-3.1-7.4C35.3,0,28.6,0,24.5,4.1
			c-2,1.9-3.1,4.6-3.1,7.4c0,2.8,1.1,5.5,3.1,7.4C26.5,20.8,29.2,22,31.9,21.9z"/>
		<path class="st1" d="M50.2,39.8C50.2,39,50.1,38,49.9,37c-0.2-0.9-0.4-1.9-0.7-2.8c-0.3-0.9-0.7-1.8-1.1-2.6
			c-0.5-0.8-1-1.6-1.7-2.2c-0.7-0.6-1.6-1.2-2.5-1.5c-1-0.4-2.1-0.6-3.1-0.6c-0.6,0.1-1.2,0.3-1.7,0.7l-1.8,1.1
			c-0.7,0.4-1.5,0.8-2.3,1c-1.8,0.6-3.8,0.6-5.6,0c-0.8-0.2-1.6-0.6-2.3-1l-1.8-1.2c-0.5-0.4-1.1-0.7-1.7-0.7
			c-1.1,0-2.1,0.2-3.1,0.6c-0.9,0.4-1.7,0.9-2.5,1.5c-0.7,0.7-1.3,1.4-1.7,2.2c-0.5,0.8-0.8,1.7-1.1,2.6c-0.3,0.9-0.5,1.8-0.7,2.8
			c-0.2,0.9-0.3,1.8-0.4,2.8c-0.1,0.8-0.1,1.7-0.1,2.6c-0.1,2,0.7,4,2.1,5.5c1.5,1.4,3.5,2.1,5.5,2h20.9c2,0.1,4-0.6,5.5-2
			c1.5-1.4,2.2-3.4,2.1-5.5C50.3,41.5,50.3,40.6,50.2,39.8z"/>
	</g>
</g>
</svg>
