<?xml version="1.0" encoding="utf-8"?>
<!-- Generator: Adobe Illustrator 25.2.0, SVG Export Plug-In . SVG Version: 6.00 Build 0)  -->
<svg version="1.1" id="Layer_1" xmlns="http://www.w3.org/2000/svg" xmlns:xlink="http://www.w3.org/1999/xlink" x="0px" y="0px"
	 width="54.7px" height="71.3px" viewBox="0 0 54.7 71.3" style="enable-background:new 0 0 54.7 71.3;" xml:space="preserve">
<style type="text/css">
	.st0{fill:none;stroke:#F37020;stroke-width:2;stroke-miterlimit:10;}
	.st1{fill:none;stroke:#333E63;stroke-width:2;stroke-miterlimit:10;}
	.st2{fill:#F37020;}
</style>
<g id="Layer_2_1_">
	<g id="Layer_3">
		<path class="st0" d="M42.3,54.5c10.2-6.6,13.2-20.2,6.6-30.4s-20.2-13.2-30.4-6.6S5.3,37.7,11.9,47.9c1.7,2.6,4,4.9,6.6,6.6"/>
		<path class="st1" d="M53.3,7.3H30.4C14.2,7.3,1,20.5,1.1,36.7c0,9.9,5.1,19.2,13.4,24.6"/>
		<polygon class="st0" points="30,65.5 28.3,59.3 30,53.1 31.7,59.3 		"/>
		<circle class="st2" cx="27.3" cy="36.9" r="1"/>
		<circle class="st2" cx="33.5" cy="36.9" r="1"/>
		<path class="st2" d="M29.3,43.2h2.1c0.6,0,1-0.5,1-1c0-0.6-0.5-1-1-1h-2.1c-0.6,0-1,0.5-1,1C28.3,42.7,28.8,43.2,29.3,43.2z"/>
		<path class="st1" d="M22.6,40.2h-1.2c-0.8,0-1.5-0.7-1.5-1.5l0,0v-4.9c0-5.8,4.7-10.4,10.5-10.5l0,0c5.8,0,10.4,4.7,10.5,10.5v4.9
			c0,0.8-0.7,1.5-1.5,1.5l0,0h-1.6"/>
		<path class="st1" d="M19.9,33.8L36.1,33c0.9,0,1.8,0.7,1.8,1.6c0,0,0,0.1,0,0.1v3.8c0,4.1-3.4,7.5-7.5,7.5l0,0
			c-4.2,0-7.5-3.4-7.5-7.5v-4.6"/>
		<path class="st1" d="M42.8,70.3V57.1c0-3.8-3.1-6.9-6.9-6.9H24.9c-3.8,0-6.8,3.1-6.9,6.9v13.2H42.8z"/>
		<line class="st0" x1="30.4" y1="14" x2="30.4" y2="17.8"/>
		<line class="st0" x1="48.3" y1="36.4" x2="52" y2="36.4"/>
		<line class="st0" x1="8.9" y1="36.4" x2="12.6" y2="36.4"/>
		<polyline class="st1" points="46.8,13.8 53.3,7.3 46.8,0.7 		"/>
	</g>
</g>
</svg>
