<svg xmlns="http://www.w3.org/2000/svg" width="50.889" height="50.884" viewBox="0 0 50.889 50.884">
  <path id="Path_430" data-name="Path 430" d="M391.43-157.363a25.789,25.789,0,0,1,20.17,1.83,25.077,25.077,0,0,1,13.21,22.68c.28,11.83-9.16,22.79-20.76,24.67a25.268,25.268,0,0,1-23.15-7.57,25.175,25.175,0,0,1-6.48-22.27A25.51,25.51,0,0,1,391.43-157.363Zm-3.24,15.85c3.84,3.38,7.83,6.58,11.75,9.86,3.95-3.25,7.88-6.51,11.77-9.83C403.87-141.523,396.03-141.473,388.19-141.513Zm-1.35,1.16c0,5.46-.01,10.92,0,16.38,8.71.04,17.42.02,26.13.01-.1-5.46.26-10.93-.09-16.39-4.21,3.75-8.6,7.3-12.92,10.91C395.54-133.033,391.24-136.743,386.84-140.353Z" transform="translate(-373.944 158.606)" fill="#333e63"/>
</svg>
