<svg xmlns="http://www.w3.org/2000/svg" viewBox="0 0 14 14"><defs><style>.cls-1{fill:#333e63;}</style></defs><g id="Layer_2" data-name="Layer 2"><g id="Layer_1-2" data-name="Layer 1"><path class="cls-1" d="M11.81,7.39l-.41-.51a.33.33,0,0,0-.46,0L9,8.38c-.5.4-1.36,1.25-2,1.25S5.47,8.77,5,8.38L3.06,6.84a.33.33,0,0,0-.46,0l-.41.51a.33.33,0,0,0,.05.47L4.17,9.41c.61.48,1.64,1.53,2.83,1.53s2.2-1,2.83-1.53l1.94-1.55A.33.33,0,0,0,11.81,7.39Zm.88,5.13a.18.18,0,0,1-.17.17h-11a.18.18,0,0,1-.17-.17V5.59a.16.16,0,0,1,.06-.13L5,2.55c.5-.39,1.36-1.24,2-1.24s1.53.86,2,1.24l3.62,2.91a.2.2,0,0,1,.06.13h0Zm.83-8c-.12-.11-3-2.46-3.69-3S8.19,0,7,0,4.8,1,4.17,1.53.59,4.4.48,4.5a1.45,1.45,0,0,0-.48,1v7.18A1.31,1.31,0,0,0,1.31,14H12.69A1.31,1.31,0,0,0,14,12.69V5.51A1.47,1.47,0,0,0,13.52,4.5Z"/></g></g></svg>