<?xml version="1.0" encoding="utf-8"?>
<!-- Generator: Adobe Illustrator 25.1.0, SVG Export Plug-In . SVG Version: 6.00 Build 0)  -->
<svg version="1.1" id="Layer_1" xmlns="http://www.w3.org/2000/svg" xmlns:xlink="http://www.w3.org/1999/xlink" x="0px" y="0px"
	 width="74.1px" height="68.6px" viewBox="0 0 74.1 68.6" style="enable-background:new 0 0 74.1 68.6;" xml:space="preserve">
<style type="text/css">
	.st0{fill:none;stroke:#F37020;stroke-width:2;stroke-miterlimit:10;}
	.st1{fill:none;stroke:#333E63;stroke-width:2;stroke-miterlimit:10;}
	.st2{fill:none;stroke:#F37020;stroke-width:2.0002;stroke-miterlimit:10.0012;}
	.st3{fill:none;stroke:#333E63;stroke-width:2.0002;stroke-miterlimit:10.0012;}
	.st4{fill:#F37020;}
</style>
<g id="Maximum-Payment" transform="translate(-105.402 -102.833)">
	<g id="Group_14647">
		<path id="Path_4215" class="st0" d="M150.9,119.2h-30.1v-7.4h57.7v7.4h-14.7"/>
		<path id="Path_4216" class="st1" d="M120.8,127.2v-20.7c0-1.5,1.2-2.7,2.7-2.7h52.4c1.5,0,2.7,1.2,2.7,2.7v35.2
			c0,1.5-1.2,2.7-2.7,2.7h-5.3"/>
	</g>
	
		<rect id="Rectangle_11215" x="108.7" y="131.1" transform="matrix(0.9659 -0.259 0.259 0.9659 -30.2112 40.2078)" class="st2" width="57.7" height="7.4"/>
	<path id="Rectangle_11216" class="st3" d="M109.2,130.3l50.6-13.6c1.4-0.4,2.9,0.5,3.3,1.9l9.1,34c0.4,1.4-0.5,2.9-1.9,3.3
		l-50.6,13.6c-1.4,0.4-2.9-0.5-3.3-1.9l-9.1-34C106.9,132.2,107.8,130.7,109.2,130.3z"/>
	<path id="Rectangle_11217" class="st4" d="M119.8,157.3l4.3-1.2c0.8-0.2,1.6,0.3,1.8,1l1.2,4.3c0.2,0.8-0.3,1.6-1,1.8l-4.3,1.2
		c-0.8,0.2-1.6-0.3-1.8-1l-1.2-4.3C118.5,158.3,119,157.5,119.8,157.3z"/>
</g>
</svg>
