<svg xmlns="http://www.w3.org/2000/svg" width="98.682" height="98.673" viewBox="0 0 98.682 98.673">
  <g id="Group_1174" data-name="Group 1174" transform="translate(1 1.952)">
    <path id="Path_1579" data-name="Path 1579" d="M-375.663-183.07" transform="translate(425.447 211.29)" fill="none" stroke="#f37020" stroke-miterlimit="10" stroke-width="2"/>
    <path id="Path_1580" data-name="Path 1580" d="M-308.479-159.376a41.918,41.918,0,0,1,2.211,13.48,41.92,41.92,0,0,1-41.921,41.928A41.928,41.928,0,0,1-390.118-145.9a41.929,41.929,0,0,1,41.928-41.921,41.907,41.907,0,0,1,13.294,2.153" transform="translate(390.118 199.688)" fill="none" stroke="#f37020" stroke-miterlimit="10" stroke-width="2"/>
    <path id="Path_1581" data-name="Path 1581" d="M-370.517-177.92" transform="translate(438.025 223.877)" fill="none" stroke="#f37020" stroke-miterlimit="10" stroke-width="2"/>
    <path id="Path_1582" data-name="Path 1582" d="M-364.884-179.293a13.6,13.6,0,0,0-3.22-.375,13.861,13.861,0,0,0-13.866,13.856A13.864,13.864,0,0,0-368.1-151.947a13.862,13.862,0,0,0,13.856-13.866,14.035,14.035,0,0,0-.327-3.017" transform="translate(410.033 219.605)" fill="none" stroke="#f37020" stroke-miterlimit="10" stroke-width="2"/>
    <path id="Path_1583" data-name="Path 1583" d="M-333.379-164.5a26.4,26.4,0,0,1,1.174,7.835,26.757,26.757,0,0,1-26.754,26.754,26.75,26.75,0,0,1-26.754-26.754,26.748,26.748,0,0,1,26.754-26.743,26.652,26.652,0,0,1,7.856,1.171" transform="translate(400.887 210.459)" fill="none" stroke="#f37020" stroke-miterlimit="10" stroke-width="2"/>
    <path id="Path_1584" data-name="Path 1584" d="M-356.6-158.6l-.513-14.845,17.818-17.818,3.1,12.257-41.839,41.84" transform="translate(419.664 191.264)" fill="none" stroke="#f37020" stroke-miterlimit="10" stroke-width="2"/>
    <path id="Path_1585" data-name="Path 1585" d="M-356.6-167.3l14.845.513,17.818-17.818-12.257-3.1-41.839,41.84" transform="translate(419.664 199.962)" fill="none" stroke="#f37020" stroke-miterlimit="10" stroke-width="2"/>
  </g>
</svg>
