<?xml version="1.0" encoding="utf-8"?>
<!-- Generator: Adobe Illustrator 25.1.0, SVG Export Plug-In . SVG Version: 6.00 Build 0)  -->
<svg version="1.1" id="Layer_1" xmlns="http://www.w3.org/2000/svg" xmlns:xlink="http://www.w3.org/1999/xlink" x="0px" y="0px"
	 width="66.3px" height="69px" viewBox="0 0 66.3 69" style="enable-background:new 0 0 66.3 69;" xml:space="preserve">
<style type="text/css">
	.st0{fill:#F37020;}
	.st1{fill:none;stroke:#F37020;stroke-width:2;stroke-miterlimit:10;}
	.st2{fill:none;stroke:#333E63;stroke-width:2;stroke-miterlimit:10;}
</style>
<g id="Multiple-Currency_" transform="translate(-266.5 -102.218)">
	<g id="twitter_G_">
		<path id="Path_4217" class="st0" d="M315.9,117.1c1.1,0,2.2,0.5,3,1.4l1.7-1.6c-1.2-1.4-3-2.2-4.9-2.1c-2.8-0.1-5.3,1.6-6.1,4.2
			h-1.9v1.4h1.7c0,0.1,0,0.3,0,0.4c0,0.1,0,0.3,0,0.4h-1.6v1.4h1.9c0.9,2.6,3.4,4.3,6.1,4.2c1.9,0.1,3.6-0.7,4.9-2.1l-1.7-1.6
			c-0.7,0.9-1.8,1.4-3,1.4c-1.4,0.1-2.7-0.7-3.3-1.9h4.3v-1.4h-4.7c0-0.1,0-0.3,0-0.4c0-0.1,0-0.3,0-0.4h4.7V119h-4.3
			C313.2,117.8,314.5,117.1,315.9,117.1z"/>
	</g>
	<path id="Path_4218" class="st1" d="M270.3,122.1c0-9.8,7.9-17.7,17.7-17.7c0,0,0,0,0,0"/>
	<path id="Path_4219" class="st2" d="M276.5,137.9c-8.1,5.5-10.2,16.5-4.7,24.5c5.5,8.1,16.5,10.2,24.5,4.7c1.9-1.3,3.5-2.9,4.7-4.7
		"/>
	<circle id="Ellipse_1826" class="st2" cx="291.1" cy="147.8" r="17.7"/>
	<circle id="Ellipse_1827" class="st2" cx="314.2" cy="120.9" r="17.7"/>
	<path id="Path_4220" class="st0" d="M270.3,128l3.8-6.6h-7.6L270.3,128z"/>
	<path id="Path_4221" class="st0" d="M287,150.6l-0.9,2.1c1.3,0.9,2.8,1.3,4.4,1.4v1.9h1.7V154c2.7-0.3,4-1.9,4-3.7
		c0-2.4-2.1-3.1-4-3.6v-2.9c0.9,0.1,1.8,0.4,2.7,0.9l0.9-2.1c-1.1-0.6-2.3-1-3.6-1.1v-1.9h-1.7v1.9c-2.7,0.3-4.1,1.9-4.1,3.7
		c0,2.5,2.2,3.1,4.1,3.6v2.9C289.2,151.7,288.1,151.2,287,150.6z M292.1,149.4c0.7,0.3,1.3,0.6,1.3,1.2s-0.4,1-1.3,1.2V149.4z
		 M289.1,145.1c0-0.6,0.4-1.1,1.3-1.3v2.5C289.6,146.1,289.1,145.8,289.1,145.1L289.1,145.1z"/>
</g>
</svg>
