<?xml version="1.0" encoding="utf-8"?>
<!-- Generator: Adobe Illustrator 25.1.0, SVG Export Plug-In . SVG Version: 6.00 Build 0)  -->
<svg version="1.1" id="Layer_1" xmlns="http://www.w3.org/2000/svg" xmlns:xlink="http://www.w3.org/1999/xlink" x="0px" y="0px"
	 width="59.7px" height="67.8px" viewBox="0 0 59.7 67.8" style="enable-background:new 0 0 59.7 67.8;" xml:space="preserve">
<style type="text/css">
	.st0{fill:none;stroke:#333E63;stroke-width:2;stroke-miterlimit:10;}
	.st1{fill:none;stroke:#333E63;stroke-width:2;stroke-linecap:round;stroke-miterlimit:10;}
	.st2{fill:none;stroke:#F37020;stroke-width:2;stroke-linecap:round;stroke-miterlimit:10;}
	.st3{fill:none;stroke:#F37020;stroke-width:2;stroke-miterlimit:10;}
	.st4{fill:#F37020;}
</style>
<g id="Multiple-Payment" transform="translate(-124.359 -546.758)">
	<path id="Path_3675" class="st0" d="M158,571.4v38.8c0,1.8-1.5,3.3-3.3,3.3h-26c-1.8,0-3.3-1.5-3.3-3.3V561c0-1.8,1.5-3.3,3.3-3.3
		h19.9"/>
	<line id="Line_194" class="st0" x1="125.4" y1="565" x2="148.7" y2="565"/>
	<line id="Line_195" class="st0" x1="125.4" y1="604.9" x2="158" y2="604.9"/>
	<line id="Line_196" class="st1" x1="137.4" y1="609.3" x2="145.5" y2="609.3"/>
	<g id="Group_14695">
		<line id="Line_197" class="st2" x1="152.5" y1="563" x2="158.7" y2="563"/>
		<line id="Line_198" class="st2" x1="162.8" y1="563" x2="168.9" y2="563"/>
		<line id="Line_199" class="st2" x1="173" y1="563" x2="179.2" y2="563"/>
	</g>
	<path id="Rectangle_1111" class="st3" d="M152.4,547.8h26.9c2.1,0,3.8,1.7,3.8,3.8v16c0,2.1-1.7,3.8-3.8,3.8h-26.9
		c-2.1,0-3.8-1.7-3.8-3.8v-16C148.6,549.5,150.3,547.8,152.4,547.8z"/>
	<line id="Line_200" class="st3" x1="148.6" y1="553.9" x2="183.1" y2="553.9"/>
	<path id="Path_3676" class="st0" d="M177,571.4v26.2c0,1.6-1.3,2.9-2.9,2.9h0H158"/>
	<line id="Line_202" class="st0" x1="158" y1="575.7" x2="177" y2="575.7"/>
	<line id="Line_203" class="st0" x1="158" y1="591.3" x2="177" y2="591.3"/>
	<path id="Path_3677" class="st0" d="M177,582v1.9c0,1.5-1.2,2.8-2.8,2.8H158"/>
	<circle id="Ellipse_1822" class="st0" cx="141.1" cy="584.7" r="8.1"/>
	<path id="Path_3678" class="st4" d="M137.5,584.9c-0.1-0.1-0.1-0.4,0-0.5c0,0,0,0,0,0l0.5-0.5c0.1-0.1,0.4-0.1,0.5,0c0,0,0,0,0,0
		l0,0l1.6,1.6l3.5-3.5c0.1-0.1,0.4-0.1,0.5,0c0,0,0,0,0,0l0,0l0.5,0.5c0.1,0.1,0.1,0.4,0,0.5c0,0,0,0,0,0l0,0l-4.2,4.2
		c-0.1,0.1-0.4,0.1-0.5,0c0,0,0,0,0,0L137.5,584.9z"/>
</g>
</svg>
