<svg xmlns="http://www.w3.org/2000/svg" width="98" height="86.227" viewBox="0 0 98 86.227">
  <g id="Only-Fintech-Company" transform="translate(-1239.684 -86.951)">
    <g id="Group_1127" data-name="Group 1127" transform="translate(1240.877 153.234)">
      <path id="Path_3465" data-name="Path 3465" d="M1309.511,183.046h-64.888a3.573,3.573,0,0,1-3.568-3.569V166.669a3.571,3.571,0,0,1,3.568-3.567h64.888a3.572,3.572,0,0,1,3.57,3.567v12.808A3.574,3.574,0,0,1,1309.511,183.046Zm-64.888-16.511a.141.141,0,0,0-.134.134v12.808a.14.14,0,0,0,.134.135h64.888a.141.141,0,0,0,.136-.135V166.669a.14.14,0,0,0-.136-.134Z" transform="translate(-1241.055 -163.102)" fill="#333e63"/>
    </g>
    <g id="Group_1132" data-name="Group 1132" transform="translate(1246.609 110.239)">
      <g id="Group_1128" data-name="Group 1128">
        <rect id="Rectangle_847" data-name="Rectangle 847" width="3.433" height="44.712" fill="#333e63"/>
      </g>
      <g id="Group_1129" data-name="Group 1129" transform="translate(9.742)">
        <rect id="Rectangle_848" data-name="Rectangle 848" width="3.433" height="44.712" fill="#333e63"/>
      </g>
      <g id="Group_1130" data-name="Group 1130" transform="translate(57.175)">
        <rect id="Rectangle_849" data-name="Rectangle 849" width="3.433" height="44.712" fill="#333e63"/>
      </g>
      <g id="Group_1131" data-name="Group 1131" transform="translate(47.433)">
        <rect id="Rectangle_850" data-name="Rectangle 850" width="3.433" height="44.712" fill="#333e63"/>
      </g>
    </g>
    <g id="Group_1133" data-name="Group 1133" transform="translate(1239.684 86.951)">
      <path id="Path_3466" data-name="Path 3466" d="M1311.565,112.439h-69.3a2.547,2.547,0,0,1-2.249-1.409,2.962,2.962,0,0,1,.187-3.037l14.917-18.1a6.669,6.669,0,0,1,5.443-2.943h32.7A6.763,6.763,0,0,1,1298.79,90l14.753,17.885a3,3,0,0,1,.269,3.145A2.547,2.547,0,0,1,1311.565,112.439ZM1243.81,109h66.213l-13.963-16.927a3.5,3.5,0,0,0-2.795-1.694h-32.7a3.387,3.387,0,0,0-2.712,1.587Z" transform="translate(-1239.684 -86.951)" fill="#333e63"/>
    </g>
    <g id="Group_1134" data-name="Group 1134" transform="translate(1266.105 119.036)">
      <rect id="Rectangle_851" data-name="Rectangle 851" width="29.977" height="3.433" transform="translate(0 23.22) rotate(-50.768)" fill="#f37020"/>
    </g>
    <g id="Group_1135" data-name="Group 1135" transform="translate(1265.258 118.928)">
      <path id="Path_3467" data-name="Path 3467" d="M1273.873,133.306a4.809,4.809,0,1,1,4.81-4.809A4.815,4.815,0,0,1,1273.873,133.306Zm0-6.184a1.376,1.376,0,1,0,1.376,1.375A1.376,1.376,0,0,0,1273.873,127.122Z" transform="translate(-1269.065 -123.689)" fill="#f37020"/>
    </g>
    <g id="Group_1136" data-name="Group 1136" transform="translate(1278.951 135.698)">
      <path id="Path_3468" data-name="Path 3468" d="M1289.607,152.573a4.809,4.809,0,1,1,4.808-4.81A4.815,4.815,0,0,1,1289.607,152.573Zm0-6.185a1.376,1.376,0,1,0,1.374,1.375A1.377,1.377,0,0,0,1289.607,146.388Z" transform="translate(-1284.797 -142.955)" fill="#f37020"/>
    </g>
    <g id="Group_1137" data-name="Group 1137" transform="translate(1312.045 90.472)">
      <path id="Path_3469" data-name="Path 3469" d="M1332.728,172.949h-3.433V106.695h-6.478l12.82-15.7,12.82,15.7h-6.478v43.352l-9.251.181Zm-2.676-69.688h2.676V146.8l5.818-.114V103.262h2.676l-5.585-6.837Z" transform="translate(-1322.817 -90.996)" fill="#f37020"/>
    </g>
  </g>
</svg>
