<svg xmlns="http://www.w3.org/2000/svg" width="74.062" height="73.971" viewBox="0 0 74.062 73.971">
  <g id="Group_14643" data-name="Group 14643" transform="translate(-15.668 -25.667)">
    <path id="Path_881" data-name="Path 881" d="M88.336,48.975v.18A20.964,20.964,0,0,1,51.591,62.948L37.8,47.185a18.181,18.181,0,0,0-20.811-4.768" transform="translate(0.304 13.676)" fill="none" stroke="#f37020" stroke-linecap="round" stroke-linejoin="round" stroke-width="2"/>
    <path id="Path_882" data-name="Path 882" d="M78.1,37.205a35.986,35.986,0,1,1-50.892,0l0,0a35.988,35.988,0,0,1,50.89,0" transform="translate(0 0)" fill="none" stroke="#f37020" stroke-linecap="round" stroke-linejoin="round" stroke-width="2"/>
    <path id="Path_883" data-name="Path 883" d="M88.387,46.8,77.84,41.522a24.593,24.593,0,0,0-28.393,4.613l-10.8,10.8a15,15,0,0,1-14.237,3.94,10.241,10.241,0,0,1-7.746-9.947" transform="translate(0 11.726)" fill="none" stroke="#f37020" stroke-linecap="round" stroke-linejoin="round" stroke-width="2"/>
    <path id="Path_884" data-name="Path 884" d="M86.873,56.154,76.539,50.989a18.441,18.441,0,0,0-21.293,3.455L46.88,62.812a16.435,16.435,0,0,1-21.611,1.1,24.086,24.086,0,0,1-8.6-18.44v-.411" transform="translate(0 17.592)" fill="none" stroke="#f37020" stroke-linecap="round" stroke-linejoin="round" stroke-width="2"/>
  </g>
</svg>
