<svg xmlns="http://www.w3.org/2000/svg" width="37.316" height="45.835" viewBox="0 0 37.316 45.835">
  <g id="pdf-file" transform="translate(-44.806)" opacity="0.5">
    <path id="Path_2018" data-name="Path 2018" d="M120.766,298.627c0-.761-.528-1.215-1.46-1.215a3.232,3.232,0,0,0-.773.073v2.442a2.93,2.93,0,0,0,.626.048C120.153,299.976,120.766,299.474,120.766,298.627Z" transform="translate(-66.718 -269.138)" fill="#ff0404"/>
    <path id="Path_2019" data-name="Path 2019" d="M194.651,297.681a3.856,3.856,0,0,0-.847.073v5.409a3.382,3.382,0,0,0,.65.037,2.563,2.563,0,0,0,2.8-2.895A2.372,2.372,0,0,0,194.651,297.681Z" transform="translate(-134.833 -269.382)" fill="#ff0404"/>
    <path id="Path_2020" data-name="Path 2020" d="M70.536,0H52.127a4.885,4.885,0,0,0-4.878,4.878V22.917h-.476a1.966,1.966,0,0,0-1.966,1.966V36.8a1.965,1.965,0,0,0,1.966,1.966h.476v2.186a4.884,4.884,0,0,0,4.878,4.878H77.245a4.883,4.883,0,0,0,4.877-4.878V11.546ZM49.963,27.035a15.409,15.409,0,0,1,2.527-.171,3.964,3.964,0,0,1,2.527.662A2.417,2.417,0,0,1,55.9,29.44a2.643,2.643,0,0,1-.76,1.963,3.835,3.835,0,0,1-2.686.871,4.842,4.842,0,0,1-.638-.036v2.956H49.963ZM77.245,42.847H52.127a1.892,1.892,0,0,1-1.889-1.891V38.771H73.653A1.965,1.965,0,0,0,75.619,36.8V24.883a1.965,1.965,0,0,0-1.966-1.966H50.237V4.878A1.892,1.892,0,0,1,52.127,2.99l17.292-.018V9.364A3.384,3.384,0,0,0,72.8,12.747l6.261-.018.07,28.227A1.891,1.891,0,0,1,77.245,42.847ZM57.094,35.155V27.035a16.838,16.838,0,0,1,2.527-.171,5.323,5.323,0,0,1,3.386.882,3.659,3.659,0,0,1,1.4,3.116,4.191,4.191,0,0,1-1.374,3.349,5.935,5.935,0,0,1-3.815,1.067A16.184,16.184,0,0,1,57.094,35.155Zm13.388-4.808v1.521H67.513v3.325H65.636V26.925H70.69v1.533H67.513v1.889Z" fill="#ff0404"/>
  </g>
</svg>
