<svg xmlns="http://www.w3.org/2000/svg" width="50.957" height="50.872" viewBox="0 0 50.957 50.872">
  <g id="Group_1073" data-name="Group 1073" transform="translate(-934 -427.078)">
    <path id="Path_426" data-name="Path 426" d="M134.52-158.093a26.388,26.388,0,0,1,14.41,1.13,25.5,25.5,0,0,1,16.44,23.12,25.326,25.326,0,0,1-9.2,20.23,25.338,25.338,0,0,1-21.27,5.36,25.311,25.311,0,0,1-16.45-11.18,25.507,25.507,0,0,1-.63-26.45A25.821,25.821,0,0,1,134.52-158.093Zm-5.35,14.36c-1.76,2.21-.58,5.2.56,7.41,3.68,6.54,8.97,12.39,15.73,15.82,3.56,1.41,7.25-1.55,9.11-4.43a13.179,13.179,0,0,0-6.62-6.13c-2.13.42-3.17,2.8-4.86,4.02-2.68-1.53-4.66-3.93-6.55-6.31-.74-.95-1.63-1.96-1.28-3.26,1.33-1.56,4.48-2.47,3.51-5.05a14.337,14.337,0,0,0-4.62-5.7C131.92-147.413,130.39-145.343,129.17-143.733Z" transform="translate(819.569 585.663)" fill="#333e63"/>
  </g>
</svg>
