<svg xmlns="http://www.w3.org/2000/svg" width="75.481" height="87.576" viewBox="0 0 75.481 87.576">
  <g id="Publicly-listed" transform="translate(-1633.366 -83.213)">
    <g id="Group_1167" data-name="Group 1167" transform="translate(1655.964 135.269)">
      <g id="Group_1157" data-name="Group 1157" transform="translate(3.849 8.156)">
        <path id="Path_3475" data-name="Path 3475" d="M1670.872,154.761a5.167,5.167,0,0,1-4.86,0,.856.856,0,0,0-.823,1.5,6.874,6.874,0,0,0,6.509,0,.856.856,0,1,0-.825-1.5Z" transform="translate(-1664.746 -154.655)" fill="#f37020"/>
      </g>
      <g id="Group_1158" data-name="Group 1158" transform="translate(5.058 4.554)">
        <path id="Path_3476" data-name="Path 3476" d="M1667.891,151.236a.855.855,0,1,1-.855-.855A.855.855,0,0,1,1667.891,151.236Z" transform="translate(-1666.18 -150.381)" fill="#f37020"/>
      </g>
      <g id="Group_1159" data-name="Group 1159" transform="translate(8.324 4.554)">
        <path id="Path_3477" data-name="Path 3477" d="M1671.766,151.236a.855.855,0,1,1-.855-.855A.855.855,0,0,1,1671.766,151.236Z" transform="translate(-1670.055 -150.381)" fill="#f37020"/>
      </g>
      <g id="Group_1160" data-name="Group 1160" transform="translate(0 0)">
        <path id="Path_3478" data-name="Path 3478" d="M1706.316,158.193a7.133,7.133,0,1,0-7.381,0,10.51,10.51,0,0,0-4.575,3.395h2.295a8.75,8.75,0,0,1,11.669-.255.84.84,0,0,0,1.2-.08.857.857,0,0,0-.08-1.211A10.7,10.7,0,0,0,1706.316,158.193Zm-9.1-6.089a5.412,5.412,0,1,1,5.4,5.419A5.412,5.412,0,0,1,1697.214,152.1Zm-8.337,6.089a7.125,7.125,0,1,0-7.4,0,10.23,10.23,0,0,0-4.559,3.395h2.312a8.672,8.672,0,0,1,11.891,0h2.312A10.412,10.412,0,0,0,1688.877,158.193Zm-9.118-6.089a5.42,5.42,0,1,1,5.419,5.419A5.415,5.415,0,0,1,1679.759,152.1Zm-8.337,6.089a7.126,7.126,0,1,0-7.4,0,10.458,10.458,0,0,0-3.587,2.295.832.832,0,0,0-.1,1.1.292.292,0,0,0,.079.112.872.872,0,0,0,1.212.016,1.018,1.018,0,0,1,.143-.128,8.693,8.693,0,0,1,11.908,0h2.295a7.549,7.549,0,0,0-.876-1.02A10.448,10.448,0,0,0,1671.422,158.193ZM1662.3,152.1a5.42,5.42,0,1,1,5.42,5.419A5.426,5.426,0,0,1,1662.3,152.1Z" transform="translate(-1660.178 -144.978)" fill="#f37020"/>
      </g>
      <g id="Group_1161" data-name="Group 1161" transform="translate(38.749 8.156)">
        <path id="Path_3479" data-name="Path 3479" d="M1712.281,154.761a5.167,5.167,0,0,1-4.86,0,.856.856,0,0,0-.823,1.5,6.874,6.874,0,0,0,6.509,0,.856.856,0,1,0-.825-1.5Z" transform="translate(-1706.155 -154.655)" fill="#f37020"/>
      </g>
      <g id="Group_1162" data-name="Group 1162" transform="translate(39.959 4.554)">
        <path id="Path_3480" data-name="Path 3480" d="M1709.3,151.236a.855.855,0,1,1-.855-.855A.855.855,0,0,1,1709.3,151.236Z" transform="translate(-1707.59 -150.381)" fill="#f37020"/>
      </g>
      <g id="Group_1163" data-name="Group 1163" transform="translate(43.224 4.554)">
        <path id="Path_3481" data-name="Path 3481" d="M1713.175,151.236a.855.855,0,1,1-.855-.855A.855.855,0,0,1,1713.175,151.236Z" transform="translate(-1711.464 -150.381)" fill="#f37020"/>
      </g>
      <g id="Group_1164" data-name="Group 1164" transform="translate(21.299 8.156)">
        <path id="Path_3482" data-name="Path 3482" d="M1691.577,154.761a5.168,5.168,0,0,1-4.861,0,.855.855,0,0,0-.823,1.5,6.874,6.874,0,0,0,6.509,0,.856.856,0,1,0-.825-1.5Z" transform="translate(-1685.45 -154.655)" fill="#f37020"/>
      </g>
      <g id="Group_1165" data-name="Group 1165" transform="translate(22.509 4.554)">
        <path id="Path_3483" data-name="Path 3483" d="M1688.6,151.236a.855.855,0,1,1-.855-.855A.855.855,0,0,1,1688.6,151.236Z" transform="translate(-1686.885 -150.381)" fill="#f37020"/>
      </g>
      <g id="Group_1166" data-name="Group 1166" transform="translate(25.775 4.554)">
        <path id="Path_3484" data-name="Path 3484" d="M1692.471,151.236a.855.855,0,1,1-.855-.855A.855.855,0,0,1,1692.471,151.236Z" transform="translate(-1690.76 -150.381)" fill="#f37020"/>
      </g>
    </g>
    <g id="Group_1139" data-name="Group 1139" transform="translate(1633.366 167.464)">
      <rect id="Rectangle_852" data-name="Rectangle 852" width="75.481" height="3.324" fill="#333e63"/>
    </g>
    <g id="Group_1140" data-name="Group 1140" transform="translate(1639.92 90.123)">
      <path id="Path_3470" data-name="Path 3470" d="M1644.467,170.415h-3.324v-79h49.393v20.71h-3.325V94.737h-42.744Z" transform="translate(-1641.143 -91.412)" fill="#333e63"/>
    </g>
    <g id="Group_1141" data-name="Group 1141" transform="translate(1646.875 83.213)">
      <path id="Path_3471" data-name="Path 3471" d="M1684.877,91.786h-3.324V86.538h-28.834v5.248h-3.324V83.213h35.483Z" transform="translate(-1649.394 -83.213)" fill="#333e63"/>
    </g>
    <g id="Group_1145" data-name="Group 1145" transform="translate(1645.824 97.742)">
      <g id="Group_1142" data-name="Group 1142">
        <rect id="Rectangle_853" data-name="Rectangle 853" width="9.921" height="3.324" fill="#f37020"/>
      </g>
      <g id="Group_1143" data-name="Group 1143" transform="translate(13.832)">
        <rect id="Rectangle_854" data-name="Rectangle 854" width="9.921" height="3.324" fill="#f37020"/>
      </g>
      <g id="Group_1144" data-name="Group 1144" transform="translate(27.662)">
        <rect id="Rectangle_855" data-name="Rectangle 855" width="9.923" height="3.324" fill="#f37020"/>
      </g>
    </g>
    <g id="Group_1152" data-name="Group 1152" transform="translate(1645.824 107.753)">
      <g id="Group_1146" data-name="Group 1146">
        <rect id="Rectangle_856" data-name="Rectangle 856" width="9.921" height="3.324" fill="#f37020"/>
      </g>
      <g id="Group_1147" data-name="Group 1147" transform="translate(0 11.162)">
        <rect id="Rectangle_857" data-name="Rectangle 857" width="1.889" height="3.324" fill="#f37020"/>
      </g>
      <g id="Group_1148" data-name="Group 1148" transform="translate(0 22.193)">
        <rect id="Rectangle_858" data-name="Rectangle 858" width="1.889" height="3.324" fill="#f37020"/>
      </g>
      <g id="Group_1149" data-name="Group 1149" transform="translate(0 33.178)">
        <rect id="Rectangle_859" data-name="Rectangle 859" width="1.889" height="3.324" fill="#f37020"/>
      </g>
      <g id="Group_1150" data-name="Group 1150" transform="translate(13.832)">
        <rect id="Rectangle_860" data-name="Rectangle 860" width="9.921" height="3.324" fill="#f37020"/>
      </g>
      <g id="Group_1151" data-name="Group 1151" transform="translate(27.662)">
        <rect id="Rectangle_861" data-name="Rectangle 861" width="9.923" height="3.324" fill="#f37020"/>
      </g>
    </g>
    <g id="Group_1153" data-name="Group 1153" transform="translate(1654.648 155.239)">
      <path id="Path_3472" data-name="Path 3472" d="M1676.738,182.56h-3.324V172h-11.472V182.56h-3.324V168.672h18.12Z" transform="translate(-1658.618 -168.672)" fill="#333e63"/>
    </g>
    <g id="Group_1154" data-name="Group 1154" transform="translate(1685.989 156.901)">
      <rect id="Rectangle_862" data-name="Rectangle 862" width="3.324" height="12.226" fill="#333e63"/>
    </g>
    <g id="Group_1155" data-name="Group 1155" transform="translate(1651.283 115.085)">
      <path id="Path_3473" data-name="Path 3473" d="M1711.568,159.635h-56.943V121.03h3.324v35.281h53.618Z" transform="translate(-1654.625 -121.03)" fill="#333e63"/>
    </g>
    <g id="Group_1156" data-name="Group 1156" transform="translate(1656.731 113.468)">
      <path id="Path_3474" data-name="Path 3474" d="M1674.234,139.657l-13.145-13.146,2.35-2.351,10.795,10.8,15.15-15.149,7.7,7.7,8.392-8.392,2.35,2.351L1697.08,132.2l-7.7-7.7Z" transform="translate(-1661.089 -119.11)" fill="#333e63"/>
    </g>
  </g>
</svg>
