<?xml version="1.0" encoding="utf-8"?>
<!-- Generator: Adobe Illustrator 25.2.0, SVG Export Plug-In . SVG Version: 6.00 Build 0)  -->
<svg version="1.1" id="Layer_1" xmlns="http://www.w3.org/2000/svg" xmlns:xlink="http://www.w3.org/1999/xlink" x="0px" y="0px"
	 width="90.4px" height="87.1px" viewBox="0 0 90.4 87.1" style="enable-background:new 0 0 90.4 87.1;" xml:space="preserve">
<style type="text/css">
	.st0{fill:none;stroke:#333E63;stroke-width:3;stroke-linecap:round;stroke-linejoin:round;stroke-miterlimit:10;}
	.st1{fill:none;stroke:#F37020;stroke-width:3;stroke-linecap:round;stroke-miterlimit:10;}
</style>
<g>
	<polyline class="st0" points="27.8,66.5 10.4,66.5 10.4,84.8 27.8,84.8 	"/>
	<polyline class="st0" points="27.8,66.5 7,66.5 4.1,60.5 27.8,60.5 	"/>
	<polyline class="st0" points="61,72.3 80,72.3 80,84.8 61,84.8 	"/>
	<polyline class="st0" points="61,72.3 83.4,72.3 86.3,66.2 60.9,66.2 	"/>
	<polygon class="st0" points="62.9,47.8 60.9,53.8 28.3,53.8 25.4,47.8 	"/>
	<rect x="31.4" y="53.8" class="st0" width="25.5" height="31"/>
	<rect x="38.8" y="60" class="st0" width="10.6" height="7.1"/>
	<line class="st0" x1="39.9" y1="72.3" x2="48.3" y2="72.3"/>
	<line class="st0" x1="39.9" y1="78.5" x2="48.3" y2="78.5"/>
	<path class="st1" d="M54.8,40.3l-10-5.3c-0.3-0.2-0.7-0.2-1.1,0l-10,5.2C32.8,40.7,31.8,40,32,39l1.9-11.1c0.1-0.4-0.1-0.8-0.3-1
		l-8.1-7.9c-0.7-0.7-0.3-1.9,0.7-2l11.2-1.6c0.4-0.1,0.7-0.3,0.9-0.6l5-10.1c0.4-0.9,1.7-0.9,2.1,0l5,10.1c0.2,0.3,0.5,0.6,0.9,0.6
		L62.4,17c1,0.1,1.3,1.3,0.6,2l-8.1,7.9c-0.3,0.3-0.4,0.7-0.3,1L56.5,39C56.6,40,55.6,40.7,54.8,40.3z"/>
	<line class="st1" x1="64.3" y1="2.3" x2="60.3" y2="6.3"/>
	<line class="st1" x1="26.2" y1="37.1" x2="22.2" y2="41.1"/>
	<path class="st1" d="M24.2,2.9c0.3,0.2,3.7,3.7,3.7,3.7"/>
	<path class="st1" d="M62.5,37.3c0.3,0.2,3.7,3.7,3.7,3.7"/>
	<line class="st1" x1="16.7" y1="22.2" x2="21.2" y2="22.2"/>
	<line class="st1" x1="67.7" y1="22.2" x2="72.3" y2="22.2"/>
</g>
</svg>
