<svg xmlns="http://www.w3.org/2000/svg" xmlns:xlink="http://www.w3.org/1999/xlink" width="30" height="17.503" viewBox="0 0 30 17.503">
  <defs>
    <clipPath id="clip-path">
      <rect id="Rectangle_877" data-name="Rectangle 877" width="30" height="17.503" fill="none"/>
    </clipPath>
  </defs>
  <g id="SAUDI_ARABIA" data-name="SAUDI ARABIA" transform="translate(-43.515 -671.863)">
    <g id="Group_1185" data-name="Group 1185" transform="translate(43.515 671.863)">
      <g id="Group_1184" data-name="Group 1184" transform="translate(0 0)">
        <g id="Group_1183" data-name="Group 1183" clip-path="url(#clip-path)">
          <rect id="Rectangle_875" data-name="Rectangle 875" width="30" height="17.503" fill="#3d9635"/>
          <g id="Group_1182" data-name="Group 1182">
            <g id="Group_1181" data-name="Group 1181" clip-path="url(#clip-path)">
              <path id="Path_3491" data-name="Path 3491" d="M93.389,697.935c-.029.408-.067,1.131.28,1.2.42.038.188-.712.339-.849.029-.066.082-.066.086.017v.639a.3.3,0,0,0,.239.307c.11-.007.183,0,.226.1q.027.55.051,1.1s.257.076.269-.618a6.477,6.477,0,0,1-.027-.828c0-.077.1-.084.171-.042.11.077.159.171.329.133.26-.074.415-.2.419-.4a1.729,1.729,0,0,0-.117-.569c.012-.035-.051-.122-.038-.157.046.074.116.066.132,0a.568.568,0,0,0-.222-.346c-.093-.08-.229-.062-.278.108a.938.938,0,0,0,.214.611.611.611,0,0,1,.052.307.169.169,0,0,1-.212-.042s-.208-.157-.208-.189a.746.746,0,0,0-.017-.492.637.637,0,0,0-.137-.266c-.051-.059-.121-.059-.154,0a.922.922,0,0,0,.017.65c.046.139.12.226.087.226-.029.08-.087.06-.13-.031a2.257,2.257,0,0,1-.072-.6c-.019-.157-.04-.492-.143-.58-.063-.084-.157-.042-.19.038a3.015,3.015,0,0,0,.01.454,4.923,4.923,0,0,1,.128.733c.009.346-.2.15-.19-.024a1.573,1.573,0,0,0-.007-.66c-.034-.091-.074-.112-.158-.094-.066-.007-.235.178-.282.485a2.483,2.483,0,0,0-.058.3c-.024.157-.128.269-.2-.024-.065-.213-.1-.736-.208-.614" transform="translate(-84.898 -692.973)" fill="#fff"/>
              <path id="Path_3492" data-name="Path 3492" d="M94.845,710.068c-.371.185-.731.352-1.1.527a1.12,1.12,0,0,1,.867-.7c.225.007.168.088.229.175" transform="translate(-85.213 -703.43)" fill="#fff"/>
              <path id="Path_3493" data-name="Path 3493" d="M98.839,697.311a.319.319,0,0,0-.07.021.2.2,0,0,0-.147.255c.106.643.173,1.131.279,1.77a.137.137,0,0,1-.127.167c-.139-.094-.173-.286-.409-.276a.465.465,0,0,0-.391.366.934.934,0,0,0,0,.419.345.345,0,0,0,.391.1c.1-.042.189-.147.226-.123h0c.023.042,0,.377-.488.633-.3.132-.536.167-.664-.077-.078-.154.006-.734-.188-.6-.577,1.488,1.349,1.7,1.565.063.014-.046.058-.091.087-.08s.024.024.028.059c-.045,1.477-1.489,1.575-1.734,1.114a1.394,1.394,0,0,1-.087-.5.261.261,0,0,0-.059-.164c-.058-.042-.137.073-.154.272a1.773,1.773,0,0,0-.017.356c.077,1.173,1.937.671,2.242-.3a3.29,3.29,0,0,0,.047-.921h.006s0,0,0,0c.188.2.445.024.5-.042a.087.087,0,0,1,.129-.014.3.3,0,0,0,.449-.125,4.239,4.239,0,0,0,.063-.556.534.534,0,0,0-.2.084.056.056,0,0,0-.015.028c-.007.048-.015.1-.024.157a.1.1,0,0,1,0,.015c0,.007-.012.01-.018.014a.061.061,0,0,1-.094-.042c-.044-.2-.227-.231-.339.084-.077.062-.211.073-.226-.014.019-.213-.067-.241-.237-.143-.054-.419-.11-.817-.165-1.236.072,0,.135.052.2-.028a2.367,2.367,0,0,0-.3-.709h0s-.009-.011-.013-.014a.006.006,0,0,1-.005,0h-.005s-.009,0-.01-.007-.016,0-.024,0m-.518,2.294a.1.1,0,0,1,.1.063.112.112,0,0,1-.021.111h0c-.015.024-.064.014-.1.014a.093.093,0,0,1-.091-.045c-.013-.039.024-.077.041-.108h0s0-.007.006-.01a.138.138,0,0,1,.063-.025" transform="translate(-87.81 -692.985)" fill="#fff"/>
              <path id="Path_3494" data-name="Path 3494" d="M111.894,697.11a.372.372,0,0,0-.13.034.254.254,0,0,0-.044.332c.073.031.147.108.1.147-.206.22-.746.59-.773.66h0v0h0s0,0,0,0h0a1.4,1.4,0,0,0,.4,0v0h0a5.507,5.507,0,0,0,.665-.67c-.027-.024-.055-.042-.083-.066a.045.045,0,0,1,0-.077.221.221,0,0,0,.023-.335.323.323,0,0,0-.165-.031m-.025.192c.034,0,.073.031.093.073s.01.091-.023.1a.111.111,0,0,1-.1-.07c-.022-.049-.01-.094.025-.1,0,0,0,0,.006,0" transform="translate(-99.569 -692.819)" fill="#fff"/>
              <path id="Path_3495" data-name="Path 3495" d="M93.1,716.858a1.086,1.086,0,0,0-.11.964.23.23,0,0,0,.233.077.426.426,0,0,0,.154-.412c-.043-.07-.077-.08-.12-.021-.09.182-.129.056-.136-.049a2.391,2.391,0,0,1,.024-.517c.023-.143,0-.1-.045-.042" transform="translate(-84.524 -709.166)" fill="#fff"/>
              <path id="Path_3496" data-name="Path 3496" d="M135.677,699.531c-.2-.429-.473-.852-.561-1.012s-.749-1.121-.847-1.233c-.216-.255.349.108-.072-.4-.159-.136-.168-.143-.3-.255-.065-.049-.23-.133-.257.007a.8.8,0,0,0,.014.3,1.051,1.051,0,0,0,.17.258,19.067,19.067,0,0,1,1.839,2.954c.091-.042.072-.548.018-.621" transform="translate(-118.315 -692.363)" fill="#fff"/>
              <path id="Path_3497" data-name="Path 3497" d="M140.521,701.424c-.04.042.095.234.272.23a1.028,1.028,0,0,0,.794-.635,1.131,1.131,0,0,0,.181-.489,10.717,10.717,0,0,0-.2-2.472.4.4,0,0,1,.007-.171c.019-.024.084,0,.118-.056.051-.052-.133-.479-.238-.643-.037-.073-.051-.122-.113.007a.936.936,0,0,0-.1.468c.141.971.183,1.826.277,2.8a.389.389,0,0,1-.069.286,2.711,2.711,0,0,1-.929.678" transform="translate(-124.03 -692.824)" fill="#fff"/>
              <path id="Path_3498" data-name="Path 3498" d="M163.171,701.215c-.213.122-.213.265-.04.269a1.058,1.058,0,0,0,.885-.423,1.4,1.4,0,0,0,.142-.545,12.811,12.811,0,0,0-.16-2.671,1.193,1.193,0,0,1-.03-.251c.02-.046.116.007.148-.049.052-.049-.246-.437-.353-.6-.036-.073-.049-.122-.111.011a.745.745,0,0,0-.062.464,25.681,25.681,0,0,1,.3,3.017.88.88,0,0,1-.059.248,1.846,1.846,0,0,1-.288.339c-.1.07-.3.139-.369.192" transform="translate(-142.7 -692.622)" fill="#fff"/>
              <path id="Path_3499" data-name="Path 3499" d="M161.6,700.216c0-.248.007-.461,0-.646s-.094-.876-.12-1.023-.058-.374-.1-.552a1.468,1.468,0,0,1-.037-.314c.016-.049.084,0,.114-.056a1.944,1.944,0,0,0-.279-.775c-.038-.074-.112-.049-.2.07-.085.077-.054.251-.022.419a15.447,15.447,0,0,1,.336,3.314c-.012.088.311-.269.307-.436" transform="translate(-140.972 -692.569)" fill="#fff"/>
              <path id="Path_3500" data-name="Path 3500" d="M153.232,704.594c-.134,0-.413-.258-.494-.409a.288.288,0,0,1,.016-.22c.05-.031.126-.07.182-.031,0,0,.059.08.048.09.072.035.1.014.111-.017,0-.049-.023-.08-.023-.136a.155.155,0,0,1,.275-.08.557.557,0,0,1,.074.272c0,.045-.072-.007-.112,0s-.05.056-.054.1c-.009.115-.021.293-.023.43" transform="translate(-134.164 -698.316)" fill="#fff"/>
              <path id="Path_3501" data-name="Path 3501" d="M138.141,700.488a11.609,11.609,0,0,0-.016-1.222c-.012-.468-.091-1.372-.126-1.522-.042-.286.116.031.094-.136a1.821,1.821,0,0,0-.394-.737c-.06-.084-.057-.1-.15.021a.881.881,0,0,0,.012.573,10.517,10.517,0,0,1,.248,1.662,14.781,14.781,0,0,1,.015,1.767c.1,0,.261-.164.317-.405" transform="translate(-121.529 -692.565)" fill="#fff"/>
              <path id="Path_3502" data-name="Path 3502" d="M156.694,699.972c-.233-.394-.588-.856-.682-1.012s-.9-1.331-1-1.436c-.293-.3.134-.049-.055-.289a2.319,2.319,0,0,0-.347-.335c-.068-.042-.111-.13-.133.014a2.914,2.914,0,0,0-.011.384.488.488,0,0,0,.117.237,22.082,22.082,0,0,1,2.1,3.056c.089-.042.058-.548,0-.618" transform="translate(-135.611 -692.591)" fill="#fff"/>
              <path id="Path_3503" data-name="Path 3503" d="M111.56,742.645h0a.2.2,0,0,0-.066.363c-2.192,0-5.555-.034-6.274-.034-.4,0-1.68-.049-1.7-.049a1.3,1.3,0,0,0,1.187.489c.974,0,5.483-.01,6.764-.01a.444.444,0,0,0,.081.467s0,0,.005,0a.008.008,0,0,0,.008,0h0c.086.021.123-.042.152-.084a9.18,9.18,0,0,0,.984,0h0c.048.07.1.136.188.126.16-.035.286-.052.291-.377,0,0-.017-.552-.38-.517-.086.011-.326.035-.326.035-.279-.031-.486-.035-.8-.049.03-.034.079-.185.017-.238a.114.114,0,0,0-.075-.021h-.006s-.005,0-.007-.007,0,0,0,0a.6.6,0,0,1-.034-.094h-.007m.148.789h0c.318.014.618,0,.939.017a.116.116,0,0,1-.008.161s0,0,0,0h-.009l-.267-.007c0-.007,0-.01,0-.017-.025-.074-.2-.066-.245-.007h0l0,0s0,0,0,.007v.007a.027.027,0,0,0,0,.011,2.293,2.293,0,0,1-.409-.014c-.039-.049-.035-.139.013-.164" transform="translate(-93.319 -730.616)" fill="#fff"/>
              <path id="Path_3504" data-name="Path 3504" d="M117.9,696.713c-.213.607.123,1.278.355,1.215.169.066.274-.255.344-.6.048-.1.083-.108.107-.059-.007.468.033.573.153.712a.38.38,0,0,0,.505.007c.018-.014.209-.206.209-.206a.124.124,0,0,1,.174-.007c.062.057.054.157.19.224a.409.409,0,0,0,.415-.087c.077-.129.093-.174.128-.224.056-.074.147-.042.147-.017-.008.042-.06.08-.026.153.066.049.081.018.12.007.135-.066.237-.36.237-.36,0-.111-.056-.1-.1-.077s-.054.042-.107.074c-.065.007-.194.053-.257-.046a4.018,4.018,0,0,1-.117-.4c0-.006-.085-.185-.005-.2.039.007.125.032.14-.042.043-.07-.091-.272-.182-.37a.2.2,0,0,0-.3-.01c-.073.066-.064.147-.078.216a.337.337,0,0,0,.071.293.9.9,0,0,1,.164.6.247.247,0,0,1-.217.112c-.056-.013-.15-.038-.2-.4-.036-.279.011-.67-.108-.848-.043-.112-.073-.22-.176-.029a.432.432,0,0,0-.061.415,1.228,1.228,0,0,1,.066.646,1.139,1.139,0,0,1-.124.179.208.208,0,0,1-.263.034.285.285,0,0,1-.157-.22,3.165,3.165,0,0,0-.026-.716.127.127,0,0,0-.215-.045,1.607,1.607,0,0,0-.394.807c-.061.2-.127.14-.171.06-.11-.1-.118-.911-.252-.779" transform="translate(-105.202 -692.087)" fill="#fff"/>
              <path id="Path_3505" data-name="Path 3505" d="M110.388,706.506s0,0-.006,0l0,0c-.014.007-.033.031-.069.059-.064.074-.072.123-.069.262,0,.017.117.335.216.562a1.744,1.744,0,0,1,.082.757,1.848,1.848,0,0,1-.764.8.391.391,0,0,1-.318,0v0a.192.192,0,0,1-.086-.181h0a1.818,1.818,0,0,0,.768-.793.83.83,0,0,0,.021-.573.577.577,0,0,0-.131-.262s0,0,0,0c.043-.021.154.063.172.011a.826.826,0,0,0-.22-.4.187.187,0,0,0-.271-.017c-.092.053-.111.238-.068.4.05.118.185.139.281.384v0a.465.465,0,0,1-.017.256,2.929,2.929,0,0,1-.575.538l0,0v0h-.006s0,0,0,0a.577.577,0,0,0,0-.08c0-.07.028-.238.026-.269h0v0h0c-.164.108-.22.436-.25.534a7.412,7.412,0,0,0-1.168.8c-.143.22.984-.258,1.114-.314a0,0,0,0,1,.005,0c.024.024.024.118.1.206a.594.594,0,0,0,.607.2,1.944,1.944,0,0,0,.88-.733c.033-.048.087-.087.135-.048a1.377,1.377,0,0,0,1.246.653c.141-.171.074-.258.016-.29-.019-.014-.3-.126-.348-.237-.027-.1.04-.192.177-.262a6.091,6.091,0,0,0,1.149-.22.992.992,0,0,1,.126-.394.191.191,0,0,1,.065-.07s0,0,0,0h0v0a.016.016,0,0,0,0-.007l-.064-.039-1.249-.007a.158.158,0,0,1-.035-.017h0v0h0l0,0h0v0h0v0h0v0h0s0,0,0,0a.076.076,0,0,1,.039-.024c.3-.039.829-.126.863-.639a.442.442,0,0,0-.439-.485.446.446,0,0,0-.383.506c-.011.066.024.2-.046.216-.46.045-.961.331-.979.538H110.9l0,0h-.006l0,0a.116.116,0,0,1-.062-.126,2.466,2.466,0,0,0-.316-1.069c-.064-.066-.093-.09-.112-.094h-.008m1.826.457a.152.152,0,0,1,.1.025.124.124,0,0,1,.077.1v.007h0s0,0,0,0v0s0,0-.008.007c-.025.025-.077.021-.131-.011a.136.136,0,0,1-.077-.1v0c0-.007,0-.01.005-.01l0-.007h0s0,0,.006-.007a.044.044,0,0,1,.03-.01m-1.162,1.054h.015a3.683,3.683,0,0,0,.523.06c.145.011.217.122.081.171s-.263.08-.263.275c.016.094.014.147,0,.167a.008.008,0,0,1-.006.007v0h0v0h0s0,0-.006,0a.006.006,0,0,1,0,0c-.033,0-.08-.031-.116-.046a.72.72,0,0,1-.346-.513.131.131,0,0,1,.13-.136" transform="translate(-96.971 -700.619)" fill="#fff"/>
              <path id="Path_3506" data-name="Path 3506" d="M102.258,697.438c.145.066.415.038.4-.192,0-.021,0-.091-.006-.108-.028-.07-.11-.056-.127.017-.006.021.009.06-.011.073s-.059,0-.058-.059a.093.093,0,0,0-.024-.056.04.04,0,0,0-.032-.011c-.019,0-.019.007-.028.025a.145.145,0,0,0-.011.052c0,.025-.013.031-.03.035s-.013,0-.03-.007-.021-.014-.021-.031a.285.285,0,0,0-.007-.056.064.064,0,0,0-.036-.021c-.079,0-.085.091-.079.125-.007.007-.01.168.1.213" transform="translate(-92.192 -692.804)" fill="#fff"/>
              <path id="Path_3507" data-name="Path 3507" d="M127.09,707.948c.144.066.486.028.4-.2a.971.971,0,0,0-.009-.108c-.029-.07-.108-.052-.127.017,0,.024.011.063-.009.077s-.059,0-.058-.063a.089.089,0,0,0-.024-.052.042.042,0,0,0-.032-.011c-.019,0-.019.007-.03.024a.187.187,0,0,0-.01.052c0,.025-.012.031-.029.035s-.012,0-.029-.007-.021-.014-.021-.031a.131.131,0,0,0-.01-.056.057.057,0,0,0-.035-.021c-.077,0-.082.091-.08.126,0,0-.008.164.1.213" transform="translate(-112.804 -701.527)" fill="#fff"/>
              <path id="Path_3508" data-name="Path 3508" d="M141.573,703.6c.143.066.414.035.4-.2,0-.018,0-.088-.006-.108-.031-.066-.112-.052-.127.021-.007.021.008.06-.013.07s-.058.007-.056-.059a.124.124,0,0,0-.023-.056.075.075,0,0,0-.031,0c-.02,0-.02,0-.031.021a.187.187,0,0,0-.011.056.03.03,0,0,1-.029.032c-.018,0-.015,0-.028-.007s-.021-.014-.021-.031a.242.242,0,0,0-.01-.06.11.11,0,0,0-.035-.014c-.079,0-.085.091-.08.122-.005.007-.009.168.1.213" transform="translate(-124.825 -697.919)" fill="#fff"/>
              <path id="Path_3509" data-name="Path 3509" d="M148.79,700.106a.877.877,0,0,0-.084.852.674.674,0,0,0,.31.352.216.216,0,0,0,.325-.035c.146-.154.15-.541.218-.618a.129.129,0,0,1,.23-.056.615.615,0,0,0,.21.182.354.354,0,0,0,.463.031.521.521,0,0,0,.247-.3,10.915,10.915,0,0,0,.018-1.767c-.007-.042-.142-.726-.142-.733s-.019-.349-.033-.43c0-.034-.011-.045.023-.041.037.034.04.038.064.045s.07-.056.048-.116c-.114-.21-.23-.422-.344-.628-.026-.032-.063-.06-.107,0a.249.249,0,0,0-.084.189c.011.15.037.3.046.454.046.254.092.513.138.771.043.548.055,1.051.1,1.6-.007.23-.078.541-.148.569,0,0-.1.063-.17,0a2.031,2.031,0,0,1-.252-.335.152.152,0,0,0-.245,0,3.387,3.387,0,0,0-.43.81c-.037.056-.136.1-.246,0a1.151,1.151,0,0,1-.153-.793" transform="translate(-130.769 -692.571)" fill="#fff"/>
              <path id="Path_3510" data-name="Path 3510" d="M141.656,697.337a.468.468,0,0,1,.189.439c-.026.157-.093.332-.143.308s.036-.157-.014-.3c-.03-.094-.2-.262-.187-.314-.037-.105.075-.154.154-.133" transform="translate(-124.844 -693.004)" fill="#fff"/>
              <path id="Path_3511" data-name="Path 3511" d="M148.723,700.4a3.9,3.9,0,0,0-.027-.692c-.008-.181-.207-1.679-.249-1.819-.049-.261.195-.035.167-.188-.084-.192-.293-.475-.358-.643-.042-.073-.025-.136-.114-.017a1.475,1.475,0,0,0-.08.657,14.308,14.308,0,0,1,.4,3.156c.1,0,.215-.227.264-.454" transform="translate(-130.286 -692.704)" fill="#fff"/>
              <path id="Path_3512" data-name="Path 3512" d="M164.251,699.523c.12.062.188.387.176.481-.023.171-.085.357-.13.332s.01-.255-.014-.325c-.028-.1-.187-.287-.17-.343a.112.112,0,0,1,.139-.146" transform="translate(-143.613 -694.82)" fill="#fff"/>
              <path id="Path_3513" data-name="Path 3513" d="M112.867,713.614c.111.042.178.283.165.352-.022.126-.082.258-.124.244s.01-.189-.014-.241c-.009-.129-.165-.2-.162-.251-.03-.1.064-.119.134-.1" transform="translate(-100.965 -706.516)" fill="#fff"/>
              <path id="Path_3514" data-name="Path 3514" d="M95.186,696.869c.166.049.176.293.165.366-.023.13-.082.269-.125.252s0-.192-.024-.248c-.024-.08-.164-.217-.148-.259-.032-.087.063-.13.132-.112" transform="translate(-86.29 -692.616)" fill="#fff"/>
              <path id="Path_3515" data-name="Path 3515" d="M114.482,703.559a.3.3,0,0,0-.1.394.2.2,0,0,0,.206.063c.125.017.2-.234.2-.234s0-.07-.143.063c-.063.014-.071-.011-.087-.045a.318.318,0,0,1,.019-.2c.023-.063-.025-.091-.1-.045" transform="translate(-102.309 -698.154)" fill="#fff"/>
              <path id="Path_3516" data-name="Path 3516" d="M119.782,696.222a.459.459,0,0,0-.194.328c-.005.084-.021.084.035.14s.083.052.164.007a.169.169,0,0,0,.078-.112c.02-.1-.1.045-.118-.063s.051-.14.126-.241c0-.066,0-.112-.092-.059" transform="translate(-106.656 -692.063)" fill="#fff"/>
              <path id="Path_3517" data-name="Path 3517" d="M125.008,696.533a2.052,2.052,0,0,0-.056.38c-.023.094.1.137.154.014a1.117,1.117,0,0,0,.087-.415c-.024-.143-.122-.137-.186.021" transform="translate(-111.11 -692.238)" fill="#fff"/>
              <path id="Path_3518" data-name="Path 3518" d="M153.649,709.265c.018-.014.684-.489.684-.489.068-.024.053.245.023.241a2.636,2.636,0,0,1-.706.493c-.032.021-.065-.185,0-.244" transform="translate(-134.902 -702.502)" fill="#fff"/>
              <path id="Path_3519" data-name="Path 3519" d="M156.719,711.62c.119.06.165.4.152.5,0,.181-.114.328-.159.307s0-.226-.018-.3c-.028-.1-.128-.29-.111-.346a.117.117,0,0,1,.135-.157" transform="translate(-137.363 -704.861)" fill="#fff"/>
              <path id="Path_3520" data-name="Path 3520" d="M133.96,719.5a.94.94,0,0,1,.19-.164.114.114,0,0,1,.128.024c.011.063-.041.126-.024.213.013.035.024.077.089.06a.445.445,0,0,1,.309-.091c.083,0,.084.139.034.139a2.338,2.338,0,0,0-.423.15.094.094,0,0,1-.122-.018.12.12,0,0,1-.012-.122c.006-.07-.023-.108-.082-.1-.045.028-.083.042-.1-.007s-.011-.06.018-.08" transform="translate(-118.57 -711.258)" fill="#fff"/>
              <path id="Path_3521" data-name="Path 3521" d="M160.826,720.5a.086.086,0,0,1,0,.129c-.048.046-.079.066-.127.112-.021.039-.035.094.031.112.124.035.413-.15.413-.157a.085.085,0,0,0,.027-.1c-.027-.031-.087-.014-.128-.014-.021,0-.085-.014-.054-.066a.52.52,0,0,0,.053-.1c.018-.045,0-.073-.069-.1a.611.611,0,0,0-.178,0c-.043.01-.058.031-.066.08,0,.077.05.073.1.1" transform="translate(-140.769 -712.078)" fill="#fff"/>
            </g>
          </g>
        </g>
      </g>
    </g>
  </g>
</svg>
