<?xml version="1.0" encoding="utf-8"?>
<!-- Generator: Adobe Illustrator 25.2.0, SVG Export Plug-In . SVG Version: 6.00 Build 0)  -->
<svg version="1.1" id="Layer_1" xmlns="http://www.w3.org/2000/svg" xmlns:xlink="http://www.w3.org/1999/xlink" x="0px" y="0px"
	 width="55.5px" height="59.5px" viewBox="0 0 55.5 59.5" style="enable-background:new 0 0 55.5 59.5;" xml:space="preserve">
<style type="text/css">
	.st0{fill:none;stroke:#F37020;stroke-width:2;stroke-miterlimit:10;}
	.st1{fill:none;stroke:#333E63;stroke-width:2;stroke-miterlimit:10;}
	.st2{fill:none;stroke:#F37020;stroke-width:2.0001;stroke-miterlimit:10.0006;}
</style>
<g id="Layer_2_1_">
	<g id="Layer_3">
		<path class="st0" d="M18.7,35.9c0,0,1-6.9,7.6-4.4c0,0,7.6-6.1,13.2,1.7c0,0,6.9,0,7.8,6.4"/>
		<path class="st1" d="M0.4,37.5c3.2-1.2,6.4-2.5,9.6-3.7c2.1-0.9,4.5-0.8,6.5,0.3c1,0.8,2,1.6,2.8,2.6c1.9,1.8,4.2,3.2,6.7,4
			c1.2,0.4,2.5,0.7,3.8,0.9c1.5,0.2,3.1,0.2,4.6,0.1c0.9-0.1,1.8,0.2,2.5,0.8c0.3,0.6,0.3,1.3,0,1.8c-0.5,0.9-1.3,1.6-2.2,2
			s-1.9,0.8-2.9,0.9c-5.4,0.9-10.9-0.3-15.5-3.4"/>
		<path class="st1" d="M36.9,44.2C41.1,42.8,45.1,41,49,39c1-0.7,2.2-1.2,3.5-1.2c0.6,0,1.2,0.3,1.6,0.8c0.6,0.9,0.6,2-0.1,2.9
			c-0.6,0.8-1.5,1.5-2.4,1.8c-4.1,2.2-8,4.6-11.8,7.4c-2.4,1.6-4.8,3.2-7.1,4.8c-3.5,2.4-6.1,3.3-12.2,0S3.7,53,3.7,53"/>
		<path class="st0" d="M33,29.1c0,0,4.1-13.5,11.7-20.3"/>
		<ellipse transform="matrix(0.4873 -0.8733 0.8733 0.4873 8.8557 42.7549)" class="st2" cx="40.8" cy="13.8" rx="12.7" ry="6.6"/>
	</g>
</g>
</svg>
