<?xml version="1.0" encoding="utf-8"?>
<!-- Generator: Adobe Illustrator 25.1.0, SVG Export Plug-In . SVG Version: 6.00 Build 0)  -->
<svg version="1.1" id="Layer_1" xmlns="http://www.w3.org/2000/svg" xmlns:xlink="http://www.w3.org/1999/xlink" x="0px" y="0px"
	 width="50.1px" height="67.8px" viewBox="0 0 50.1 67.8" style="enable-background:new 0 0 50.1 67.8;" xml:space="preserve">
<style type="text/css">
	.st0{fill:none;stroke:#F37020;stroke-width:2;stroke-miterlimit:10;}
	.st1{fill:none;stroke:#333E63;stroke-width:2;stroke-miterlimit:10;}
</style>
<g id="Smart-Dynamic" transform="translate(-885.918 -102.833)">
	<g id="Group_14709">
		<circle id="Ellipse_1862" class="st0" cx="891.6" cy="118.3" r="4.7"/>
		<path id="Path_4311" class="st0" d="M891.6,123.3v7.2c0,2.3,1.9,4.1,4.1,4.1h11.1c2.3,0,4.1,1.9,4.1,4.1c0,0,0,0,0,0l0,0"/>
	</g>
	<g id="Group_14710">
		<circle id="Ellipse_1863" class="st0" cx="930.3" cy="118.3" r="4.7"/>
		<path id="Path_4312" class="st0" d="M930.3,123.3v7.2c0,2.3-1.9,4.1-4.1,4.1h-11.1c-2.3,0-4.1,1.9-4.1,4.1l0,0l0,0"/>
	</g>
	<circle id="Ellipse_1864" class="st1" cx="911" cy="110.3" r="6.5"/>
	<circle id="Ellipse_1865" class="st1" cx="911" cy="163.1" r="6.5"/>
	<line id="Line_287" class="st1" x1="911" y1="117.2" x2="911" y2="156.2"/>
</g>
</svg>
