<?xml version="1.0" encoding="utf-8"?>
<!-- Generator: Adobe Illustrator 25.1.0, SVG Export Plug-In . SVG Version: 6.00 Build 0)  -->
<svg version="1.1" id="Layer_1" xmlns="http://www.w3.org/2000/svg" xmlns:xlink="http://www.w3.org/1999/xlink" x="0px" y="0px"
	 width="75px" height="67.8px" viewBox="0 0 75 67.8" style="enable-background:new 0 0 75 67.8;" xml:space="preserve">
<style type="text/css">
	.st0{fill:none;stroke:#F37020;stroke-width:2;stroke-miterlimit:10;}
	.st1{fill:none;stroke:#333E63;stroke-width:2;stroke-miterlimit:10;}
</style>
<g id="Timely-Disbursements" transform="translate(-370.423 -833.994)">
	<line id="Line_264" class="st0" x1="373.6" y1="859.9" x2="376.5" y2="863.6"/>
	<path id="Path_4288" class="st0" d="M440.8,866l3.2,3.2l-3.2,3.2"/>
	<g id="Group_14717">
		<path id="Path_4290" class="st1" d="M384.1,888.5c0.9,4,3,7.7,5.9,10.6c1.1,1.1,2.6,1.7,4.1,1.6h28.3c1.5,0,3-0.6,4.1-1.6
			c4.9-4.8,6.8-11.2,6.8-18.1c0-11.4-8-25.7-17.5-31.4h-15.1c-4.4,2.9-8.1,6.7-10.8,11.1"/>
		<path id="Path_4291" class="st1" d="M401.2,846.8c-0.7-2-2-5.6-2.7-7.6c-0.3-0.7-0.4-1.4-0.3-2.1c0.1-0.8,0.6-1.4,1.3-1.6
			c2.2-0.6,3.1,3.8,4.9,3.7c0.3,0,0.6-0.2,0.8-0.5c0.7-0.8,1.2-1.7,1.5-2.7c0.2-0.8,1-1.2,1.7-1c0.5,0.1,0.9,0.5,1,1
			c0.3,1,0.9,1.9,1.5,2.7c0.2,0.3,0.5,0.4,0.8,0.5c1.8,0.1,2.7-4.3,4.9-3.7c0.7,0.2,1.2,0.9,1.3,1.6c0.1,0.7,0,1.4-0.3,2.1
			c-0.7,2-2,5.6-2.7,7.6"/>
		<path id="Rectangle_11246" class="st1" d="M400.9,846.8h14.7c0.4,0,0.8,0.4,0.8,0.8v1.3c0,0.4-0.4,0.8-0.8,0.8h-14.7
			c-0.4,0-0.8-0.4-0.8-0.8v-1.3C400.1,847.1,400.4,846.8,400.9,846.8z"/>
		<path id="Path_4292" class="st0" d="M406,867.7c3.4,0,6.1,2.7,6.1,6.1c0,3.4-2.7,6.1-6.1,6.1l0,0l8.1,8.8"/>
		<line id="Line_262" class="st0" x1="404" y1="867.7" x2="415.7" y2="867.7"/>
		<line id="Line_263" class="st0" x1="404" y1="872.2" x2="415.7" y2="872.2"/>
		<circle id="Ellipse_1861" class="st0" cx="385.7" cy="874.5" r="14.3"/>
		<path id="Path_4293" class="st0" d="M386.8,865.5v10h-9"/>
		<line id="Line_265" class="st0" x1="397.9" y1="859.9" x2="395" y2="863.6"/>
		<line id="Line_266" class="st0" x1="385.7" y1="860.2" x2="385.7" y2="855.9"/>
		<line id="Line_267" class="st0" x1="380.8" y1="855.6" x2="390.3" y2="855.6"/>
		<line id="Line_260" class="st0" x1="443.9" y1="869.2" x2="424.7" y2="869.2"/>
		<line id="Line_261" class="st0" x1="439.3" y1="876.8" x2="424.7" y2="876.8"/>
	</g>
	<path id="Path_4289" class="st0" d="M436.3,873.6l3.2,3.2l-3.2,3.2"/>
</g>
</svg>
