<svg xmlns="http://www.w3.org/2000/svg" xmlns:xlink="http://www.w3.org/1999/xlink" width="30" height="17.499" viewBox="0 0 30 17.499">
  <defs>
    <clipPath id="clip-path">
      <rect id="Rectangle_892" data-name="Rectangle 892" width="30" height="17.499" fill="none"/>
    </clipPath>
  </defs>
  <g id="USA" transform="translate(-579.908 -671.865)">
    <g id="Group_1188" data-name="Group 1188" transform="translate(579.908 671.865)">
      <g id="Group_1187" data-name="Group 1187" transform="translate(0 0)">
        <g id="Group_1186" data-name="Group 1186" clip-path="url(#clip-path)">
          <rect id="Rectangle_878" data-name="Rectangle 878" width="30" height="1.346" transform="translate(0 16.153)" fill="#cb001c"/>
          <rect id="Rectangle_879" data-name="Rectangle 879" width="30" height="1.346" transform="translate(0 14.807)" fill="#fff"/>
          <rect id="Rectangle_880" data-name="Rectangle 880" width="30" height="1.344" transform="translate(0 13.463)" fill="#cb001c"/>
          <rect id="Rectangle_881" data-name="Rectangle 881" width="30" height="1.348" transform="translate(0 12.115)" fill="#fff"/>
          <rect id="Rectangle_882" data-name="Rectangle 882" width="30" height="1.346" transform="translate(0 10.769)" fill="#cb001c"/>
          <rect id="Rectangle_883" data-name="Rectangle 883" width="30" height="1.346" transform="translate(0 9.423)" fill="#fff"/>
          <rect id="Rectangle_884" data-name="Rectangle 884" width="30" height="1.348" transform="translate(0 8.075)" fill="#cb001c"/>
          <rect id="Rectangle_885" data-name="Rectangle 885" width="30" height="1.344" transform="translate(0 6.731)" fill="#fff"/>
          <rect id="Rectangle_886" data-name="Rectangle 886" width="30" height="1.346" transform="translate(0 5.386)" fill="#cb001c"/>
          <rect id="Rectangle_887" data-name="Rectangle 887" width="30" height="1.346" transform="translate(0 4.039)" fill="#fff"/>
          <rect id="Rectangle_888" data-name="Rectangle 888" width="30" height="1.348" transform="translate(0 2.692)" fill="#cb001c"/>
          <rect id="Rectangle_889" data-name="Rectangle 889" width="30" height="1.344" transform="translate(0 1.348)" fill="#fff"/>
          <rect id="Rectangle_890" data-name="Rectangle 890" width="30" height="1.348" fill="#cb001c"/>
          <rect id="Rectangle_891" data-name="Rectangle 891" width="13.7" height="9.423" fill="#2a3560"/>
          <path id="Path_3522" data-name="Path 3522" d="M584.805,677.977l.117.358h.375l-.3.22.115.356-.3-.22-.3.22.119-.356-.3-.22h.372Z" transform="translate(-583.567 -676.938)" fill="#fff"/>
          <path id="Path_3523" data-name="Path 3523" d="M584.805,687.236l.117.356h.375l-.3.22.115.356-.3-.22-.3.22.119-.356-.3-.22h.372Z" transform="translate(-583.567 -684.625)" fill="#fff"/>
          <path id="Path_3524" data-name="Path 3524" d="M584.805,696.5l.117.354h.375l-.3.22.115.358-.3-.222-.3.222.119-.358-.3-.22h.372Z" transform="translate(-583.567 -692.318)" fill="#fff"/>
          <path id="Path_3525" data-name="Path 3525" d="M584.805,705.752l.117.356h.375l-.3.22.115.356-.3-.22-.3.22.119-.356-.3-.22h.372Z" transform="translate(-583.567 -699.995)" fill="#fff"/>
          <path id="Path_3526" data-name="Path 3526" d="M584.805,715.01l.117.358h.375l-.3.218.115.356-.3-.22-.3.22.119-.356-.3-.218h.372Z" transform="translate(-583.567 -707.68)" fill="#fff"/>
          <path id="Path_3527" data-name="Path 3527" d="M591.247,682.859l.112.356h.377l-.3.22.113.356-.3-.22-.3.22.114-.356-.3-.22h.376Z" transform="translate(-588.913 -680.991)" fill="#fff"/>
          <path id="Path_3528" data-name="Path 3528" d="M591.247,692.115l.112.355h.377l-.3.222.113.354-.3-.216-.3.216.114-.354-.3-.222h.376Z" transform="translate(-588.913 -688.675)" fill="#fff"/>
          <path id="Path_3529" data-name="Path 3529" d="M591.247,701.375l.112.356h.377l-.3.22.113.356-.3-.22-.3.22.114-.356-.3-.22h.376Z" transform="translate(-588.913 -696.361)" fill="#fff"/>
          <path id="Path_3530" data-name="Path 3530" d="M591.247,710.643l.112.355h.377l-.3.22.113.354-.3-.22-.3.22.114-.354-.3-.22h.376Z" transform="translate(-588.913 -704.054)" fill="#fff"/>
          <path id="Path_3531" data-name="Path 3531" d="M597.77,677.977l.117.358h.375l-.3.22.117.356-.306-.22-.3.22.115-.356-.3-.22h.374Z" transform="translate(-594.33 -676.938)" fill="#fff"/>
          <path id="Path_3532" data-name="Path 3532" d="M597.77,687.236l.117.356h.375l-.3.22.117.356-.306-.22-.3.22.115-.356-.3-.22h.374Z" transform="translate(-594.33 -684.625)" fill="#fff"/>
          <path id="Path_3533" data-name="Path 3533" d="M597.77,696.5l.117.354h.375l-.3.22.117.358-.306-.222-.3.222.115-.358-.3-.22h.374Z" transform="translate(-594.33 -692.318)" fill="#fff"/>
          <path id="Path_3534" data-name="Path 3534" d="M597.77,705.752l.117.356h.375l-.3.22.117.356-.306-.22-.3.22.115-.356-.3-.22h.374Z" transform="translate(-594.33 -699.995)" fill="#fff"/>
          <path id="Path_3535" data-name="Path 3535" d="M597.77,715.01l.117.358h.375l-.3.218.117.356-.306-.22-.3.22.115-.356-.3-.218h.374Z" transform="translate(-594.33 -707.68)" fill="#fff"/>
          <path id="Path_3536" data-name="Path 3536" d="M604.215,682.859l.115.356h.377l-.305.22.117.356-.3-.22-.3.22.117-.356-.306-.22h.375Z" transform="translate(-599.678 -680.991)" fill="#fff"/>
          <path id="Path_3537" data-name="Path 3537" d="M604.215,692.115l.115.355h.377l-.305.222.117.354-.3-.216-.3.216.117-.354-.306-.222h.375Z" transform="translate(-599.678 -688.675)" fill="#fff"/>
          <path id="Path_3538" data-name="Path 3538" d="M604.215,701.375l.115.356h.377l-.305.22.117.356-.3-.22-.3.22.117-.356-.306-.22h.375Z" transform="translate(-599.678 -696.361)" fill="#fff"/>
          <path id="Path_3539" data-name="Path 3539" d="M604.215,710.643l.115.355h.377l-.305.22.117.354-.3-.22-.3.22.117-.354-.306-.22h.375Z" transform="translate(-599.678 -704.054)" fill="#fff"/>
          <path id="Path_3540" data-name="Path 3540" d="M610.759,677.977l.117.358h.371l-.3.22.12.356-.305-.22-.3.22.115-.356-.3-.22h.374Z" transform="translate(-605.111 -676.938)" fill="#fff"/>
          <path id="Path_3541" data-name="Path 3541" d="M610.759,687.236l.117.356h.371l-.3.22.12.356-.305-.22-.3.22.115-.356-.3-.22h.374Z" transform="translate(-605.111 -684.625)" fill="#fff"/>
          <path id="Path_3542" data-name="Path 3542" d="M610.759,696.5l.117.354h.371l-.3.22.12.358-.305-.222-.3.222.115-.358-.3-.22h.374Z" transform="translate(-605.111 -692.318)" fill="#fff"/>
          <path id="Path_3543" data-name="Path 3543" d="M610.759,705.752l.117.356h.371l-.3.22.12.356-.305-.22-.3.22.115-.356-.3-.22h.374Z" transform="translate(-605.111 -699.995)" fill="#fff"/>
          <path id="Path_3544" data-name="Path 3544" d="M610.759,715.01l.117.358h.371l-.3.218.12.356-.305-.22-.3.22.115-.356-.3-.218h.374Z" transform="translate(-605.111 -707.68)" fill="#fff"/>
          <path id="Path_3545" data-name="Path 3545" d="M617.2,682.859l.115.356h.374l-.3.22.113.356-.3-.22-.3.22.113-.356-.3-.22h.374Z" transform="translate(-610.458 -680.991)" fill="#fff"/>
          <path id="Path_3546" data-name="Path 3546" d="M617.2,692.115l.115.355h.374l-.3.222.113.354-.3-.216-.3.216.113-.354-.3-.222h.374Z" transform="translate(-610.458 -688.675)" fill="#fff"/>
          <path id="Path_3547" data-name="Path 3547" d="M617.2,701.375l.115.356h.374l-.3.22.113.356-.3-.22-.3.22.113-.356-.3-.22h.374Z" transform="translate(-610.458 -696.361)" fill="#fff"/>
          <path id="Path_3548" data-name="Path 3548" d="M617.2,710.643l.115.355h.374l-.3.22.113.354-.3-.22-.3.22.113-.354-.3-.22h.374Z" transform="translate(-610.458 -704.054)" fill="#fff"/>
          <path id="Path_3549" data-name="Path 3549" d="M623.727,677.977l.117.358h.374l-.3.22.117.356-.306-.22-.3.22.114-.356-.3-.22h.374Z" transform="translate(-615.877 -676.938)" fill="#fff"/>
          <path id="Path_3550" data-name="Path 3550" d="M623.727,687.236l.117.356h.374l-.3.22.117.356-.306-.22-.3.22.114-.356-.3-.22h.374Z" transform="translate(-615.877 -684.625)" fill="#fff"/>
          <path id="Path_3551" data-name="Path 3551" d="M623.727,696.5l.117.354h.374l-.3.22.117.358-.306-.222-.3.222.114-.358-.3-.22h.374Z" transform="translate(-615.877 -692.318)" fill="#fff"/>
          <path id="Path_3552" data-name="Path 3552" d="M623.727,705.752l.117.356h.374l-.3.22.117.356-.306-.22-.3.22.114-.356-.3-.22h.374Z" transform="translate(-615.877 -699.995)" fill="#fff"/>
          <path id="Path_3553" data-name="Path 3553" d="M623.727,715.01l.117.358h.374l-.3.218.117.356-.306-.22-.3.22.114-.356-.3-.218h.374Z" transform="translate(-615.877 -707.68)" fill="#fff"/>
          <path id="Path_3554" data-name="Path 3554" d="M630.18,682.859l.115.356h.377l-.3.22.115.356-.3-.22-.3.22.117-.356-.3-.22h.375Z" transform="translate(-621.233 -680.991)" fill="#fff"/>
          <path id="Path_3555" data-name="Path 3555" d="M630.18,692.115l.115.355h.377l-.3.222.115.354-.3-.216-.3.216.117-.354-.3-.222h.375Z" transform="translate(-621.233 -688.675)" fill="#fff"/>
          <path id="Path_3556" data-name="Path 3556" d="M630.18,701.375l.115.356h.377l-.3.22.115.356-.3-.22-.3.22.117-.356-.3-.22h.375Z" transform="translate(-621.233 -696.361)" fill="#fff"/>
          <path id="Path_3557" data-name="Path 3557" d="M630.18,710.643l.115.355h.377l-.3.22.115.354-.3-.22-.3.22.117-.354-.3-.22h.375Z" transform="translate(-621.233 -704.054)" fill="#fff"/>
          <path id="Path_3558" data-name="Path 3558" d="M636.712,677.977l.117.358h.374l-.3.22.113.356-.3-.22-.3.22.114-.356-.3-.22h.374Z" transform="translate(-626.655 -676.938)" fill="#fff"/>
          <path id="Path_3559" data-name="Path 3559" d="M636.712,687.236l.117.356h.374l-.3.22.113.356-.3-.22-.3.22.114-.356-.3-.22h.374Z" transform="translate(-626.655 -684.625)" fill="#fff"/>
          <path id="Path_3560" data-name="Path 3560" d="M636.712,696.5l.117.354h.374l-.3.22.113.358-.3-.222-.3.222.114-.358-.3-.22h.374Z" transform="translate(-626.655 -692.318)" fill="#fff"/>
          <path id="Path_3561" data-name="Path 3561" d="M636.712,705.752l.117.356h.374l-.3.22.113.356-.3-.22-.3.22.114-.356-.3-.22h.374Z" transform="translate(-626.655 -699.995)" fill="#fff"/>
          <path id="Path_3562" data-name="Path 3562" d="M636.712,715.01l.117.358h.374l-.3.218.113.356-.3-.22-.3.22.114-.356-.3-.218h.374Z" transform="translate(-626.655 -707.68)" fill="#fff"/>
          <path id="Path_3563" data-name="Path 3563" d="M643.166,682.859l.113.356h.376l-.3.22.112.356-.3-.22-.305.22.116-.356-.3-.22h.372Z" transform="translate(-632.013 -680.991)" fill="#fff"/>
          <path id="Path_3564" data-name="Path 3564" d="M643.166,692.115l.113.355h.376l-.3.222.112.354-.3-.216-.305.216.116-.354-.3-.222h.372Z" transform="translate(-632.013 -688.675)" fill="#fff"/>
          <path id="Path_3565" data-name="Path 3565" d="M643.166,701.375l.113.356h.376l-.3.22.112.356-.3-.22-.305.22.116-.356-.3-.22h.372Z" transform="translate(-632.013 -696.361)" fill="#fff"/>
          <path id="Path_3566" data-name="Path 3566" d="M643.166,710.643l.113.355h.376l-.3.22.112.354-.3-.22-.305.22.116-.354-.3-.22h.372Z" transform="translate(-632.013 -704.054)" fill="#fff"/>
          <path id="Path_3567" data-name="Path 3567" d="M649.68,677.977l.119.358h.372l-.3.22.117.356-.306-.22-.3.22.113-.356-.3-.22h.374Z" transform="translate(-637.42 -676.938)" fill="#fff"/>
          <path id="Path_3568" data-name="Path 3568" d="M649.68,687.236l.119.356h.372l-.3.22.117.356-.306-.22-.3.22.113-.356-.3-.22h.374Z" transform="translate(-637.42 -684.625)" fill="#fff"/>
          <path id="Path_3569" data-name="Path 3569" d="M649.68,696.5l.119.354h.372l-.3.22.117.358-.306-.222-.3.222.113-.358-.3-.22h.374Z" transform="translate(-637.42 -692.318)" fill="#fff"/>
          <path id="Path_3570" data-name="Path 3570" d="M649.68,705.752l.119.356h.372l-.3.22.117.356-.306-.22-.3.22.113-.356-.3-.22h.374Z" transform="translate(-637.42 -699.995)" fill="#fff"/>
          <path id="Path_3571" data-name="Path 3571" d="M649.68,715.01l.119.358h.372l-.3.218.117.356-.306-.22-.3.22.113-.356-.3-.218h.374Z" transform="translate(-637.42 -707.68)" fill="#fff"/>
        </g>
      </g>
    </g>
  </g>
</svg>
