<svg xmlns="http://www.w3.org/2000/svg" width="98.764" height="67.17" viewBox="0 0 98.764 67.17">
  <g id="Group_414" data-name="Group 414" transform="translate(1 1)">
    <ellipse id="Ellipse_1702" data-name="Ellipse 1702" cx="21.447" cy="21.447" rx="21.447" ry="21.447" transform="translate(0 22.276)" fill="none" stroke="#f37020" stroke-miterlimit="10" stroke-width="2"/>
    <ellipse id="Ellipse_1703" data-name="Ellipse 1703" cx="13.837" cy="13.837" rx="13.837" ry="13.837" transform="translate(7.61 29.887)" fill="none" stroke="#f37020" stroke-miterlimit="10" stroke-width="2"/>
    <path id="Path_1576" data-name="Path 1576" d="M-386.626-224.976l11.908-18.889a13.421,13.421,0,0,1,15.439-5.767,12.421,12.421,0,0,1,3.776,2.019,12.435,12.435,0,0,1,4.623,9.524l.613,25.172" transform="translate(392.932 253.512)" fill="none" stroke="#f37020" stroke-miterlimit="10" stroke-width="2"/>
    <path id="Path_1577" data-name="Path 1577" d="M-377.312-247.941s-.529-3.5,4.729-3.5,5.171,3.236,5.171,3.236v14.893h12.532V-248.2s-.084-3.236,5.174-3.236,4.726,3.5,4.726,3.5" transform="translate(409.528 251.439)" fill="none" stroke="#f37020" stroke-miterlimit="10" stroke-width="2"/>
    <ellipse id="Ellipse_1704" data-name="Ellipse 1704" cx="21.447" cy="21.447" rx="21.447" ry="21.447" transform="translate(53.871 22.276)" fill="none" stroke="#f37020" stroke-miterlimit="10" stroke-width="2"/>
    <ellipse id="Ellipse_1705" data-name="Ellipse 1705" cx="13.837" cy="13.837" rx="13.837" ry="13.837" transform="translate(61.481 29.887)" fill="none" stroke="#f37020" stroke-miterlimit="10" stroke-width="2"/>
    <path id="Path_1578" data-name="Path 1578" d="M-333.105-224.976l-11.908-18.889a13.419,13.419,0,0,0-15.436-5.767,12.435,12.435,0,0,0-3.779,2.019,12.433,12.433,0,0,0-4.62,9.524l-.615,25.172" transform="translate(423.563 253.512)" fill="none" stroke="#f37020" stroke-miterlimit="10" stroke-width="2"/>
    <line id="Line_80" data-name="Line 80" x2="11.893" transform="translate(42.435 31.178)" fill="none" stroke="#f37020" stroke-miterlimit="10" stroke-width="2"/>
    <line id="Line_81" data-name="Line 81" x2="11.893" transform="translate(42.435 37.843)" fill="none" stroke="#f37020" stroke-miterlimit="10" stroke-width="2"/>
  </g>
</svg>
