<?xml version="1.0" encoding="utf-8"?>
<!-- Generator: Adobe Illustrator 25.2.0, SVG Export Plug-In . SVG Version: 6.00 Build 0)  -->
<svg version="1.1" id="Layer_1" xmlns="http://www.w3.org/2000/svg" xmlns:xlink="http://www.w3.org/1999/xlink" x="0px" y="0px"
	 width="74px" height="78.4px" viewBox="0 0 74 78.4" style="enable-background:new 0 0 74 78.4;" xml:space="preserve">
<style type="text/css">
	.st0{fill:none;stroke:#F37020;stroke-width:2;stroke-miterlimit:10;}
	.st1{fill:#F37020;}
	.st2{fill:none;stroke:#333E63;stroke-width:2;stroke-miterlimit:10;}
</style>
<g id="Layer_2_1_">
	<g id="Layer_3">
		<path class="st0" d="M39.6,14.6c0.1-0.3,0.2-0.5,0.3-0.7c0.2-0.4,0.1-0.8-0.2-1.1L38.9,12c-1.1-1.1-1.1-2.9,0-4.1l2.7-2.7
			c1.1-1.1,2.9-1.1,4.1,0L46.5,6c0.3,0.3,0.7,0.4,1.1,0.2c0.3-0.1,0.6-0.3,0.9-0.4c0.4-0.2,0.6-0.5,0.6-0.9v-1C49,2.3,50.3,1,51.9,1
			c0,0,0,0,0,0h3.8c1.6,0,2.9,1.3,2.9,2.9v1c0,0.4,0.3,0.7,0.6,0.9l0.9,0.4C60.5,6.3,61,6.3,61.3,6L62,5.3c0.7-0.7,1.7-1,2.6-0.8
			c0.5,0.1,1,0.4,1.4,0.8L68.8,8c1.1,1.1,1.1,2.9,0,4.1c0,0,0,0,0,0L68,12.8c-0.3,0.3-0.4,0.7-0.2,1.1c0.1,0.3,0.3,0.6,0.4,0.9
			c0.1,0.4,0.5,0.6,0.9,0.6h1c1.6,0,2.9,1.3,2.9,2.8v3.8c0,1.6-1.3,2.9-2.8,2.9h-1c-0.4,0-0.7,0.3-0.9,0.6c-0.1,0.3-0.3,0.6-0.4,0.9
			c-0.2,0.3-0.1,0.7,0.1,1l0.8,0.8c1.1,1.1,1.1,2.9,0,4.1c0,0,0,0,0,0l-2.7,2.7c-1.1,1.1-2.9,1.1-4.1,0l-0.8-0.8
			c-0.3-0.3-0.7-0.4-1.1-0.2c-0.3,0.1-0.6,0.3-0.9,0.4c-0.4,0.1-0.6,0.5-0.6,0.9v1c0,1.6-1.3,2.9-2.9,2.9c0,0,0,0,0,0h-3.8
			c-1.6,0-2.9-1.3-2.9-2.9c0,0,0,0,0,0v-1c0-0.4-0.2-0.8-0.6-0.9c-0.3-0.1-0.6-0.3-0.9-0.4c-0.4-0.2-0.8-0.1-1.1,0.2l-0.8,0.8
			c-0.4,0.4-1,0.7-1.6,0.8"/>
		<path class="st0" d="M48.5,27c0.9,0.7,2,1.3,3.2,1.6l0,0c0.3,0.1,0.7,0.1,1,0.2s0.4,0,0.7,0s0.3,0,0.4,0c0.3,0,0.6,0,0.8,0h0.1
			c0.2,0,0.5-0.1,0.7-0.1l0.3-0.1c0.2,0,0.3-0.1,0.5-0.1l0.4-0.1l0.4-0.1l0.4-0.2l0.5-0.2c0.9-0.5,1.8-1.1,2.5-1.8
			c0.2-0.2,0.4-0.4,0.5-0.6c0.7-1.2,1.2-2.5,1.5-3.9c0-0.2,0-0.4,0.1-0.6c0-0.2,0-0.3,0-0.5c0-0.1,0-0.1,0-0.2s0-0.3,0-0.4
			s0-0.5-0.1-0.7s-0.1-0.5-0.1-0.7s-0.1-0.3-0.1-0.5S62,17.5,62,17.3l-0.2-0.4c-0.1-0.3-0.3-0.6-0.4-0.9c0,0,0-0.1,0-0.1
			c-0.2-0.4-0.5-0.9-0.8-1.3l-0.1-0.1c-0.1-0.2-0.3-0.3-0.4-0.4l-0.2-0.2l-0.3-0.3l-0.4-0.3L59,13.3c-1.5-1.1-3.3-1.7-5.1-1.7h-0.3
			H53h-0.3c-0.3,0-0.6,0.1-0.9,0.2c-3.1,0.8-5.6,3.3-6.3,6.5"/>
		<circle class="st1" cx="32.6" cy="30" r="1.2"/>
		<circle class="st1" cx="40" cy="30" r="1.2"/>
		<path class="st1" d="M35,37.4h2.5c0.7,0,1.2-0.6,1.2-1.2c0-0.7-0.6-1.2-1.2-1.2H35c-0.7,0-1.2,0.6-1.2,1.2
			C33.8,36.8,34.3,37.4,35,37.4z"/>
		<path class="st2" d="M27.2,33.9h-1.4c-1,0-1.8-0.8-1.8-1.8c0,0,0,0,0,0v-5.7c0-6.8,5.5-12.2,12.3-12.2l0,0
			c6.8,0,12.2,5.5,12.3,12.2v5.7c0,1-0.8,1.8-1.8,1.8h-1.9"/>
		<path class="st2" d="M24,26.4l19-1c1.1-0.1,2.1,0.8,2.1,1.9c0,0,0,0.1,0,0.1v4.4c0,4.9-4,8.8-8.8,8.8l0,0c-4.9,0-8.8-4-8.8-8.8
			v-5.4"/>
		<path class="st2" d="M14.5,57.9l1.1-7.1c0-3.3,2.7-5.9,5.9-5.9H51c3.3,0,6,2.6,6,5.9l1.1,7.1"/>
		<path class="st2" d="M11.7,57.9h2.4c1.6,0,2.9,1.3,2.9,2.9v5.1c0,1.6-1.3,2.9-2.9,2.9h-2.4c-1.6,0-2.9-1.3-2.9-2.9v-5.1
			C8.8,59.2,10.1,57.9,11.7,57.9z"/>
		<path class="st2" d="M58.1,57.9h2.4c1.6,0,2.9,1.3,2.9,2.9v5.1c0,1.6-1.3,2.9-2.9,2.9h-2.4c-1.6,0-2.9-1.3-2.9-2.9v-5.1
			C55.2,59.2,56.5,57.9,58.1,57.9z"/>
		<path class="st2" d="M21.7,73.1V51.8c0-1.3,1-2.3,2.3-2.3c0,0,0,0,0,0h24.6c1.3,0,2.3,1,2.3,2.3l0,0v21.2"/>
		<line class="st2" x1="0" y1="73.1" x2="72.5" y2="73.1"/>
		<line class="st2" x1="11.2" y1="77.4" x2="61.3" y2="77.4"/>
	</g>
</g>
</svg>
