<svg xmlns="http://www.w3.org/2000/svg" width="248.273" height="30.779" viewBox="0 0 248.273 30.779">
  <g id="Group_14858" data-name="Group 14858" transform="translate(-7.842 -6.698)">
    <g id="Group_14856" data-name="Group 14856" transform="translate(7.842 7.745)">
      <path id="Path_4624" data-name="Path 4624" d="M15.7,13.536H7.842V7.98H30.325v5.556H22.338v23.7H15.7Z" transform="translate(-7.842 -7.98)" fill="#db1a1a"/>
      <path id="Path_4625" data-name="Path 4625" d="M36.5,24.693c0-3.125-.087-5.165-.174-6.988h5.686l.216,3.907h.174a6.233,6.233,0,0,1,5.729-4.384,6.822,6.822,0,0,1,1.389.087v6.207a9.489,9.489,0,0,0-1.78-.173A4.242,4.242,0,0,0,43.23,26.69a7.864,7.864,0,0,0-.13,1.476V38.93H36.5Z" transform="translate(-13.065 -9.675)" fill="#db1a1a"/>
      <path id="Path_4626" data-name="Path 4626" d="M76.568,32.223c0,2.777.087,5.034.174,6.814H71.013l-.3-2.995h-.131a7.571,7.571,0,0,1-6.64,3.472c-4.3,0-7.465-2.691-7.465-9.245V17.812h6.64V29.227c0,3.081,1,4.949,3.3,4.949a3.551,3.551,0,0,0,3.3-2.3,3.678,3.678,0,0,0,.217-1.432V17.812h6.64Z" transform="translate(-16.758 -9.783)" fill="#db1a1a"/>
      <path id="Path_4627" data-name="Path 4627" d="M87.248,33.157a12.889,12.889,0,0,0,5.686,1.606c2,0,2.821-.693,2.821-1.78s-.651-1.606-3.125-2.43c-4.384-1.476-6.077-3.863-6.033-6.381,0-3.949,3.385-6.944,8.637-6.944a14.243,14.243,0,0,1,5.989,1.215L100.052,23a10.425,10.425,0,0,0-4.6-1.214c-1.606,0-2.517.65-2.517,1.735,0,1,.825,1.519,3.429,2.431,4.036,1.388,5.729,3.428,5.772,6.554,0,3.949-3.125,6.858-9.2,6.858a15.024,15.024,0,0,1-6.858-1.476Z" transform="translate(-22.185 -9.675)" fill="#db1a1a"/>
      <path id="Path_4628" data-name="Path 4628" d="M117.58,10.372v6.076h4.731V21.31H117.58v7.682c0,2.561.608,3.733,2.6,3.733a10.722,10.722,0,0,0,1.953-.174l.043,4.991a12.95,12.95,0,0,1-4.3.564,6.859,6.859,0,0,1-4.947-1.823c-1.216-1.258-1.824-3.3-1.824-6.293V21.31h-2.821V16.448h2.821v-4.6Z" transform="translate(-26.258 -8.419)" fill="#db1a1a"/>
    </g>
    <g id="Group_14857" data-name="Group 14857" transform="translate(104.958 6.698)">
      <path id="Path_4629" data-name="Path 4629" d="M304.693,10.747a5.075,5.075,0,0,1,2.43.637,4.541,4.541,0,0,1,1.847,1.829,4.963,4.963,0,0,1,.01,4.934,4.6,4.6,0,0,1-1.828,1.831,4.954,4.954,0,0,1-4.918,0,4.6,4.6,0,0,1-1.831-1.831,4.947,4.947,0,0,1,.008-4.934,4.561,4.561,0,0,1,1.851-1.829,5.078,5.078,0,0,1,2.43-.637Zm0,.818a4.213,4.213,0,0,0-2.028.534,3.829,3.829,0,0,0-1.543,1.525,4.11,4.11,0,0,0-.009,4.114,3.875,3.875,0,0,0,1.53,1.527,4.108,4.108,0,0,0,4.1,0,3.847,3.847,0,0,0,1.525-1.527,4.134,4.134,0,0,0-.008-4.114,3.809,3.809,0,0,0-1.543-1.525,4.227,4.227,0,0,0-2.024-.534Zm-2.169,6.857h.859V16.164h.5a1.1,1.1,0,0,1,.689.183,4.309,4.309,0,0,1,.9,1.236l.472.839h1.048l-.648-1.04a6,6,0,0,0-.787-1.055,1.407,1.407,0,0,0-.452-.282,1.652,1.652,0,0,0,1.1-.486,1.413,1.413,0,0,0,.417-1.015,1.379,1.379,0,0,0-.248-.78,1.335,1.335,0,0,0-.67-.515,4.486,4.486,0,0,0-1.356-.145h-1.828v5.317Zm.859-2.991h1.042a1.681,1.681,0,0,0,1.017-.224.763.763,0,0,0,.141-1.013.777.777,0,0,0-.363-.277,2.651,2.651,0,0,0-.862-.092h-.975Z" transform="translate(-158.474 -7.44)" fill="#040505" fill-rule="evenodd"/>
      <path id="Path_4630" data-name="Path 4630" d="M188.183,16.569l-8.516,21.362h-3.353l-8.1-21.362h3.753l5.425,15.523a13.8,13.8,0,0,1,.755,2.984h.079a14.317,14.317,0,0,1,.669-2.906l5.676-15.6Z" transform="translate(-134.36 -8.508)" fill="#040505" fill-rule="evenodd"/>
      <path id="Path_4631" data-name="Path 4631" d="M212.259,27.993H197.177A8.008,8.008,0,0,0,199.1,33.5a6.633,6.633,0,0,0,5.049,1.936,10.466,10.466,0,0,0,6.63-2.378v3.212a12.357,12.357,0,0,1-7.441,2.043,9.037,9.037,0,0,1-7.114-2.9q-2.593-2.915-2.591-8.189a11.7,11.7,0,0,1,2.826-8.125,9.063,9.063,0,0,1,7.022-3.14,8.025,8.025,0,0,1,6.487,2.713q2.3,2.7,2.293,7.526v1.794Zm-3.5-2.9a7.024,7.024,0,0,0-1.425-4.614,4.88,4.88,0,0,0-3.917-1.645,5.53,5.53,0,0,0-4.108,1.731,7.872,7.872,0,0,0-2.087,4.528Z" transform="translate(-139.019 -8.396)" fill="#040505" fill-rule="evenodd"/>
      <path id="Path_4632" data-name="Path 4632" d="M239.083,37.82h-3.424V25.636q0-6.8-4.964-6.8a5.372,5.372,0,0,0-4.243,1.931,7.126,7.126,0,0,0-1.682,4.87V37.82h-3.424V16.457h3.424V20h.087a7.694,7.694,0,0,1,7.005-4.044,6.536,6.536,0,0,1,5.362,2.265c1.24,1.5,1.859,3.688,1.859,6.537Z" transform="translate(-144.1 -8.396)" fill="#040505" fill-rule="evenodd"/>
      <path id="Path_4633" data-name="Path 4633" d="M266.7,37.931h-3.419V34.549h-.084A7.019,7.019,0,0,1,256.6,38.43q-7.637,0-7.633-9.093V16.569h3.4V28.8q0,6.761,5.176,6.757a5.244,5.244,0,0,0,4.122-1.843,7.079,7.079,0,0,0,1.616-4.828V16.569H266.7Z" transform="translate(-149.164 -8.508)" fill="#040505" fill-rule="evenodd"/>
      <path id="Path_4634" data-name="Path 4634" d="M294.54,27.993H279.459a8,8,0,0,0,1.922,5.512,6.63,6.63,0,0,0,5.048,1.936,10.47,10.47,0,0,0,6.631-2.378v3.212a12.36,12.36,0,0,1-7.441,2.043,9.032,9.032,0,0,1-7.114-2.9q-2.6-2.915-2.592-8.189A11.7,11.7,0,0,1,278.74,19.1a9.061,9.061,0,0,1,7.02-3.14,8.029,8.029,0,0,1,6.488,2.713q2.3,2.7,2.292,7.526v1.794Zm-3.5-2.9a7.019,7.019,0,0,0-1.423-4.614,4.88,4.88,0,0,0-3.917-1.645,5.532,5.532,0,0,0-4.109,1.731,7.856,7.856,0,0,0-2.087,4.528Z" transform="translate(-154.104 -8.396)" fill="#040505" fill-rule="evenodd"/>
      <path id="Path_4635" data-name="Path 4635" d="M165.026,36.612,153.946,6.7h-3.86L139.241,36.612h3.9l8.281-23.719a14.286,14.286,0,0,0,.605-2.648h.078a13.142,13.142,0,0,0,.691,2.692l8.452,23.676Z" transform="translate(-129.047 -6.698)" fill="#040505" fill-rule="evenodd"/>
      <path id="Path_4636" data-name="Path 4636" d="M153.786,33.145,151.477,26.8l-24.718.028Z" transform="translate(-126.759 -10.384)" fill="#cc111b" fill-rule="evenodd"/>
    </g>
  </g>
</svg>
