<svg xmlns="http://www.w3.org/2000/svg" width="1434.001" height="905.746" viewBox="0 0 1434.001 905.746">
  <g id="Group_1289" data-name="Group 1289" transform="translate(-314 -1508)">
    <g id="Group_1288" data-name="Group 1288" transform="translate(71 53)">
      <path id="Path_3437" data-name="Path 3437" d="M2912.056,727.316c1.931-120.112,98.925-217.106,219.037-219.037V421.986c-167.77,1.944-303.386,137.56-305.33,305.33Z" transform="translate(-2174.74 1176.91)" fill="#f37020" opacity="0.2"/>
      <path id="Path_3438" data-name="Path 3438" d="M2912.056,593.431h-86.293c1.943,167.77,137.56,303.386,305.33,305.33V812.468C3010.981,810.536,2913.985,713.543,2912.056,593.431Z" transform="translate(-2174.74 1318.089)" fill="#f37020" opacity="0.2"/>
      <path id="Path_3439" data-name="Path 3439" d="M3216.244,727.316h86.294c-1.944-167.77-137.561-303.386-305.331-305.33V508.28C3117.319,510.211,3214.313,607.2,3216.244,727.316Z" transform="translate(-2033.559 1176.91)" fill="#f37020" opacity="0.2"/>
      <path id="Path_3440" data-name="Path 3440" d="M3216.244,593.431c-1.929,120.112-98.925,217.105-219.037,219.036v86.294c167.77-1.944,303.386-137.562,305.331-305.33Z" transform="translate(-2033.559 1318.089)" fill="#f37020" opacity="0.2"/>
      <text id="Digital_Payments_solutions_Enterprise_Software_platforms_provider" data-name="Digital Payments solutions
&amp; Enterprise Software platforms provider" transform="translate(286 1677)" fill="#b5b5b5" font-size="21" font-family="Poppins-Regular, Poppins"><tspan x="0" y="22">Digital Payments solutions</tspan><tspan x="0" y="52">&amp; Enterprise Software platforms </tspan><tspan x="0" y="82">provider</tspan></text>
      <text id="Fintech_company_in_India_with_profitable_track_record" data-name="Fintech company in India,
with profitable track 
record" transform="translate(1276 1677)" fill="#b5b5b5" font-size="21" font-family="Poppins-Regular, Poppins"><tspan x="97.738" y="22">Fintech company in India,</tspan><tspan x="157.315" y="52">with profitable track </tspan><tspan x="297.931" y="82">record</tspan></text>
      <text id="_In_terms_of_revenue_market_share_and_payments_value_processed" data-name="*In terms of revenue market share and payments value processed" transform="translate(1147 2197)" fill="#b5b5b5" font-size="12.249" font-family="Poppins-Regular, Poppins"><tspan x="94.386" y="22" baseline-shift="6.999300001743786">*</tspan><tspan y="22" font-size="21">In terms of revenue market share and </tspan><tspan x="209.896" y="52" font-size="21">payments value processed</tspan></text>
      <text id="_In_terms_of_payments_value_processed_among_digital_payment_solution_providers" data-name="**In terms of payments value processed among digital payment solution providers" transform="translate(1155 2276)" fill="#b5b5b5" font-size="12.249" font-family="Poppins-Regular, Poppins"><tspan x="73.125" y="22" baseline-shift="6.999300001743786">**</tspan><tspan y="22" font-size="21">In terms of payments value processed </tspan><tspan x="45.866" y="52" font-size="21">among digital payment solution providers</tspan></text>
      <text id="Offering_Fintech_portfolio_comprising_Payments_Acquiring_Payments_Issuance_Remittances_Enterprise_Software_Platforms" data-name="Offering Fintech portfolio comprising Payments Acquiring, Payments Issuance, Remittances &amp; Enterprise Software Platforms" transform="translate(286 2194)" fill="#b5b5b5" font-size="21" font-family="Poppins-Regular, Poppins"><tspan x="0" y="22">Offering Fintech portfolio comprising </tspan><tspan x="0" y="52">Payments Acquiring, Payments Issuance, </tspan><tspan x="0" y="82">Remittances &amp; Enterprise Software </tspan><tspan x="0" y="112">Platforms</tspan></text>
      <text id="India_s_leading" data-name="India’s leading" transform="translate(284 1609)" fill="#333e63" font-size="36" font-family="Poppins-SemiBold, Poppins" font-weight="600"><tspan x="0" y="38">India’s leading</tspan></text>
      <text id="Only_Publicly-listed" data-name="Only Publicly-listed" transform="translate(1278 1609)" fill="#333e63" font-size="36" font-family="Poppins-SemiBold, Poppins" font-weight="600"><tspan x="9.808" y="38">Only Publicly-listed</tspan></text>
      <text id="Ranks_3rd_in_India_2nd_in_the_UAE_" data-name="Ranks 3rd in India* &amp; 2nd in the UAE**" transform="translate(1245 2089)" fill="#333e63" font-size="36" font-family="Poppins-SemiBold, Poppins" font-weight="600"><tspan x="44.202" y="38">Ranks 3</tspan><tspan y="38" font-size="20.999" baseline-shift="11.998800158684602">rd</tspan><tspan y="38" xml:space="preserve"> in India</tspan><tspan y="38" font-size="20.999" baseline-shift="11.998800158684602">*</tspan><tspan y="38" xml:space="preserve"> &amp; </tspan><tspan x="139.96" y="80">2</tspan><tspan y="80" font-size="20.999" baseline-shift="11.998800158684602">nd</tspan><tspan y="80" xml:space="preserve"> in the UAE</tspan><tspan y="80" font-size="20.999" baseline-shift="11.998800158684602">**</tspan></text>
      <text id="Only_Fintech_Company" data-name="Only Fintech Company" transform="translate(284 2126)" fill="#333e63" font-size="36" font-family="Poppins-SemiBold, Poppins" font-weight="600"><tspan x="0" y="38">Only Fintech Company</tspan></text>
      <path id="Path_3436" data-name="Path 3436" d="M3277.734,505.97v-135.7a26.648,26.648,0,0,0-26.646-26.646H2629.194a26.647,26.647,0,0,0-26.646,26.646V726.284a26.647,26.647,0,0,0,26.646,26.646h394.45a26.707,26.707,0,0,0,25.848-20.211,275.6,275.6,0,0,1,207.145-200.694A26.737,26.737,0,0,0,3277.734,505.97Z" transform="translate(-2358.549 1112.379)" fill="none" stroke="#f37020" stroke-miterlimit="10" stroke-width="2"/>
      <path id="Path_3434" data-name="Path 3434" d="M3017.59,370.342V507.1a26.733,26.733,0,0,0,20.676,25.962,275.633,275.633,0,0,1,202.9,199.708A26.718,26.718,0,0,0,3267.015,753h399.113a26.647,26.647,0,0,0,26.648-26.646V370.342a26.647,26.647,0,0,0-26.648-26.646H3044.236A26.645,26.645,0,0,0,3017.59,370.342Z" transform="translate(-2016.775 1112.441)" fill="none" stroke="#f37020" stroke-miterlimit="10" stroke-width="2"/>
      <path id="Path_3444" data-name="Path 3444" d="M3021.192,614.773h-392a26.647,26.647,0,0,0-26.646,26.646V997.436a26.647,26.647,0,0,0,26.646,26.646h621.893a26.648,26.648,0,0,0,26.646-26.646V872.224a26.7,26.7,0,0,0-21.043-26.039,275.538,275.538,0,0,1-209.436-210.258A26.707,26.707,0,0,0,3021.192,614.773Z" transform="translate(-2358.549 1335.663)" fill="none" stroke="#f37020" stroke-miterlimit="10" stroke-width="2"/>
      <path id="Path_3446" data-name="Path 3446" d="M3243.4,636.024A275.574,275.574,0,0,1,3038.213,845.3a26.7,26.7,0,0,0-20.623,25.944V997.51a26.645,26.645,0,0,0,26.646,26.646h621.891a26.647,26.647,0,0,0,26.648-26.646V641.494a26.647,26.647,0,0,0-26.648-26.646H3269.469A26.72,26.72,0,0,0,3243.4,636.024Z" transform="translate(-2016.775 1335.588)" fill="none" stroke="#f37020" stroke-miterlimit="10" stroke-width="2"/>
      <g id="Group_1126" data-name="Group 1126" transform="translate(192.162 1415.164)">
        <path id="Path_3457" data-name="Path 3457" d="M141.422,74.956a2.734,2.734,0,0,1,1.42-.05.8.8,0,0,1,.363.227c.628.576,1.317,1.08,1.964,1.634.238.227.5-.045.7-.183a2.544,2.544,0,0,1,1.642-.615c.437.015.71.4.939.72a.779.779,0,0,1,.049.815c-.206.47-.643.8-.836,1.274a.95.95,0,0,0,.271,1.046.56.56,0,0,1,.227.621,3.485,3.485,0,0,1-.589.831c-.129.143-.33.092-.494.068.091.75.771,1.2,1.365,1.557.473.283,1.08.189,1.54.488a2.682,2.682,0,0,1,.288,1.057c-.133.5-.793.6-.941,1.1a.392.392,0,0,0,.143.456c.3.243.727.223,1.018.477a1.151,1.151,0,0,0,.542.325,11.73,11.73,0,0,1,1.739.388c.663.286,1.393-.053,2.072.167.658.143,1.039.818,1.71.927.385.1.72-.176,1.1-.2a5.36,5.36,0,0,1,.7.219c.437-.087.66-.528.887-.865a2.42,2.42,0,0,1-.63-1.083c0-.314.317-.456.528-.624.194-.136.472-.375.694-.156.353.383.089.967.3,1.406a.651.651,0,0,0,.435.227,5.48,5.48,0,0,0,1.211.126,3.405,3.405,0,0,0,.883-.259c.335-.118.7-.076,1.038-.193.216-.084.331-.3.476-.471-.3-.2-.707-.367-.78-.758.024-.317.407-.287.629-.38a2.054,2.054,0,0,0,1.2-1.168c.321-.178.494-.519.8-.722a1.408,1.408,0,0,1,1.253-.343.535.535,0,0,0,.629-.263c.165-.28.489-.057.7.033.289.089.412.38.554.616.278-.007.656-.189.869.063a12.916,12.916,0,0,1,.032,1.459c-.019.155.066.476-.187.456a1.213,1.213,0,0,0-1.086.451,6.6,6.6,0,0,1-.9.88,1.79,1.79,0,0,1,.328,1.027,3.607,3.607,0,0,1-.317.673c.386.432.15,1.057-.013,1.537a1.153,1.153,0,0,1-1.234.607,3.907,3.907,0,0,1,0,1.689c-.042.4.14.841-.079,1.211-.236.307-.668.1-.844-.161-.434-.553-.327-1.291-.526-1.925-.484.182-.581.782-1.041,1-.173.158-.41-.024-.407-.227a5.576,5.576,0,0,0-.147-1.3c-.053-.276.187-.459.4-.567a1.14,1.14,0,0,0,.531-.838,2.178,2.178,0,0,0-.5-.229,4.494,4.494,0,0,1-1.881.571c-.394-.33-1.089-.5-1-1.148-.134-.093-.269-.186-.4-.277-.329.174-.78.439-1.091.082-.078.089-.156.18-.231.27.308.174.777.169.93.538.1.336-.147.623-.37.839a.421.421,0,0,0,.17.725c.519.04.516.646.571,1.032a3.325,3.325,0,0,0,.414,1.229,1.914,1.914,0,0,1-.029,1.446c-.309.252-.713-.071-1.065-.01-.149.194-.212.475-.448.592-.217.08-.455.079-.678.138-.146.484.232.945.192,1.432-.038.252-.313.339-.492.476-.39.236-.649.634-1.041.867a6.722,6.722,0,0,1-.878.249,2.519,2.519,0,0,1-.459,1.081,3.7,3.7,0,0,1-1.089,1.163c-.428.307-.651.8-1.027,1.16-.189.187-.46.27-.637.466-.107.322.119.709-.125,1-.237.344-.687.167-1.031.224-.27.207-.355.588-.662.753-.274.115-.59.045-.862.158-.265.264-.032.662.068.957.052.21.28.439.135.653-.105.113,0,.258.023.381a4.368,4.368,0,0,1,.361,1.753c-.076.615-.546,1.083-.686,1.678a4.033,4.033,0,0,1-.013.917c-.077.352.161.667.159,1.014-.1.344-.447.509-.725.683-.112.459.307.818.6,1.111l-.115.212a3.076,3.076,0,0,0-1.5,0,1.563,1.563,0,0,0-.577.974.883.883,0,0,1-1.035.687,3.1,3.1,0,0,1-1.108-.564,2.345,2.345,0,0,1-.7-1.911c.038-.543-.4-.932-.594-1.4a5.148,5.148,0,0,0-.99-1.416c-.9-1.17-1.112-2.67-1.637-4.012-.381.009-.431-.436-.59-.691-.17-.4-.6-.62-.766-1.019-.05-.332.089-.663.05-1-.071-.826-.769-1.462-.754-2.306a4.416,4.416,0,0,0-.212-1.72,1.213,1.213,0,0,1,.269-1.446c-.089-.342-.2-.677-.3-1.017a9.126,9.126,0,0,1-.128-1.057c-.332.477-.09,1.159-.423,1.656-.211.455-.753.477-1.159.655a1.389,1.389,0,0,1-1.346-.295c-.552-.531-1.268-.862-1.777-1.442a.3.3,0,0,1,.018-.456c.495-.346,1.246-.236,1.618-.776a3.523,3.523,0,0,1-1.681-.126c-.254-.049-.381-.3-.549-.469-.188-.234-.459-.419-.561-.712-.055-.276.208-.449.4-.582a2.024,2.024,0,0,1,.878-.431c.464.05.951.315,1.4.063a1.463,1.463,0,0,1,.962-.153,2.707,2.707,0,0,0-.216-.966,8.932,8.932,0,0,0-.667-.8,7.928,7.928,0,0,0-.576-1.144,1.487,1.487,0,0,1,.494-2.03c.521-.216,1.055.183,1.587.092a1.259,1.259,0,0,0,.287-.324,12.32,12.32,0,0,1,.953-1.145,6.06,6.06,0,0,0,.994-1.217,5.228,5.228,0,0,0,.285-.932,9.326,9.326,0,0,1,.99-1.281c.227-.32-.219-.7,0-1.031a3.175,3.175,0,0,1,.51-.45c-.2-.15-.4-.291-.592-.438a.839.839,0,0,1-1.048-.481c-.086-.219.06-.412.169-.59-.22-.325-.591-.54-.744-.909-.1-.555.419-.924.825-1.188a2.683,2.683,0,0,0-1.279-1.021c-.241-.092-.635.019-.741-.278.012-.393.363-.659.634-.9A4.586,4.586,0,0,1,141.422,74.956Z" transform="translate(-9.152)" fill="#f37020"/>
        <rect id="Rectangle_846" data-name="Rectangle 846" width="90.372" height="3.092" transform="translate(91.838 158.813)" fill="#f37020"/>
        <path id="Path_3458" data-name="Path 3458" d="M114.243,178.572h-3.093V162.218h-5.692v16.355h-3.092V162.06a2.938,2.938,0,0,1,2.934-2.935h6.008a2.939,2.939,0,0,1,2.934,2.935Z" transform="translate(-2.275 -18.213)" fill="#f37020"/>
        <path id="Path_3459" data-name="Path 3459" d="M134.012,174.689H130.92V144.246h-5.693v30.443h-3.093v-30.6a2.938,2.938,0,0,1,2.935-2.934h6.008a2.937,2.937,0,0,1,2.934,2.934Z" transform="translate(-6.547 -14.33)" fill="#f37020"/>
        <path id="Path_3460" data-name="Path 3460" d="M153.781,177.019h-3.092v-21.99H145v21.99H141.9V154.871a2.938,2.938,0,0,1,2.934-2.934h6.009a2.937,2.937,0,0,1,2.934,2.934Z" transform="translate(-10.818 -16.66)" fill="#f37020"/>
        <path id="Path_3461" data-name="Path 3461" d="M173.55,174.495h-3.093V143.348h-5.692v31.147h-3.092V143.189a2.938,2.938,0,0,1,2.934-2.934h6.008a2.938,2.938,0,0,1,2.934,2.934Z" transform="translate(-15.09 -14.136)" fill="#f37020"/>
        <path id="Path_3462" data-name="Path 3462" d="M193.319,169.447h-3.092V119.984h-5.692v49.463h-3.093v-49.62a2.938,2.938,0,0,1,2.934-2.934h6.007a2.938,2.938,0,0,1,2.935,2.934Z" transform="translate(-19.362 -9.087)" fill="#f37020"/>
        <path id="Path_3463" data-name="Path 3463" d="M105.08,142.42l-2.047-2.316,25.405-22.457L139.5,129.416l35.8-34.034,2.132,2.241L139.383,133.8,128.239,121.95Z" transform="translate(-2.419 -4.439)" fill="#f37020"/>
        <path id="Path_3464" data-name="Path 3464" d="M195.227,103.3l-3.056-.464.88-5.807L186.809,98.3l-.622-3.029,10.584-2.169Z" transform="translate(-20.387 -3.948)" fill="#f37020"/>
      </g>
      <g id="Group_1138" data-name="Group 1138" transform="translate(-955.684 1926.822)">
        <g id="Group_1127" data-name="Group 1127" transform="translate(1240.877 153.234)">
          <path id="Path_3465" data-name="Path 3465" d="M1309.511,183.046h-64.888a3.573,3.573,0,0,1-3.568-3.569V166.669a3.571,3.571,0,0,1,3.568-3.567h64.888a3.572,3.572,0,0,1,3.57,3.567v12.808A3.574,3.574,0,0,1,1309.511,183.046Zm-64.888-16.511a.141.141,0,0,0-.134.134v12.808a.14.14,0,0,0,.134.135h64.888a.141.141,0,0,0,.136-.135V166.669a.14.14,0,0,0-.136-.134Z" transform="translate(-1241.055 -163.102)" fill="#f37020"/>
        </g>
        <g id="Group_1132" data-name="Group 1132" transform="translate(1246.609 110.239)">
          <g id="Group_1128" data-name="Group 1128">
            <rect id="Rectangle_847" data-name="Rectangle 847" width="3.433" height="44.712" fill="#f37020"/>
          </g>
          <g id="Group_1129" data-name="Group 1129" transform="translate(9.742)">
            <rect id="Rectangle_848" data-name="Rectangle 848" width="3.433" height="44.712" fill="#f37020"/>
          </g>
          <g id="Group_1130" data-name="Group 1130" transform="translate(57.175)">
            <rect id="Rectangle_849" data-name="Rectangle 849" width="3.433" height="44.712" fill="#f37020"/>
          </g>
          <g id="Group_1131" data-name="Group 1131" transform="translate(47.433)">
            <rect id="Rectangle_850" data-name="Rectangle 850" width="3.433" height="44.712" fill="#f37020"/>
          </g>
        </g>
        <g id="Group_1133" data-name="Group 1133" transform="translate(1239.684 86.951)">
          <path id="Path_3466" data-name="Path 3466" d="M1311.565,112.439h-69.3a2.547,2.547,0,0,1-2.249-1.409,2.962,2.962,0,0,1,.187-3.037l14.917-18.1a6.669,6.669,0,0,1,5.443-2.943h32.7A6.763,6.763,0,0,1,1298.79,90l14.753,17.885a3,3,0,0,1,.269,3.145A2.547,2.547,0,0,1,1311.565,112.439ZM1243.81,109h66.213l-13.963-16.927a3.5,3.5,0,0,0-2.795-1.694h-32.7a3.387,3.387,0,0,0-2.712,1.587Z" transform="translate(-1239.684 -86.951)" fill="#f37020"/>
        </g>
        <g id="Group_1134" data-name="Group 1134" transform="translate(1266.105 119.036)">
          <rect id="Rectangle_851" data-name="Rectangle 851" width="29.977" height="3.433" transform="translate(0 23.22) rotate(-50.768)" fill="#f37020"/>
        </g>
        <g id="Group_1135" data-name="Group 1135" transform="translate(1265.258 118.928)">
          <path id="Path_3467" data-name="Path 3467" d="M1273.873,133.306a4.809,4.809,0,1,1,4.81-4.809A4.815,4.815,0,0,1,1273.873,133.306Zm0-6.184a1.376,1.376,0,1,0,1.376,1.375A1.376,1.376,0,0,0,1273.873,127.122Z" transform="translate(-1269.065 -123.689)" fill="#f37020"/>
        </g>
        <g id="Group_1136" data-name="Group 1136" transform="translate(1278.951 135.698)">
          <path id="Path_3468" data-name="Path 3468" d="M1289.607,152.573a4.809,4.809,0,1,1,4.808-4.81A4.815,4.815,0,0,1,1289.607,152.573Zm0-6.185a1.376,1.376,0,1,0,1.374,1.375A1.377,1.377,0,0,0,1289.607,146.388Z" transform="translate(-1284.797 -142.955)" fill="#f37020"/>
        </g>
        <g id="Group_1137" data-name="Group 1137" transform="translate(1312.045 90.472)">
          <path id="Path_3469" data-name="Path 3469" d="M1332.728,172.949h-3.433V106.695h-6.478l12.82-15.7,12.82,15.7h-6.478v43.352l-9.251.181Zm-2.676-69.688h2.676V146.8l5.818-.114V103.262h2.676l-5.585-6.837Z" transform="translate(-1322.817 -90.996)" fill="#f37020"/>
        </g>
      </g>
      <g id="Group_1171" data-name="Group 1171" transform="translate(-65.847 1412.211)">
        <g id="Group_1139" data-name="Group 1139" transform="translate(1633.366 167.464)">
          <rect id="Rectangle_852" data-name="Rectangle 852" width="75.481" height="3.324" fill="#f37020"/>
        </g>
        <g id="Group_1140" data-name="Group 1140" transform="translate(1639.92 90.123)">
          <path id="Path_3470" data-name="Path 3470" d="M1644.467,170.415h-3.324v-79h49.393v20.71h-3.325V94.737h-42.744Z" transform="translate(-1641.143 -91.412)" fill="#f37020"/>
        </g>
        <g id="Group_1141" data-name="Group 1141" transform="translate(1646.875 83.213)">
          <path id="Path_3471" data-name="Path 3471" d="M1684.877,91.786h-3.324V86.538h-28.834v5.248h-3.324V83.213h35.483Z" transform="translate(-1649.394 -83.213)" fill="#f37020"/>
        </g>
        <g id="Group_1145" data-name="Group 1145" transform="translate(1645.824 97.742)">
          <g id="Group_1142" data-name="Group 1142">
            <rect id="Rectangle_853" data-name="Rectangle 853" width="9.921" height="3.324" fill="#f37020"/>
          </g>
          <g id="Group_1143" data-name="Group 1143" transform="translate(13.832)">
            <rect id="Rectangle_854" data-name="Rectangle 854" width="9.921" height="3.324" fill="#f37020"/>
          </g>
          <g id="Group_1144" data-name="Group 1144" transform="translate(27.662)">
            <rect id="Rectangle_855" data-name="Rectangle 855" width="9.923" height="3.324" fill="#f37020"/>
          </g>
        </g>
        <g id="Group_1152" data-name="Group 1152" transform="translate(1645.824 107.753)">
          <g id="Group_1146" data-name="Group 1146">
            <rect id="Rectangle_856" data-name="Rectangle 856" width="9.921" height="3.324" fill="#f37020"/>
          </g>
          <g id="Group_1147" data-name="Group 1147" transform="translate(0 11.162)">
            <rect id="Rectangle_857" data-name="Rectangle 857" width="1.889" height="3.324" fill="#f37020"/>
          </g>
          <g id="Group_1148" data-name="Group 1148" transform="translate(0 22.193)">
            <rect id="Rectangle_858" data-name="Rectangle 858" width="1.889" height="3.324" fill="#f37020"/>
          </g>
          <g id="Group_1149" data-name="Group 1149" transform="translate(0 33.178)">
            <rect id="Rectangle_859" data-name="Rectangle 859" width="1.889" height="3.324" fill="#f37020"/>
          </g>
          <g id="Group_1150" data-name="Group 1150" transform="translate(13.832)">
            <rect id="Rectangle_860" data-name="Rectangle 860" width="9.921" height="3.324" fill="#f37020"/>
          </g>
          <g id="Group_1151" data-name="Group 1151" transform="translate(27.662)">
            <rect id="Rectangle_861" data-name="Rectangle 861" width="9.923" height="3.324" fill="#f37020"/>
          </g>
        </g>
        <g id="Group_1153" data-name="Group 1153" transform="translate(1654.648 155.239)">
          <path id="Path_3472" data-name="Path 3472" d="M1676.738,182.56h-3.324V172h-11.472V182.56h-3.324V168.672h18.12Z" transform="translate(-1658.618 -168.672)" fill="#f37020"/>
        </g>
        <g id="Group_1154" data-name="Group 1154" transform="translate(1685.989 156.901)">
          <rect id="Rectangle_862" data-name="Rectangle 862" width="3.324" height="12.226" fill="#f37020"/>
        </g>
        <g id="Group_1155" data-name="Group 1155" transform="translate(1651.283 115.085)">
          <path id="Path_3473" data-name="Path 3473" d="M1711.568,159.635h-56.943V121.03h3.324v35.281h53.618Z" transform="translate(-1654.625 -121.03)" fill="#f37020"/>
        </g>
        <g id="Group_1156" data-name="Group 1156" transform="translate(1656.731 113.468)">
          <path id="Path_3474" data-name="Path 3474" d="M1674.234,139.657l-13.145-13.146,2.35-2.351,10.795,10.8,15.15-15.149,7.7,7.7,8.392-8.392,2.35,2.351L1697.08,132.2l-7.7-7.7Z" transform="translate(-1661.089 -119.11)" fill="#f37020"/>
        </g>
        <g id="Group_1167" data-name="Group 1167" transform="translate(1655.964 135.269)">
          <g id="Group_1157" data-name="Group 1157" transform="translate(3.849 8.156)">
            <path id="Path_3475" data-name="Path 3475" d="M1670.872,154.761a5.167,5.167,0,0,1-4.86,0,.856.856,0,0,0-.823,1.5,6.874,6.874,0,0,0,6.509,0,.856.856,0,1,0-.825-1.5Z" transform="translate(-1664.746 -154.655)" fill="#f37020"/>
          </g>
          <g id="Group_1158" data-name="Group 1158" transform="translate(5.058 4.554)">
            <path id="Path_3476" data-name="Path 3476" d="M1667.891,151.236a.855.855,0,1,1-.855-.855A.855.855,0,0,1,1667.891,151.236Z" transform="translate(-1666.18 -150.381)" fill="#f37020"/>
          </g>
          <g id="Group_1159" data-name="Group 1159" transform="translate(8.324 4.554)">
            <path id="Path_3477" data-name="Path 3477" d="M1671.766,151.236a.855.855,0,1,1-.855-.855A.855.855,0,0,1,1671.766,151.236Z" transform="translate(-1670.055 -150.381)" fill="#f37020"/>
          </g>
          <g id="Group_1160" data-name="Group 1160" transform="translate(0 0)">
            <path id="Path_3478" data-name="Path 3478" d="M1706.316,158.193a7.133,7.133,0,1,0-7.381,0,10.51,10.51,0,0,0-4.575,3.395h2.295a8.75,8.75,0,0,1,11.669-.255.84.84,0,0,0,1.2-.08.857.857,0,0,0-.08-1.211A10.7,10.7,0,0,0,1706.316,158.193Zm-9.1-6.089a5.412,5.412,0,1,1,5.4,5.419A5.412,5.412,0,0,1,1697.214,152.1Zm-8.337,6.089a7.125,7.125,0,1,0-7.4,0,10.23,10.23,0,0,0-4.559,3.395h2.312a8.672,8.672,0,0,1,11.891,0h2.312A10.412,10.412,0,0,0,1688.877,158.193Zm-9.118-6.089a5.42,5.42,0,1,1,5.419,5.419A5.415,5.415,0,0,1,1679.759,152.1Zm-8.337,6.089a7.126,7.126,0,1,0-7.4,0,10.458,10.458,0,0,0-3.587,2.295.832.832,0,0,0-.1,1.1.292.292,0,0,0,.079.112.872.872,0,0,0,1.212.016,1.018,1.018,0,0,1,.143-.128,8.693,8.693,0,0,1,11.908,0h2.295a7.549,7.549,0,0,0-.876-1.02A10.448,10.448,0,0,0,1671.422,158.193ZM1662.3,152.1a5.42,5.42,0,1,1,5.42,5.419A5.426,5.426,0,0,1,1662.3,152.1Z" transform="translate(-1660.178 -144.978)" fill="#f37020"/>
          </g>
          <g id="Group_1161" data-name="Group 1161" transform="translate(38.749 8.156)">
            <path id="Path_3479" data-name="Path 3479" d="M1712.281,154.761a5.167,5.167,0,0,1-4.86,0,.856.856,0,0,0-.823,1.5,6.874,6.874,0,0,0,6.509,0,.856.856,0,1,0-.825-1.5Z" transform="translate(-1706.155 -154.655)" fill="#f37020"/>
          </g>
          <g id="Group_1162" data-name="Group 1162" transform="translate(39.959 4.554)">
            <path id="Path_3480" data-name="Path 3480" d="M1709.3,151.236a.855.855,0,1,1-.855-.855A.855.855,0,0,1,1709.3,151.236Z" transform="translate(-1707.59 -150.381)" fill="#f37020"/>
          </g>
          <g id="Group_1163" data-name="Group 1163" transform="translate(43.224 4.554)">
            <path id="Path_3481" data-name="Path 3481" d="M1713.175,151.236a.855.855,0,1,1-.855-.855A.855.855,0,0,1,1713.175,151.236Z" transform="translate(-1711.464 -150.381)" fill="#f37020"/>
          </g>
          <g id="Group_1164" data-name="Group 1164" transform="translate(21.299 8.156)">
            <path id="Path_3482" data-name="Path 3482" d="M1691.577,154.761a5.168,5.168,0,0,1-4.861,0,.855.855,0,0,0-.823,1.5,6.874,6.874,0,0,0,6.509,0,.856.856,0,1,0-.825-1.5Z" transform="translate(-1685.45 -154.655)" fill="#f37020"/>
          </g>
          <g id="Group_1165" data-name="Group 1165" transform="translate(22.509 4.554)">
            <path id="Path_3483" data-name="Path 3483" d="M1688.6,151.236a.855.855,0,1,1-.855-.855A.855.855,0,0,1,1688.6,151.236Z" transform="translate(-1686.885 -150.381)" fill="#f37020"/>
          </g>
          <g id="Group_1166" data-name="Group 1166" transform="translate(25.775 4.554)">
            <path id="Path_3484" data-name="Path 3484" d="M1692.471,151.236a.855.855,0,1,1-.855-.855A.855.855,0,0,1,1692.471,151.236Z" transform="translate(-1690.76 -150.381)" fill="#f37020"/>
          </g>
        </g>
        <g id="Group_1168" data-name="Group 1168" transform="translate(1656.129 150.767)">
          <path id="Path_3485" data-name="Path 3485" d="M1660.374,163.366h1.435a1.065,1.065,0,0,0-.143.127.871.871,0,0,1-1.212-.016A.283.283,0,0,1,1660.374,163.366Z" transform="translate(-1660.374 -163.366)" fill="#f37020"/>
        </g>
        <g id="Group_1169" data-name="Group 1169" transform="translate(1671.766 150.767)">
          <path id="Path_3486" data-name="Path 3486" d="M1678.928,163.366h.941a5.865,5.865,0,0,0-.462.638A6.134,6.134,0,0,0,1678.928,163.366Z" transform="translate(-1678.928 -163.366)" fill="#f37020"/>
        </g>
        <g id="Group_1170" data-name="Group 1170" transform="translate(1689.222 150.767)">
          <path id="Path_3487" data-name="Path 3487" d="M1700.564,163.366c-.159.207-.319.415-.463.638a5.865,5.865,0,0,0-.462-.638Z" transform="translate(-1699.639 -163.366)" fill="#f37020"/>
        </g>
      </g>
      <g id="Group_1172" data-name="Group 1172" transform="translate(-65.847 1902.211)">
        <g id="Group_1139-2" data-name="Group 1139" transform="translate(1633.366 167.464)">
          <rect id="Rectangle_852-2" data-name="Rectangle 852" width="75.481" height="3.324" fill="#f37020"/>
        </g>
        <g id="Group_1140-2" data-name="Group 1140" transform="translate(1639.92 90.123)">
          <path id="Path_3470-2" data-name="Path 3470" d="M1644.467,170.415h-3.324v-79h49.393v20.71h-3.325V94.737h-42.744Z" transform="translate(-1641.143 -91.412)" fill="#f37020"/>
        </g>
        <g id="Group_1141-2" data-name="Group 1141" transform="translate(1646.875 83.213)">
          <path id="Path_3471-2" data-name="Path 3471" d="M1684.877,91.786h-3.324V86.538h-28.834v5.248h-3.324V83.213h35.483Z" transform="translate(-1649.394 -83.213)" fill="#f37020"/>
        </g>
        <g id="Group_1145-2" data-name="Group 1145" transform="translate(1645.824 97.742)">
          <g id="Group_1142-2" data-name="Group 1142">
            <rect id="Rectangle_853-2" data-name="Rectangle 853" width="9.921" height="3.324" fill="#f37020"/>
          </g>
          <g id="Group_1143-2" data-name="Group 1143" transform="translate(13.832)">
            <rect id="Rectangle_854-2" data-name="Rectangle 854" width="9.921" height="3.324" fill="#f37020"/>
          </g>
          <g id="Group_1144-2" data-name="Group 1144" transform="translate(27.662)">
            <rect id="Rectangle_855-2" data-name="Rectangle 855" width="9.923" height="3.324" fill="#f37020"/>
          </g>
        </g>
        <g id="Group_1152-2" data-name="Group 1152" transform="translate(1645.824 107.753)">
          <g id="Group_1146-2" data-name="Group 1146">
            <rect id="Rectangle_856-2" data-name="Rectangle 856" width="9.921" height="3.324" fill="#f37020"/>
          </g>
          <g id="Group_1147-2" data-name="Group 1147" transform="translate(0 11.162)">
            <rect id="Rectangle_857-2" data-name="Rectangle 857" width="1.889" height="3.324" fill="#f37020"/>
          </g>
          <g id="Group_1148-2" data-name="Group 1148" transform="translate(0 22.193)">
            <rect id="Rectangle_858-2" data-name="Rectangle 858" width="1.889" height="3.324" fill="#f37020"/>
          </g>
          <g id="Group_1149-2" data-name="Group 1149" transform="translate(0 33.178)">
            <rect id="Rectangle_859-2" data-name="Rectangle 859" width="1.889" height="3.324" fill="#f37020"/>
          </g>
          <g id="Group_1150-2" data-name="Group 1150" transform="translate(13.832)">
            <rect id="Rectangle_860-2" data-name="Rectangle 860" width="9.921" height="3.324" fill="#f37020"/>
          </g>
          <g id="Group_1151-2" data-name="Group 1151" transform="translate(27.662)">
            <rect id="Rectangle_861-2" data-name="Rectangle 861" width="9.923" height="3.324" fill="#f37020"/>
          </g>
        </g>
        <g id="Group_1153-2" data-name="Group 1153" transform="translate(1654.648 155.239)">
          <path id="Path_3472-2" data-name="Path 3472" d="M1676.738,182.56h-3.324V172h-11.472V182.56h-3.324V168.672h18.12Z" transform="translate(-1658.618 -168.672)" fill="#f37020"/>
        </g>
        <g id="Group_1154-2" data-name="Group 1154" transform="translate(1685.989 156.901)">
          <rect id="Rectangle_862-2" data-name="Rectangle 862" width="3.324" height="12.226" fill="#f37020"/>
        </g>
        <g id="Group_1155-2" data-name="Group 1155" transform="translate(1651.283 115.085)">
          <path id="Path_3473-2" data-name="Path 3473" d="M1711.568,159.635h-56.943V121.03h3.324v35.281h53.618Z" transform="translate(-1654.625 -121.03)" fill="#f37020"/>
        </g>
        <g id="Group_1156-2" data-name="Group 1156" transform="translate(1656.731 113.468)">
          <path id="Path_3474-2" data-name="Path 3474" d="M1674.234,139.657l-13.145-13.146,2.35-2.351,10.795,10.8,15.15-15.149,7.7,7.7,8.392-8.392,2.35,2.351L1697.08,132.2l-7.7-7.7Z" transform="translate(-1661.089 -119.11)" fill="#f37020"/>
        </g>
        <g id="Group_1167-2" data-name="Group 1167" transform="translate(1655.964 135.269)">
          <g id="Group_1157-2" data-name="Group 1157" transform="translate(3.849 8.156)">
            <path id="Path_3475-2" data-name="Path 3475" d="M1670.872,154.761a5.167,5.167,0,0,1-4.86,0,.856.856,0,0,0-.823,1.5,6.874,6.874,0,0,0,6.509,0,.856.856,0,1,0-.825-1.5Z" transform="translate(-1664.746 -154.655)" fill="#f37020"/>
          </g>
          <g id="Group_1158-2" data-name="Group 1158" transform="translate(5.058 4.554)">
            <path id="Path_3476-2" data-name="Path 3476" d="M1667.891,151.236a.855.855,0,1,1-.855-.855A.855.855,0,0,1,1667.891,151.236Z" transform="translate(-1666.18 -150.381)" fill="#f37020"/>
          </g>
          <g id="Group_1159-2" data-name="Group 1159" transform="translate(8.324 4.554)">
            <path id="Path_3477-2" data-name="Path 3477" d="M1671.766,151.236a.855.855,0,1,1-.855-.855A.855.855,0,0,1,1671.766,151.236Z" transform="translate(-1670.055 -150.381)" fill="#f37020"/>
          </g>
          <g id="Group_1160-2" data-name="Group 1160" transform="translate(0 0)">
            <path id="Path_3478-2" data-name="Path 3478" d="M1706.316,158.193a7.133,7.133,0,1,0-7.381,0,10.51,10.51,0,0,0-4.575,3.395h2.295a8.75,8.75,0,0,1,11.669-.255.84.84,0,0,0,1.2-.08.857.857,0,0,0-.08-1.211A10.7,10.7,0,0,0,1706.316,158.193Zm-9.1-6.089a5.412,5.412,0,1,1,5.4,5.419A5.412,5.412,0,0,1,1697.214,152.1Zm-8.337,6.089a7.125,7.125,0,1,0-7.4,0,10.23,10.23,0,0,0-4.559,3.395h2.312a8.672,8.672,0,0,1,11.891,0h2.312A10.412,10.412,0,0,0,1688.877,158.193Zm-9.118-6.089a5.42,5.42,0,1,1,5.419,5.419A5.415,5.415,0,0,1,1679.759,152.1Zm-8.337,6.089a7.126,7.126,0,1,0-7.4,0,10.458,10.458,0,0,0-3.587,2.295.832.832,0,0,0-.1,1.1.292.292,0,0,0,.079.112.872.872,0,0,0,1.212.016,1.018,1.018,0,0,1,.143-.128,8.693,8.693,0,0,1,11.908,0h2.295a7.549,7.549,0,0,0-.876-1.02A10.448,10.448,0,0,0,1671.422,158.193ZM1662.3,152.1a5.42,5.42,0,1,1,5.42,5.419A5.426,5.426,0,0,1,1662.3,152.1Z" transform="translate(-1660.178 -144.978)" fill="#f37020"/>
          </g>
          <g id="Group_1161-2" data-name="Group 1161" transform="translate(38.749 8.156)">
            <path id="Path_3479-2" data-name="Path 3479" d="M1712.281,154.761a5.167,5.167,0,0,1-4.86,0,.856.856,0,0,0-.823,1.5,6.874,6.874,0,0,0,6.509,0,.856.856,0,1,0-.825-1.5Z" transform="translate(-1706.155 -154.655)" fill="#f37020"/>
          </g>
          <g id="Group_1162-2" data-name="Group 1162" transform="translate(39.959 4.554)">
            <path id="Path_3480-2" data-name="Path 3480" d="M1709.3,151.236a.855.855,0,1,1-.855-.855A.855.855,0,0,1,1709.3,151.236Z" transform="translate(-1707.59 -150.381)" fill="#f37020"/>
          </g>
          <g id="Group_1163-2" data-name="Group 1163" transform="translate(43.224 4.554)">
            <path id="Path_3481-2" data-name="Path 3481" d="M1713.175,151.236a.855.855,0,1,1-.855-.855A.855.855,0,0,1,1713.175,151.236Z" transform="translate(-1711.464 -150.381)" fill="#f37020"/>
          </g>
          <g id="Group_1164-2" data-name="Group 1164" transform="translate(21.299 8.156)">
            <path id="Path_3482-2" data-name="Path 3482" d="M1691.577,154.761a5.168,5.168,0,0,1-4.861,0,.855.855,0,0,0-.823,1.5,6.874,6.874,0,0,0,6.509,0,.856.856,0,1,0-.825-1.5Z" transform="translate(-1685.45 -154.655)" fill="#f37020"/>
          </g>
          <g id="Group_1165-2" data-name="Group 1165" transform="translate(22.509 4.554)">
            <path id="Path_3483-2" data-name="Path 3483" d="M1688.6,151.236a.855.855,0,1,1-.855-.855A.855.855,0,0,1,1688.6,151.236Z" transform="translate(-1686.885 -150.381)" fill="#f37020"/>
          </g>
          <g id="Group_1166-2" data-name="Group 1166" transform="translate(25.775 4.554)">
            <path id="Path_3484-2" data-name="Path 3484" d="M1692.471,151.236a.855.855,0,1,1-.855-.855A.855.855,0,0,1,1692.471,151.236Z" transform="translate(-1690.76 -150.381)" fill="#f37020"/>
          </g>
        </g>
        <g id="Group_1168-2" data-name="Group 1168" transform="translate(1656.129 150.767)">
          <path id="Path_3485-2" data-name="Path 3485" d="M1660.374,163.366h1.435a1.065,1.065,0,0,0-.143.127.871.871,0,0,1-1.212-.016A.283.283,0,0,1,1660.374,163.366Z" transform="translate(-1660.374 -163.366)" fill="#f37020"/>
        </g>
        <g id="Group_1169-2" data-name="Group 1169" transform="translate(1671.766 150.767)">
          <path id="Path_3486-2" data-name="Path 3486" d="M1678.928,163.366h.941a5.865,5.865,0,0,0-.462.638A6.134,6.134,0,0,0,1678.928,163.366Z" transform="translate(-1678.928 -163.366)" fill="#f37020"/>
        </g>
        <g id="Group_1170-2" data-name="Group 1170" transform="translate(1689.222 150.767)">
          <path id="Path_3487-2" data-name="Path 3487" d="M1700.564,163.366c-.159.207-.319.415-.463.638a5.865,5.865,0,0,0-.462-.638Z" transform="translate(-1699.639 -163.366)" fill="#f37020"/>
        </g>
      </g>
      <g id="Ellipse_1758" data-name="Ellipse 1758" transform="translate(717 1662)" fill="none" stroke="#333e63" stroke-width="24">
        <circle cx="243.5" cy="243.5" r="243.5" stroke="none"/>
        <circle cx="243.5" cy="243.5" r="231.5" fill="none"/>
      </g>
    </g>
  </g>
</svg>
