<svg xmlns="http://www.w3.org/2000/svg" width="51.044" height="50.921" viewBox="0 0 51.044 50.921">
  <g id="Group_1120" data-name="Group 1120" transform="translate(-1422 -427.078)">
    <g id="Group_1119" data-name="Group 1119">
      <path id="Path_427" data-name="Path 427" d="M307.53-158.083c12.44-2.88,26.11,4.99,29.69,17.27,3.84,11.17-1.62,24.42-12,29.92a25.726,25.726,0,0,1-30.12-4.06,25.526,25.526,0,0,1-6.45-26A25.73,25.73,0,0,1,307.53-158.083Zm-1.81,11.01c-2.8,4.84.85,9.98,2.89,14.35a16.677,16.677,0,0,0-3.88.3c-1.94,4.31-3.4,8.83-5.38,13.13,9.03.39,18.08.06,27.11.17q-2.7-6.72-5.35-13.46c-.96-.02-2.9-.06-3.86-.09,1.87-4.4,5.7-9.44,2.9-14.27C317.41-152.513,308.57-152.583,305.72-147.073Z" transform="translate(1134.593 585.756)" fill="#333e63"/>
    </g>
    <path id="Path_428" data-name="Path 428" d="M310.34-146.4a4.222,4.222,0,0,1,6.48,1.68c1.87,3.3-2.44,7.56-5.69,5.59A4.233,4.233,0,0,1,310.34-146.4Z" transform="translate(1134.384 585.756)" fill="#333e63"/>
    <path id="Path_429" data-name="Path 429" d="M305.9-130.673c.85-.1,2.54-.31,3.39-.42,1.28,1.89,2.47,3.85,3.68,5.79,1.06-1.78,2.12-3.58,3.07-5.44,1.28-.03,2.56-.04,3.85-.06,1.23,3.33,2.62,6.6,3.85,9.93-7.22-.12-14.45-.01-21.67-.07C303.33-124.193,304.68-127.413,305.9-130.673Z" transform="translate(1134.93 585.756)" fill="#333e63"/>
  </g>
</svg>
