<svg xmlns="http://www.w3.org/2000/svg" width="186.652" height="41.863" viewBox="0 0 186.652 41.863">
  <g id="Group_14784" data-name="Group 14784" transform="translate(-244.348 -86)">
    <g id="Group_1125" data-name="Group 1125" transform="translate(18.943 -1546.854)">
      <path id="Path_3448" data-name="Path 3448" d="M545.618,1683.7l-5.57.01c-1.724,0-4.74.153-6.146,2.463l-4.774,7.844h34.338l-2.2-3.883,0-.006-18.313-32.311c-.983-1.734-1.623-2.324-2.574-2.324h-.558l-1.835.409-1.125.014-2.076,1.383-1.479.336-2.74-.6,1.292,2.318v0l13.758,24.342Z" transform="translate(-263.095 -19.609)" fill="#cf1d1b" fill-rule="evenodd"/>
      <path id="Path_3449" data-name="Path 3449" d="M383,1655.431l8.337.008-2.2,3.867-17.43,30.741c-1.208,2.131-2.29,3.907-4.311,3.908l-4.132,0h-5.736l20.55-36.184c1.209-2.129,2.907-2.347,4.927-2.345Z" transform="translate(-114.449 -19.557)" fill="#f05814" fill-rule="evenodd"/>
      <path id="Path_3450" data-name="Path 3450" d="M357.094,1655.47l8.32,0-2.19,3.869-3.254,5.75-11.928.009,4.126-7.288c1.206-2.13,2.906-2.346,4.926-2.345Z" transform="translate(-106.232 -19.591)" fill="#cf1d1b" fill-rule="evenodd"/>
      <path id="Path_3451" data-name="Path 3451" d="M252.652,1741.764l-13.066,23.089c-1.206,2.132-2.305,3.872-4.325,3.876l-9.855.017,2.182-3.887.04,0,13.094-23.1Z" transform="translate(0 -94.342)" fill="#f05814" fill-rule="evenodd"/>
      <path id="Path_3452" data-name="Path 3452" d="M825.245,1715.9v-14.326h3.036V1715.9Zm19.56,0h-3.859l-6.234-10.838h-.087q.186,2.874.187,4.1v6.742H832.1v-14.326h3.832l6.22,10.731h.07q-.15-2.794-.147-3.949v-6.782h2.732V1715.9Zm6.806,0h-2.99v-14.326h8.213v2.488h-5.224v3.692h4.863v2.488h-4.863v5.658Zm8.234,0v-14.326h3.036V1715.9Zm6.853-14.326h4.458a8.581,8.581,0,0,1,4.424.866,3.019,3.019,0,0,1,1.378,2.762,3.478,3.478,0,0,1-.6,2.107,2.407,2.407,0,0,1-1.6.99v.1a3.164,3.164,0,0,1,1.963,1.137,4.133,4.133,0,0,1-.813,5.271,6.114,6.114,0,0,1-3.846,1.1H866.7v-14.326Zm3.036,5.678H871.5a3.24,3.24,0,0,0,1.789-.381,1.437,1.437,0,0,0,.552-1.268,1.27,1.27,0,0,0-.6-1.184,3.884,3.884,0,0,0-1.906-.358h-1.6v3.19Zm0,2.408v3.732h1.98a2.924,2.924,0,0,0,1.853-.482,1.759,1.759,0,0,0,.6-1.468q0-1.781-2.548-1.782Zm18.9,6.24h-8.25v-14.326h8.25v2.488h-5.214v3.15h4.849v2.488h-4.849v3.692h5.214v2.508Zm11.969,0-1.04-3.411h-5.224l-1.037,3.411h-3.274l5.056-14.386H898.8l5.076,14.386Zm-1.766-5.959q-1.44-4.635-1.622-5.244c-.12-.4-.207-.726-.258-.96q-.326,1.254-1.853,6.2Zm13.116,5.959-3.451-11.24h-.087q.186,3.431.187,4.575v6.665h-2.716v-14.326h4.137l3.388,10.956h.06l3.6-10.956h4.133V1715.9h-2.833v-6.782c0-.318.007-.689.017-1.107s.053-1.528.13-3.331h-.087l-3.7,11.22Z" transform="translate(-519.601 -59.479)" fill="#f6f6f6"/>
      <path id="Path_3453" data-name="Path 3453" d="M1547.279,1638.91v-6.056h1.284v6.056Z" transform="translate(-1145.051 0)" fill="#f6f6f6"/>
      <path id="Path_3454" data-name="Path 3454" d="M1541.481,1634.137h-3.87v-1.284h3.87v1.284Z" transform="translate(-1136.676 0)" fill="#fff"/>
      <path id="Path_3455" data-name="Path 3455" d="M1574.916,1638.91l-1.459-4.751h-.037q.078,1.451.079,1.934v2.817h-1.148v-6.056h1.749l1.432,4.631h.026l1.521-4.631h1.748v6.056h-1.2v-2.867c0-.134,0-.291.007-.468s.023-.646.055-1.408h-.037l-1.562,4.743Z" transform="translate(-1166.769 0)" fill="#f6f6f6"/>
      <path id="Path_3456" data-name="Path 3456" d="M828.315,1850.234l-1.04-3.411h-5.224l-1.037,3.411h-3.274l5.056-14.387h3.712l5.076,14.387Zm-1.766-5.959q-1.44-4.635-1.622-5.244c-.12-.4-.207-.726-.258-.96q-.326,1.254-1.853,6.2Zm14.112-8.367h3.067l-4.869,14.326h-3.314l-4.859-14.326h3.067l2.7,8.524q.226.758.465,1.759c.16.672.261,1.137.3,1.4a24.722,24.722,0,0,1,.732-3.157l2.715-8.524Zm13.018,14.326h-8.25v-14.326h8.25v2.488h-5.214v3.15h4.849v2.488h-4.849v3.692h5.214v2.508Zm15.6,0h-3.859l-6.234-10.839H859.1q.186,2.875.187,4.1v6.742h-2.716v-14.326H860.4l6.22,10.731h.07c-.1-1.863-.147-3.18-.147-3.949v-6.782h2.732v14.326Zm15.169-14.326v9.273a5.362,5.362,0,0,1-.709,2.782,4.612,4.612,0,0,1-2.053,1.833,7.346,7.346,0,0,1-3.177.639,6.072,6.072,0,0,1-4.291-1.418,5.016,5.016,0,0,1-1.528-3.876v-9.233h3.026v8.772a3.686,3.686,0,0,0,.666,2.431,2.768,2.768,0,0,0,2.207.776,2.712,2.712,0,0,0,2.16-.779,3.686,3.686,0,0,0,.672-2.444v-8.755Zm11.657,14.326h-8.25v-14.326h8.25v2.488h-5.214v3.15h4.849v2.488h-4.849v3.692H896.1v2.508Zm11.349-3.973a3.707,3.707,0,0,1-1.4,3.057,6.06,6.06,0,0,1-3.886,1.117,9.116,9.116,0,0,1-4.057-.863v-2.823a16.843,16.843,0,0,0,2.455.913,7.2,7.2,0,0,0,1.836.264,2.616,2.616,0,0,0,1.535-.381,1.305,1.305,0,0,0,.535-1.137,1.246,1.246,0,0,0-.234-.749,2.579,2.579,0,0,0-.692-.632,17.092,17.092,0,0,0-1.856-.969,8.991,8.991,0,0,1-1.973-1.187,4.4,4.4,0,0,1-1.047-1.324,4.117,4.117,0,0,1,.9-4.752,5.351,5.351,0,0,1,3.562-1.087,8.39,8.39,0,0,1,2.134.264,14.7,14.7,0,0,1,2.12.745l-.98,2.361a14.314,14.314,0,0,0-1.9-.656,6.165,6.165,0,0,0-1.475-.187,1.959,1.959,0,0,0-1.324.4,1.327,1.327,0,0,0-.461,1.05,1.292,1.292,0,0,0,.187.7,2.03,2.03,0,0,0,.592.578,17.735,17.735,0,0,0,1.926,1,7.717,7.717,0,0,1,2.756,1.926,3.772,3.772,0,0,1,.746,2.368Z" transform="translate(-513.101 -175.718)" fill="#f6f6f6"/>
    </g>
  </g>
</svg>
