<svg xmlns="http://www.w3.org/2000/svg" width="71.167" height="24.031" viewBox="0 0 71.167 24.031">
  <g id="Group_1092" data-name="Group 1092" transform="translate(-98.853 -417.085)">
    <path id="Path_1873" data-name="Path 1873" d="M354.542,461.021h0L348.1,450.785h-3.048v16.036h3.392l-.178-10.236,6.369,10.236H357.6V450.785H354.21Z" transform="translate(-216.998 -29.703)" fill="#362d7e"/>
    <path id="Path_1874" data-name="Path 1874" d="M473.742,454.187h0l-1.637-.38c-1.423-.3-2.171-.463-2.467-1a.926.926,0,0,1-.166-.581,1.475,1.475,0,0,1,.13-.581c.546-.961,2.171-1.044,2.515-1.044h.047a4.341,4.341,0,0,1,3.807,2.218l.131.214,2.847-2.088-.166-.214a7.578,7.578,0,0,0-6.488-3.25c-3.76,0-5.266,1.874-5.776,2.669a5.2,5.2,0,0,0-.629,2.42,4.185,4.185,0,0,0,2.384,3.843,7.708,7.708,0,0,0,2.254.712l2,.463a1.938,1.938,0,0,0,.332.083,4.282,4.282,0,0,1,2.218.878,1.363,1.363,0,0,1,.213.795c0,1.293-1.459,1.625-1.637,1.672a4.442,4.442,0,0,1-1.091.13,5.011,5.011,0,0,1-4.6-2.218l-.166-.249-2.847,2,.13.214a6.089,6.089,0,0,0,.795,1.044,8.26,8.26,0,0,0,6.239,2.384,7.821,7.821,0,0,0,5.278-1.672,4.389,4.389,0,0,0,1.589-3.594,3.75,3.75,0,0,0-.961-2.8A7.522,7.522,0,0,0,473.742,454.187Z" transform="translate(-322.676 -26.794)" fill="#362d7e"/>
    <path id="Path_1875" data-name="Path 1875" d="M603.133,463.69h0V460.06h7.117v-3.048h-7.117v-3.131h7.828v-3.1H599.753v16.036h11.754V463.69Z" transform="translate(-441.488 -29.703)" fill="#362d7e"/>
    <g id="Group_511" data-name="Group 511" transform="translate(98.853 417.085)">
      <path id="Path_1876" data-name="Path 1876" d="M160.967,484.289h0l-5.314-5.3,5.314-5.3,5.314,5.3Z" transform="translate(-148.916 -466.972)" fill="#fefefe"/>
      <path id="Path_1877" data-name="Path 1877" d="M145.569,420.549h0l-8.54-3.464-8.576,3.5,8.54,3.214Z" transform="translate(-124.942 -417.085)" fill="#e65c1b"/>
      <path id="Path_1878" data-name="Path 1878" d="M205.767,454.837h0l3.262-8.552-8.576,3.25Z" transform="translate(-188.402 -442.822)" fill="#362d7e"/>
      <path id="Path_1879" data-name="Path 1879" d="M200.453,523.687h0l8.576,3.214-3.262-8.516Z" transform="translate(-188.402 -506.37)" fill="#ecae0e"/>
      <path id="Path_1880" data-name="Path 1880" d="M136.993,449.8h0l-8.54-3.214,3.226,8.516Z" transform="translate(-124.942 -443.086)" fill="#ecae0e"/>
      <path id="Path_1881" data-name="Path 1881" d="M102.364,446.584h0c-.047-.047-3.511,8.516-3.511,8.516l3.511,8.516,3.226-8.516Z" transform="translate(-98.853 -443.085)" fill="#e31d25"/>
      <path id="Path_1882" data-name="Path 1882" d="M131.679,518.385h0l-3.226,8.516,8.54-3.214Z" transform="translate(-124.942 -506.37)" fill="#ecae0e"/>
      <path id="Path_1883" data-name="Path 1883" d="M128.453,566.3h0l8.54,3.5,8.576-3.5-8.576-3.214Z" transform="translate(-124.942 -545.768)" fill="#e31d25"/>
      <path id="Path_1884" data-name="Path 1884" d="M248.515,446.285h0l-3.262,8.552,3.262,8.516,3.511-8.516Z" transform="translate(-227.888 -442.822)" fill="#e65c1b"/>
    </g>
  </g>
</svg>
