<svg xmlns="http://www.w3.org/2000/svg" width="23.152" height="28.438" viewBox="0 0 23.152 28.438">
  <g id="pdf-file" transform="translate(-44.806)">
    <path id="Path_2018" data-name="Path 2018" d="M119.919,298.166c0-.472-.328-.754-.906-.754a2.005,2.005,0,0,0-.48.046v1.515a1.818,1.818,0,0,0,.389.03C119.538,299,119.919,298.691,119.919,298.166Z" transform="translate(-69.378 -279.87)" fill="#db3218"/>
    <path id="Path_2019" data-name="Path 2019" d="M194.329,297.681a2.394,2.394,0,0,0-.525.046v3.356a2.1,2.1,0,0,0,.4.023,1.59,1.59,0,0,0,1.735-1.8A1.472,1.472,0,0,0,194.329,297.681Z" transform="translate(-140.21 -280.123)" fill="#db3218"/>
    <path id="Path_2020" data-name="Path 2020" d="M60.77,0H49.348a3.031,3.031,0,0,0-3.027,3.027V14.219h-.3a1.219,1.219,0,0,0-1.22,1.22v7.4a1.219,1.219,0,0,0,1.22,1.22h.3v1.356a3.03,3.03,0,0,0,3.027,3.027H64.932a3.03,3.03,0,0,0,3.026-3.027V7.163ZM48.006,16.773a9.56,9.56,0,0,1,1.568-.106,2.459,2.459,0,0,1,1.568.411,1.5,1.5,0,0,1,.548,1.187,1.64,1.64,0,0,1-.472,1.218,2.379,2.379,0,0,1-1.667.54,3,3,0,0,1-.4-.022v1.834H48.006Zm16.927,9.811H49.348a1.174,1.174,0,0,1-1.172-1.173V24.055H62.7a1.219,1.219,0,0,0,1.22-1.22v-7.4a1.219,1.219,0,0,0-1.22-1.22H48.176V3.027a1.174,1.174,0,0,1,1.172-1.171l10.728-.011V5.81a2.1,2.1,0,0,0,2.1,2.1L66.06,7.9,66.1,25.411A1.173,1.173,0,0,1,64.932,26.584Zm-12.5-4.772V16.773A10.447,10.447,0,0,1,54,16.667a3.3,3.3,0,0,1,2.1.547,2.27,2.27,0,0,1,.867,1.933,2.6,2.6,0,0,1-.852,2.078,3.682,3.682,0,0,1-2.367.662A10.041,10.041,0,0,1,52.43,21.812Zm8.306-2.983v.943H58.894v2.063H57.73V16.705h3.135v.951H58.894v1.172Z" fill="#db3218"/>
  </g>
</svg>
