<?xml version="1.0" encoding="utf-8"?>
<!-- Generator: Adobe Illustrator 26.2.1, SVG Export Plug-In . SVG Version: 6.00 Build 0)  -->
<svg version="1.1" id="Layer_1" xmlns="http://www.w3.org/2000/svg" xmlns:xlink="http://www.w3.org/1999/xlink" x="0px" y="0px"
	 viewBox="0 0 23.2 28.4" style="enable-background:new 0 0 23.2 28.4;" xml:space="preserve">
<style type="text/css">
	.st0{fill:#DB3218;}
	.st1{fill:#FFFFFF;}
</style>
<g>
	<g id="pdf-file" transform="translate(-44.806)">
		<path id="Path_2020" class="st0" d="M60.8,0H49.3c-1.7,0-3,1.4-3,3v11.2H46c-0.7,0-1.2,0.5-1.2,1.2c0,0,0,0,0,0v7.4
			c0,0.7,0.5,1.2,1.2,1.2c0,0,0,0,0,0h0.3v1.4c0,1.7,1.4,3,3,3h15.6c1.7,0,3-1.4,3-3V7.2L60.8,0z M64.9,26.6H49.3
			c-0.6,0-1.2-0.5-1.2-1.2v-1.4h14.5c0.7,0,1.2-0.5,1.2-1.2c0,0,0,0,0,0v-7.4c0-0.7-0.5-1.2-1.2-1.2c0,0,0,0,0,0H48.2V3
			c0-0.6,0.5-1.2,1.2-1.2l10.7,0v4c0,1.2,0.9,2.1,2.1,2.1l3.9,0l0,17.5C66.1,26.1,65.6,26.6,64.9,26.6L64.9,26.6z"/>
	</g>
	<g>
		<path class="st1" d="M4.1,16.7l1.3,3.7l1.3-3.7h1.4v5.1H7v-1.4L7.1,18l-1.4,3.8H5L3.7,18l0.1,2.4v1.4H2.7v-5.1H4.1z"/>
		<path class="st1" d="M10.1,20v1.8H9v-5.1h2c0.4,0,0.7,0.1,1,0.2c0.3,0.1,0.5,0.3,0.7,0.6c0.2,0.3,0.2,0.6,0.2,0.9
			c0,0.5-0.2,0.9-0.5,1.2C12.1,19.8,11.6,20,11,20H10.1z M10.1,19.1H11c0.3,0,0.5-0.1,0.6-0.2c0.1-0.1,0.2-0.3,0.2-0.6
			c0-0.3-0.1-0.5-0.2-0.6c-0.1-0.2-0.4-0.2-0.6-0.2h-1V19.1z"/>
		<path class="st1" d="M14.6,18.8h0.5c0.3,0,0.4-0.1,0.6-0.2c0.1-0.1,0.2-0.3,0.2-0.5c0-0.2-0.1-0.4-0.2-0.5
			c-0.1-0.1-0.3-0.2-0.5-0.2c-0.2,0-0.4,0.1-0.5,0.2c-0.1,0.1-0.2,0.2-0.2,0.4h-1c0-0.3,0.1-0.5,0.2-0.7s0.3-0.4,0.6-0.5
			c0.3-0.1,0.5-0.2,0.9-0.2c0.5,0,1,0.1,1.3,0.4c0.3,0.3,0.5,0.6,0.5,1.1c0,0.2-0.1,0.4-0.2,0.6c-0.1,0.2-0.3,0.3-0.6,0.5
			c0.3,0.1,0.5,0.3,0.6,0.5s0.2,0.4,0.2,0.7c0,0.5-0.2,0.8-0.5,1.1c-0.3,0.3-0.8,0.4-1.3,0.4c-0.5,0-0.9-0.1-1.3-0.4
			c-0.3-0.3-0.5-0.6-0.5-1.1h1c0,0.2,0.1,0.3,0.2,0.5C14.8,21,15,21,15.2,21c0.2,0,0.4-0.1,0.6-0.2c0.1-0.1,0.2-0.3,0.2-0.5
			c0-0.5-0.3-0.8-0.8-0.8h-0.5V18.8z"/>
	</g>
	<path class="st0" d="M10.8,5.1C10.4,4.9,10,4.6,9.7,4.3c-0.1-0.1-0.2,0-0.2,0.1v4.9c0,0.1-0.1,0.2-0.2,0.1C9,9.3,8.6,9.2,8.2,9.2
		c-1,0-1.7,0.6-1.7,1.3s0.8,1.3,1.7,1.3s1.7-0.6,1.7-1.3V6.7c0-0.1,0.1-0.2,0.2-0.1c1.4,0.4,1.4,1.2,1.4,1.6c0,0.1,0.1,0.2,0.2,0.2
		c0.6-0.2,0.8-0.8,0.9-0.9v0C12.8,6.1,11.7,5.4,10.8,5.1L10.8,5.1z"/>
</g>
</svg>
