<svg xmlns="http://www.w3.org/2000/svg" viewBox="0 0 14 14"><defs><style>.cls-1{fill:#333e63;}</style></defs><g id="Layer_2" data-name="Layer 2"><g id="Layer_1-2" data-name="Layer 1"><path class="cls-1" d="M13.6,9.89,10.54,8.58a.8.8,0,0,0-.26-.05.77.77,0,0,0-.51.24L8.42,10.43A11.81,11.81,0,0,1,3.57,5.58L5.23,4.22a.72.72,0,0,0,.24-.5.75.75,0,0,0,0-.26L4.1.4A.7.7,0,0,0,3.5,0L3.35,0,.51.67A.69.69,0,0,0,0,1.31H0A12.68,12.68,0,0,0,12.69,14h0a.69.69,0,0,0,.64-.51L14,10.65a.77.77,0,0,0,0-.15A.73.73,0,0,0,13.6,9.89Z"/></g></g></svg>