<svg xmlns="http://www.w3.org/2000/svg" viewBox="0 0 14 14"><defs><style>.cls-1{fill:#333e63;}</style></defs><g id="Layer_2" data-name="Layer 2"><g id="Layer_1-2" data-name="Layer 1"><path class="cls-1" d="M1.75,3.5H.88A.87.87,0,0,0,0,4.38v8.75A.87.87,0,0,0,.88,14h.87a.88.88,0,0,0,.88-.87V4.38A.88.88,0,0,0,1.75,3.5Zm9.63,1.75H5.25V1.75H9.63V3.06a.44.44,0,0,0,.43.44h1.32Zm0,3.06a.44.44,0,0,1-.44.44h-.88a.44.44,0,0,1-.43-.44V7.44A.44.44,0,0,1,10.06,7h.88a.44.44,0,0,1,.44.44Zm0,3.5a.44.44,0,0,1-.44.44h-.88a.44.44,0,0,1-.43-.44v-.87a.44.44,0,0,1,.43-.44h.88a.44.44,0,0,1,.44.44Zm-3.5-3.5a.44.44,0,0,1-.44.44H6.56a.44.44,0,0,1-.43-.44V7.44A.44.44,0,0,1,6.56,7h.88a.44.44,0,0,1,.44.44Zm0,3.5a.44.44,0,0,1-.44.44H6.56a.44.44,0,0,1-.43-.44v-.87a.44.44,0,0,1,.43-.44h.88a.44.44,0,0,1,.44.44Zm5.25-7.43V2.11a1.08,1.08,0,0,0-.26-.62L11.63.26A1,1,0,0,0,11,0H4.38A.87.87,0,0,0,3.5.88V13.13a.87.87,0,0,0,.88.87h8.75a.87.87,0,0,0,.87-.87V5.25A.87.87,0,0,0,13.13,4.38Z"/></g></g></svg>